<?xml version="1.0" encoding="UTF-8" standalone="no"?>
<!DOCTYPE svg PUBLIC "-//W3C//DTD SVG 1.1//EN"
 "http://www.w3.org/Graphics/SVG/1.1/DTD/svg11.dtd">
<!-- Generated by graphviz version 5.0.1 (20220820.1526)
 -->
<!-- Title: state transitions Pages: 1 -->
<svg width="282pt" height="102pt"
 viewBox="0.00 0.00 281.50 102.00" xmlns="http://www.w3.org/2000/svg" xmlns:xlink="http://www.w3.org/1999/xlink">
<g id="graph0" class="graph" transform="scale(1 1) rotate(0) translate(4 98)">
<title>state transitions</title>
<polygon fill="white" stroke="none" points="-4,4 -4,-98 277.5,-98 277.5,4 -4,4"/>
<!-- active -->
<g id="node1" class="node state regular">
<title>active</title>
<polygon fill="#ffffff" fill-opacity="0.003922" stroke="none" stroke-width="2" points="229,-36 173,-36 173,0 229,0 229,-36"/>
<text text-anchor="start" x="185" y="-14.4" font-family="Helvetica,sans-Serif" font-size="12.00">active</text>
<path fill="none" stroke="black" stroke-width="2" d="M185,-1.5C185,-1.5 217,-1.5 217,-1.5 222.5,-1.5 228,-7 228,-12.5 228,-12.5 228,-23.5 228,-23.5 228,-29 222.5,-34.5 217,-34.5 217,-34.5 185,-34.5 185,-34.5 179.5,-34.5 174,-29 174,-23.5 174,-23.5 174,-12.5 174,-12.5 174,-7 179.5,-1.5 185,-1.5"/>
</g>
<!-- active&#45;&gt;active -->
<g id="edge2" class="edge transition">
<title>active&#45;&gt;active</title>
<path fill="none" stroke="black" d="M194.03,-36.1C192.35,-47.32 194.67,-58 201,-58 205.35,-58 207.81,-52.95 208.37,-46.15"/>
<polygon fill="black" stroke="black" points="211.87,-45.95 207.97,-36.1 204.87,-46.23 211.87,-45.95"/>
<text text-anchor="start" x="140.5" y="-61" font-family="Helvetica,sans-Serif" font-size="10.00">Plan &#45; Plan install actions &#160;&#160;</text>
</g>
<!-- active&#45;&gt;active -->
<g id="edge3" class="edge transition">
<title>active&#45;&gt;active</title>
<path fill="none" stroke="black" d="M189.87,-36.09C182.21,-56.51 185.92,-80 201,-80 213.72,-80 218.35,-63.28 214.89,-45.78"/>
<polygon fill="black" stroke="black" points="218.23,-44.75 212.13,-36.09 211.5,-46.66 218.23,-44.75"/>
<text text-anchor="start" x="128.5" y="-83" font-family="Helvetica,sans-Serif" font-size="10.00">Query &#45; Query device inventory &#160;&#160;</text>
</g>
<!-- pending -->
<g id="node2" class="node state regular">
<title>pending</title>
<polygon fill="#ffffff" fill-opacity="0.003922" stroke="none" stroke-width="2" points="66,-36 0,-36 0,0 66,0 66,-36"/>
<text text-anchor="start" x="11" y="-14.4" font-family="Helvetica,sans-Serif" font-size="12.00">pending</text>
<path fill="none" stroke="black" stroke-width="2" d="M12,-1.5C12,-1.5 54,-1.5 54,-1.5 59.5,-1.5 65,-7 65,-12.5 65,-12.5 65,-23.5 65,-23.5 65,-29 59.5,-34.5 54,-34.5 54,-34.5 12,-34.5 12,-34.5 6.5,-34.5 1,-29 1,-23.5 1,-23.5 1,-12.5 1,-12.5 1,-7 6.5,-1.5 12,-1.5"/>
</g>
<!-- pending&#45;&gt;active -->
<g id="edge1" class="edge transition">
<title>pending&#45;&gt;active</title>
<path fill="none" stroke="black" d="M66.01,-18C93.61,-18 133.51,-18 162.58,-18"/>
<polygon fill="black" stroke="black" points="162.76,-21.5 172.76,-18 162.76,-14.5 162.76,-21.5"/>
<text text-anchor="start" x="74" y="-21" font-family="Helvetica,sans-Serif" font-size="10.00">null &#45; Initialize task &#160;&#160;</text>
</g>
</g>
</svg>
