<?xml version="1.0" encoding="UTF-8" standalone="no"?>
<!DOCTYPE svg PUBLIC "-//W3C//DTD SVG 1.1//EN"
 "http://www.w3.org/Graphics/SVG/1.1/DTD/svg11.dtd">
<!-- Generated by graphviz version 5.0.1 (20220820.1526)
 -->
<!-- Title: state transitions Pages: 1 -->
<svg width="298pt" height="51pt"
 viewBox="0.00 0.00 298.00 50.55" xmlns="http://www.w3.org/2000/svg" xmlns:xlink="http://www.w3.org/1999/xlink">
<g id="graph0" class="graph" transform="scale(1 1) rotate(0) translate(4 46.55)">
<title>state transitions</title>
<polygon fill="white" stroke="none" points="-4,4 -4,-46.55 294,-46.55 294,4 -4,4"/>
<!-- active -->
<g id="node1" class="node state regular">
<title>active</title>
<polygon fill="#ffffff" fill-opacity="0.003922" stroke="none" stroke-width="2" points="56,-42.55 0,-42.55 0,-6.55 56,-6.55 56,-42.55"/>
<text text-anchor="start" x="12" y="-20.95" font-family="Helvetica,sans-Serif" font-size="12.00">active</text>
<path fill="none" stroke="black" stroke-width="2" d="M12,-8.05C12,-8.05 44,-8.05 44,-8.05 49.5,-8.05 55,-13.55 55,-19.05 55,-19.05 55,-30.05 55,-30.05 55,-35.55 49.5,-41.05 44,-41.05 44,-41.05 12,-41.05 12,-41.05 6.5,-41.05 1,-35.55 1,-30.05 1,-30.05 1,-19.05 1,-19.05 1,-13.55 6.5,-8.05 12,-8.05"/>
</g>
<!-- succeeded -->
<g id="node2" class="node state regular">
<title>succeeded</title>
<polygon fill="#ffffff" fill-opacity="0.003922" stroke="none" stroke-width="2" points="290,-42.55 209,-42.55 209,-6.55 290,-6.55 290,-42.55"/>
<text text-anchor="start" x="220.5" y="-20.95" font-family="Helvetica,sans-Serif" font-size="12.00">succeeded</text>
<path fill="none" stroke="black" stroke-width="2" d="M221,-8.05C221,-8.05 278,-8.05 278,-8.05 283.5,-8.05 289,-13.55 289,-19.05 289,-19.05 289,-30.05 289,-30.05 289,-35.55 283.5,-41.05 278,-41.05 278,-41.05 221,-41.05 221,-41.05 215.5,-41.05 210,-35.55 210,-30.05 210,-30.05 210,-19.05 210,-19.05 210,-13.55 215.5,-8.05 221,-8.05"/>
</g>
<!-- active&#45;&gt;succeeded -->
<g id="edge1" class="edge transition">
<title>active&#45;&gt;succeeded</title>
<path fill="none" stroke="black" d="M56.36,-24.55C91.89,-24.55 154.59,-24.55 198.67,-24.55"/>
<polygon fill="black" stroke="black" points="198.9,-28.05 208.9,-24.55 198.9,-21.05 198.9,-28.05"/>
<text text-anchor="start" x="73.5" y="-27.55" font-family="Helvetica,sans-Serif" font-size="10.00">Run &#45; Run install actions &#160;&#160;</text>
</g>
<!-- active&#45;&gt;succeeded -->
<g id="edge2" class="edge transition">
<title>active&#45;&gt;succeeded</title>
<path fill="none" stroke="black" d="M56.13,-10.81C58.74,-9.9 61.39,-9.12 64,-8.55 120.47,3.75 139.04,1.57 198.86,-8.47"/>
<polygon fill="black" stroke="black" points="198.39,-11.93 208.83,-10.14 199.55,-5.03 198.39,-11.93"/>
<text text-anchor="start" x="64" y="-11.55" font-family="Helvetica,sans-Serif" font-size="10.00">succeeded &#45; Task successful &#160;&#160;</text>
</g>
</g>
</svg>
