<?xml version="1.0" encoding="UTF-8" standalone="no"?>
<!DOCTYPE svg PUBLIC "-//W3C//DTD SVG 1.1//EN"
 "http://www.w3.org/Graphics/SVG/1.1/DTD/svg11.dtd">
<!-- Generated by graphviz version 5.0.1 (20220820.1526)
 -->
<!-- Title: state transitions Pages: 1 -->
<svg width="273pt" height="50pt"
 viewBox="0.00 0.00 273.00 50.34" xmlns="http://www.w3.org/2000/svg" xmlns:xlink="http://www.w3.org/1999/xlink">
<g id="graph0" class="graph" transform="scale(1 1) rotate(0) translate(4 46.34)">
<title>state transitions</title>
<polygon fill="white" stroke="none" points="-4,4 -4,-46.34 269,-46.34 269,4 -4,4"/>
<!-- active -->
<g id="node1" class="node state regular">
<title>active</title>
<polygon fill="#ffffff" fill-opacity="0.003922" stroke="none" stroke-width="2" points="56,-42.34 0,-42.34 0,-6.34 56,-6.34 56,-42.34"/>
<text text-anchor="start" x="12" y="-20.74" font-family="Helvetica,sans-Serif" font-size="12.00">active</text>
<path fill="none" stroke="black" stroke-width="2" d="M12,-7.84C12,-7.84 44,-7.84 44,-7.84 49.5,-7.84 55,-13.34 55,-18.84 55,-18.84 55,-29.84 55,-29.84 55,-35.34 49.5,-40.84 44,-40.84 44,-40.84 12,-40.84 12,-40.84 6.5,-40.84 1,-35.34 1,-29.84 1,-29.84 1,-18.84 1,-18.84 1,-13.34 6.5,-7.84 12,-7.84"/>
</g>
<!-- success -->
<g id="node2" class="node state regular">
<title>success</title>
<polygon fill="#ffffff" fill-opacity="0.003922" stroke="none" stroke-width="2" points="265,-42.34 199,-42.34 199,-6.34 265,-6.34 265,-42.34"/>
<text text-anchor="start" x="210" y="-20.74" font-family="Helvetica,sans-Serif" font-size="12.00">success</text>
<path fill="none" stroke="black" stroke-width="2" d="M211,-7.84C211,-7.84 253,-7.84 253,-7.84 258.5,-7.84 264,-13.34 264,-18.84 264,-18.84 264,-29.84 264,-29.84 264,-35.34 258.5,-40.84 253,-40.84 253,-40.84 211,-40.84 211,-40.84 205.5,-40.84 200,-35.34 200,-29.84 200,-29.84 200,-18.84 200,-18.84 200,-13.34 205.5,-7.84 211,-7.84"/>
</g>
<!-- active&#45;&gt;success -->
<g id="edge1" class="edge transition">
<title>active&#45;&gt;success</title>
<path fill="none" stroke="black" d="M56.24,-24.34C90.25,-24.34 148.78,-24.34 188.66,-24.34"/>
<polygon fill="black" stroke="black" points="188.87,-27.84 198.87,-24.34 188.87,-20.84 188.87,-27.84"/>
<text text-anchor="start" x="68.5" y="-27.34" font-family="Helvetica,sans-Serif" font-size="10.00">Run &#45; Run install actions &#160;&#160;</text>
</g>
<!-- active&#45;&gt;success -->
<g id="edge2" class="edge transition">
<title>active&#45;&gt;success</title>
<path fill="none" stroke="black" d="M56.13,-10.61C58.74,-9.69 61.39,-8.91 64,-8.34 116.14,3.01 133.66,2.44 188.63,-8.24"/>
<polygon fill="black" stroke="black" points="188.08,-11.7 198.56,-10.2 189.43,-4.83 188.08,-11.7"/>
<text text-anchor="start" x="64" y="-11.34" font-family="Helvetica,sans-Serif" font-size="10.00">success &#45; Task successful &#160;&#160;</text>
</g>
</g>
</svg>
