<?xml version="1.0" encoding="UTF-8" standalone="no"?>
<!DOCTYPE svg PUBLIC "-//W3C//DTD SVG 1.1//EN"
 "http://www.w3.org/Graphics/SVG/1.1/DTD/svg11.dtd">
<!-- Generated by graphviz version 5.0.1 (20220820.1526)
 -->
<!-- Title: state transitions Pages: 1 -->
<svg width="235pt" height="102pt"
 viewBox="0.00 0.00 235.00 102.00" xmlns="http://www.w3.org/2000/svg" xmlns:xlink="http://www.w3.org/1999/xlink">
<g id="graph0" class="graph" transform="scale(1 1) rotate(0) translate(4 98)">
<title>state transitions</title>
<polygon fill="white" stroke="none" points="-4,4 -4,-98 231,-98 231,4 -4,4"/>
<!-- active -->
<g id="node1" class="node state regular">
<title>active</title>
<polygon fill="#ffffff" fill-opacity="0.003922" stroke="none" stroke-width="2" points="61,-94 5,-94 5,-58 61,-58 61,-94"/>
<text text-anchor="start" x="17" y="-72.4" font-family="Helvetica,sans-Serif" font-size="12.00">active</text>
<path fill="none" stroke="black" stroke-width="2" d="M17,-59.5C17,-59.5 49,-59.5 49,-59.5 54.5,-59.5 60,-65 60,-70.5 60,-70.5 60,-81.5 60,-81.5 60,-87 54.5,-92.5 49,-92.5 49,-92.5 17,-92.5 17,-92.5 11.5,-92.5 6,-87 6,-81.5 6,-81.5 6,-70.5 6,-70.5 6,-65 11.5,-59.5 17,-59.5"/>
</g>
<!-- failed -->
<g id="node2" class="node state regular">
<title>failed</title>
<polygon fill="#ffffff" fill-opacity="0.003922" stroke="none" stroke-width="2" points="227,-65 171,-65 171,-29 227,-29 227,-65"/>
<text text-anchor="start" x="184" y="-43.4" font-family="Helvetica,sans-Serif" font-size="12.00">failed</text>
<path fill="none" stroke="black" stroke-width="2" d="M183,-30.5C183,-30.5 215,-30.5 215,-30.5 220.5,-30.5 226,-36 226,-41.5 226,-41.5 226,-52.5 226,-52.5 226,-58 220.5,-63.5 215,-63.5 215,-63.5 183,-63.5 183,-63.5 177.5,-63.5 172,-58 172,-52.5 172,-52.5 172,-41.5 172,-41.5 172,-36 177.5,-30.5 183,-30.5"/>
</g>
<!-- active&#45;&gt;failed -->
<g id="edge2" class="edge transition">
<title>active&#45;&gt;failed</title>
<path fill="none" stroke="black" d="M61.08,-71.21C88.26,-66.4 130.35,-58.96 160.68,-53.6"/>
<polygon fill="black" stroke="black" points="161.64,-56.98 170.88,-51.8 160.42,-50.09 161.64,-56.98"/>
<text text-anchor="start" x="74" y="-71" font-family="Helvetica,sans-Serif" font-size="10.00">failed &#45; Task failed &#160;&#160;</text>
</g>
<!-- pending -->
<g id="node3" class="node state regular">
<title>pending</title>
<polygon fill="#ffffff" fill-opacity="0.003922" stroke="none" stroke-width="2" points="66,-36 0,-36 0,0 66,0 66,-36"/>
<text text-anchor="start" x="11" y="-14.4" font-family="Helvetica,sans-Serif" font-size="12.00">pending</text>
<path fill="none" stroke="black" stroke-width="2" d="M12,-1.5C12,-1.5 54,-1.5 54,-1.5 59.5,-1.5 65,-7 65,-12.5 65,-12.5 65,-23.5 65,-23.5 65,-29 59.5,-34.5 54,-34.5 54,-34.5 12,-34.5 12,-34.5 6.5,-34.5 1,-29 1,-23.5 1,-23.5 1,-12.5 1,-12.5 1,-7 6.5,-1.5 12,-1.5"/>
</g>
<!-- pending&#45;&gt;failed -->
<g id="edge1" class="edge transition">
<title>pending&#45;&gt;failed</title>
<path fill="none" stroke="black" d="M66.23,-22.11C90.27,-25.36 124.13,-30.36 160.98,-37.73"/>
<polygon fill="black" stroke="black" points="160.43,-41.19 170.93,-39.76 161.83,-34.33 160.43,-41.19"/>
<text text-anchor="start" x="74" y="-41" font-family="Helvetica,sans-Serif" font-size="10.00">failed &#45; Task failed &#160;&#160;</text>
</g>
</g>
</svg>
