<?xml version="1.0" encoding="UTF-8" standalone="no"?>
<!DOCTYPE svg PUBLIC "-//W3C//DTD SVG 1.1//EN"
 "http://www.w3.org/Graphics/SVG/1.1/DTD/svg11.dtd">
<!-- Generated by graphviz version 5.0.1 (20220820.1526)
 -->
<!-- Title: state transitions Pages: 1 -->
<svg width="153pt" height="102pt"
 viewBox="0.00 0.00 153.00 102.00" xmlns="http://www.w3.org/2000/svg" xmlns:xlink="http://www.w3.org/1999/xlink">
<g id="graph0" class="graph" transform="scale(1 1) rotate(0) translate(4 98)">
<title>state transitions</title>
<polygon fill="white" stroke="none" points="-4,4 -4,-98 149,-98 149,4 -4,4"/>
<!-- active -->
<g id="node1" class="node state regular">
<title>active</title>
<polygon fill="#ffffff" fill-opacity="0.003922" stroke="none" stroke-width="2" points="100.5,-36 44.5,-36 44.5,0 100.5,0 100.5,-36"/>
<text text-anchor="start" x="56.5" y="-14.4" font-family="Helvetica,sans-Serif" font-size="12.00">active</text>
<path fill="none" stroke="black" stroke-width="2" d="M56.5,-1.5C56.5,-1.5 88.5,-1.5 88.5,-1.5 94,-1.5 99.5,-7 99.5,-12.5 99.5,-12.5 99.5,-23.5 99.5,-23.5 99.5,-29 94,-34.5 88.5,-34.5 88.5,-34.5 56.5,-34.5 56.5,-34.5 51,-34.5 45.5,-29 45.5,-23.5 45.5,-23.5 45.5,-12.5 45.5,-12.5 45.5,-7 51,-1.5 56.5,-1.5"/>
</g>
<!-- active&#45;&gt;active -->
<g id="edge1" class="edge transition">
<title>active&#45;&gt;active</title>
<path fill="none" stroke="black" d="M67.62,-36.1C66.44,-47.32 68.07,-58 72.5,-58 75.55,-58 77.27,-52.95 77.66,-46.15"/>
<polygon fill="black" stroke="black" points="81.16,-46 77.38,-36.1 74.16,-46.19 81.16,-46"/>
<text text-anchor="start" x="12" y="-61" font-family="Helvetica,sans-Serif" font-size="10.00">Plan &#45; Plan install actions &#160;&#160;</text>
</g>
<!-- active&#45;&gt;active -->
<g id="edge2" class="edge transition">
<title>active&#45;&gt;active</title>
<path fill="none" stroke="black" d="M64.71,-36.09C59.35,-56.51 61.95,-80 72.5,-80 81.32,-80 84.59,-63.58 82.29,-46.27"/>
<polygon fill="black" stroke="black" points="85.65,-45.23 80.29,-36.09 78.78,-46.58 85.65,-45.23"/>
<text text-anchor="start" x="0" y="-83" font-family="Helvetica,sans-Serif" font-size="10.00">Query &#45; Query device inventory &#160;&#160;</text>
</g>
</g>
</svg>
