<?xml version="1.0" encoding="UTF-8" standalone="no"?>
<!DOCTYPE svg PUBLIC "-//W3C//DTD SVG 1.1//EN"
 "http://www.w3.org/Graphics/SVG/1.1/DTD/svg11.dtd">
<!-- Generated by graphviz version 5.0.1 (20220820.1526)
 -->
<!-- Title: state transitions Pages: 1 -->
<svg width="232pt" height="102pt"
 viewBox="0.00 0.00 232.00 102.00" xmlns="http://www.w3.org/2000/svg" xmlns:xlink="http://www.w3.org/1999/xlink">
<g id="graph0" class="graph" transform="scale(1 1) rotate(0) translate(4 98)">
<title>state transitions</title>
<polygon fill="white" stroke="none" points="-4,4 -4,-98 228,-98 228,4 -4,4"/>
<!-- active -->
<g id="node1" class="node state regular">
<title>active</title>
<polygon fill="#ffffff" fill-opacity="0.003922" stroke="none" stroke-width="2" points="59.5,-94 3.5,-94 3.5,-58 59.5,-58 59.5,-94"/>
<text text-anchor="start" x="15.5" y="-72.4" font-family="Helvetica,sans-Serif" font-size="12.00">active</text>
<path fill="none" stroke="black" stroke-width="2" d="M15.5,-59.5C15.5,-59.5 47.5,-59.5 47.5,-59.5 53,-59.5 58.5,-65 58.5,-70.5 58.5,-70.5 58.5,-81.5 58.5,-81.5 58.5,-87 53,-92.5 47.5,-92.5 47.5,-92.5 15.5,-92.5 15.5,-92.5 10,-92.5 4.5,-87 4.5,-81.5 4.5,-81.5 4.5,-70.5 4.5,-70.5 4.5,-65 10,-59.5 15.5,-59.5"/>
</g>
<!-- failed -->
<g id="node2" class="node state regular">
<title>failed</title>
<polygon fill="#ffffff" fill-opacity="0.003922" stroke="none" stroke-width="2" points="224,-65 168,-65 168,-29 224,-29 224,-65"/>
<text text-anchor="start" x="181" y="-43.4" font-family="Helvetica,sans-Serif" font-size="12.00">failed</text>
<path fill="none" stroke="black" stroke-width="2" d="M180,-30.5C180,-30.5 212,-30.5 212,-30.5 217.5,-30.5 223,-36 223,-41.5 223,-41.5 223,-52.5 223,-52.5 223,-58 217.5,-63.5 212,-63.5 212,-63.5 180,-63.5 180,-63.5 174.5,-63.5 169,-58 169,-52.5 169,-52.5 169,-41.5 169,-41.5 169,-36 174.5,-30.5 180,-30.5"/>
</g>
<!-- active&#45;&gt;failed -->
<g id="edge2" class="edge transition">
<title>active&#45;&gt;failed</title>
<path fill="none" stroke="black" d="M59.7,-71.15C86.61,-66.34 128.01,-58.96 157.92,-53.62"/>
<polygon fill="black" stroke="black" points="158.75,-57.02 167.98,-51.82 157.52,-50.13 158.75,-57.02"/>
<text text-anchor="start" x="71" y="-71" font-family="Helvetica,sans-Serif" font-size="10.00">failed &#45; Task failed &#160;&#160;</text>
</g>
<!-- queued -->
<g id="node3" class="node state regular">
<title>queued</title>
<polygon fill="#ffffff" fill-opacity="0.003922" stroke="none" stroke-width="2" points="63,-36 0,-36 0,0 63,0 63,-36"/>
<text text-anchor="start" x="11.5" y="-14.4" font-family="Helvetica,sans-Serif" font-size="12.00">queued</text>
<path fill="none" stroke="black" stroke-width="2" d="M12,-1.5C12,-1.5 51,-1.5 51,-1.5 56.5,-1.5 62,-7 62,-12.5 62,-12.5 62,-23.5 62,-23.5 62,-29 56.5,-34.5 51,-34.5 51,-34.5 12,-34.5 12,-34.5 6.5,-34.5 1,-29 1,-23.5 1,-23.5 1,-12.5 1,-12.5 1,-7 6.5,-1.5 12,-1.5"/>
</g>
<!-- queued&#45;&gt;failed -->
<g id="edge1" class="edge transition">
<title>queued&#45;&gt;failed</title>
<path fill="none" stroke="black" d="M63.05,-21.95C86.84,-25.21 120.91,-30.28 157.94,-37.71"/>
<polygon fill="black" stroke="black" points="157.43,-41.18 167.93,-39.76 158.83,-34.33 157.43,-41.18"/>
<text text-anchor="start" x="71" y="-41" font-family="Helvetica,sans-Serif" font-size="10.00">failed &#45; Task failed &#160;&#160;</text>
</g>
</g>
</svg>
