<?xml version="1.0" encoding="UTF-8" standalone="no"?>
<!DOCTYPE svg PUBLIC "-//W3C//DTD SVG 1.1//EN"
 "http://www.w3.org/Graphics/SVG/1.1/DTD/svg11.dtd">
<!-- Generated by graphviz version 5.0.1 (20220820.1526)
 -->
<!-- Title: state transitions Pages: 1 -->
<svg width="232pt" height="44pt"
 viewBox="0.00 0.00 232.00 44.00" xmlns="http://www.w3.org/2000/svg" xmlns:xlink="http://www.w3.org/1999/xlink">
<g id="graph0" class="graph" transform="scale(1 1) rotate(0) translate(4 40)">
<title>state transitions</title>
<polygon fill="white" stroke="none" points="-4,4 -4,-40 228,-40 228,4 -4,4"/>
<!-- failed -->
<g id="node1" class="node state regular">
<title>failed</title>
<polygon fill="#ffffff" fill-opacity="0.003922" stroke="none" stroke-width="2" points="224,-36 168,-36 168,0 224,0 224,-36"/>
<text text-anchor="start" x="181" y="-14.4" font-family="Helvetica,sans-Serif" font-size="12.00">failed</text>
<path fill="none" stroke="black" stroke-width="2" d="M180,-1.5C180,-1.5 212,-1.5 212,-1.5 217.5,-1.5 223,-7 223,-12.5 223,-12.5 223,-23.5 223,-23.5 223,-29 217.5,-34.5 212,-34.5 212,-34.5 180,-34.5 180,-34.5 174.5,-34.5 169,-29 169,-23.5 169,-23.5 169,-12.5 169,-12.5 169,-7 174.5,-1.5 180,-1.5"/>
</g>
<!-- queued -->
<g id="node2" class="node state regular">
<title>queued</title>
<polygon fill="#ffffff" fill-opacity="0.003922" stroke="none" stroke-width="2" points="63,-36 0,-36 0,0 63,0 63,-36"/>
<text text-anchor="start" x="11.5" y="-14.4" font-family="Helvetica,sans-Serif" font-size="12.00">queued</text>
<path fill="none" stroke="black" stroke-width="2" d="M12,-1.5C12,-1.5 51,-1.5 51,-1.5 56.5,-1.5 62,-7 62,-12.5 62,-12.5 62,-23.5 62,-23.5 62,-29 56.5,-34.5 51,-34.5 51,-34.5 12,-34.5 12,-34.5 6.5,-34.5 1,-29 1,-23.5 1,-23.5 1,-12.5 1,-12.5 1,-7 6.5,-1.5 12,-1.5"/>
</g>
<!-- queued&#45;&gt;failed -->
<g id="edge1" class="edge transition">
<title>queued&#45;&gt;failed</title>
<path fill="none" stroke="black" d="M63.07,-18C89.92,-18 129.08,-18 157.76,-18"/>
<polygon fill="black" stroke="black" points="157.81,-21.5 167.81,-18 157.81,-14.5 157.81,-21.5"/>
<text text-anchor="start" x="71" y="-21" font-family="Helvetica,sans-Serif" font-size="10.00">failed &#45; Task failed &#160;&#160;</text>
</g>
</g>
</svg>
