<?xml version="1.0" encoding="UTF-8" standalone="no"?>
<!DOCTYPE svg PUBLIC "-//W3C//DTD SVG 1.1//EN"
 "http://www.w3.org/Graphics/SVG/1.1/DTD/svg11.dtd">
<!-- Generated by graphviz version 5.0.1 (20220820.1526)
 -->
<!-- Title: state transitions Pages: 1 -->
<svg width="318pt" height="134pt"
 viewBox="0.00 0.00 317.50 134.46" xmlns="http://www.w3.org/2000/svg" xmlns:xlink="http://www.w3.org/1999/xlink">
<g id="graph0" class="graph" transform="scale(1 1) rotate(0) translate(4 130.46)">
<title>state transitions</title>
<polygon fill="white" stroke="none" points="-4,4 -4,-130.46 313.5,-130.46 313.5,4 -4,4"/>
<!-- active -->
<g id="node1" class="node state regular">
<title>active</title>
<polygon fill="#ffffff" fill-opacity="0.003922" stroke="none" stroke-width="2" points="100.5,-68.46 44.5,-68.46 44.5,-32.46 100.5,-32.46 100.5,-68.46"/>
<text text-anchor="start" x="56.5" y="-46.86" font-family="Helvetica,sans-Serif" font-size="12.00">active</text>
<path fill="none" stroke="black" stroke-width="2" d="M56.5,-33.96C56.5,-33.96 88.5,-33.96 88.5,-33.96 94,-33.96 99.5,-39.46 99.5,-44.96 99.5,-44.96 99.5,-55.96 99.5,-55.96 99.5,-61.46 94,-66.96 88.5,-66.96 88.5,-66.96 56.5,-66.96 56.5,-66.96 51,-66.96 45.5,-61.46 45.5,-55.96 45.5,-55.96 45.5,-44.96 45.5,-44.96 45.5,-39.46 51,-33.96 56.5,-33.96"/>
</g>
<!-- active&#45;&gt;active -->
<g id="edge2" class="edge transition">
<title>active&#45;&gt;active</title>
<path fill="none" stroke="black" d="M63.96,-68.56C61.9,-79.78 64.75,-90.46 72.5,-90.46 77.83,-90.46 80.84,-85.42 81.53,-78.61"/>
<polygon fill="black" stroke="black" points="85.03,-78.38 81.04,-68.56 78.03,-78.72 85.03,-78.38"/>
<text text-anchor="start" x="12" y="-93.46" font-family="Helvetica,sans-Serif" font-size="10.00">Plan &#45; Plan install actions &#160;&#160;</text>
</g>
<!-- active&#45;&gt;active -->
<g id="edge3" class="edge transition">
<title>active&#45;&gt;active</title>
<path fill="none" stroke="black" d="M58.86,-68.55C49.48,-88.97 54.03,-112.46 72.5,-112.46 88.08,-112.46 93.76,-95.74 89.51,-78.25"/>
<polygon fill="black" stroke="black" points="92.73,-76.84 86.14,-68.55 86.12,-79.15 92.73,-76.84"/>
<text text-anchor="start" x="0" y="-115.46" font-family="Helvetica,sans-Serif" font-size="10.00">Query &#45; Query device inventory &#160;&#160;</text>
</g>
<!-- failed -->
<g id="node2" class="node state regular">
<title>failed</title>
<polygon fill="#ffffff" fill-opacity="0.003922" stroke="none" stroke-width="2" points="304.5,-106.46 248.5,-106.46 248.5,-70.46 304.5,-70.46 304.5,-106.46"/>
<text text-anchor="start" x="261.5" y="-84.86" font-family="Helvetica,sans-Serif" font-size="12.00">failed</text>
<path fill="none" stroke="black" stroke-width="2" d="M260.5,-71.96C260.5,-71.96 292.5,-71.96 292.5,-71.96 298,-71.96 303.5,-77.46 303.5,-82.96 303.5,-82.96 303.5,-93.96 303.5,-93.96 303.5,-99.46 298,-104.96 292.5,-104.96 292.5,-104.96 260.5,-104.96 260.5,-104.96 255,-104.96 249.5,-99.46 249.5,-93.96 249.5,-93.96 249.5,-82.96 249.5,-82.96 249.5,-77.46 255,-71.96 260.5,-71.96"/>
</g>
<!-- active&#45;&gt;failed -->
<g id="edge1" class="edge transition">
<title>active&#45;&gt;failed</title>
<path fill="none" stroke="black" d="M100.56,-58.52C103.23,-59.22 105.91,-59.88 108.5,-60.46 152.81,-70.47 204.47,-78.6 238.46,-83.47"/>
<polygon fill="black" stroke="black" points="238.03,-86.94 248.42,-84.88 239.01,-80.01 238.03,-86.94"/>
<text text-anchor="start" x="127.5" y="-85.46" font-family="Helvetica,sans-Serif" font-size="10.00">failed &#45; Task failed &#160;&#160;</text>
</g>
<!-- success -->
<g id="node3" class="node state regular">
<title>success</title>
<polygon fill="#ffffff" fill-opacity="0.003922" stroke="none" stroke-width="2" points="309.5,-39.46 243.5,-39.46 243.5,-3.46 309.5,-3.46 309.5,-39.46"/>
<text text-anchor="start" x="254.5" y="-17.86" font-family="Helvetica,sans-Serif" font-size="12.00">success</text>
<path fill="none" stroke="black" stroke-width="2" d="M255.5,-4.96C255.5,-4.96 297.5,-4.96 297.5,-4.96 303,-4.96 308.5,-10.46 308.5,-15.96 308.5,-15.96 308.5,-26.96 308.5,-26.96 308.5,-32.46 303,-37.96 297.5,-37.96 297.5,-37.96 255.5,-37.96 255.5,-37.96 250,-37.96 244.5,-32.46 244.5,-26.96 244.5,-26.96 244.5,-15.96 244.5,-15.96 244.5,-10.46 250,-4.96 255.5,-4.96"/>
</g>
<!-- active&#45;&gt;success -->
<g id="edge4" class="edge transition">
<title>active&#45;&gt;success</title>
<path fill="none" stroke="black" d="M100.74,-46.55C134.82,-41.66 193.53,-33.23 233.41,-27.51"/>
<polygon fill="black" stroke="black" points="233.97,-30.96 243.37,-26.08 232.97,-24.03 233.97,-30.96"/>
<text text-anchor="start" x="113" y="-47.46" font-family="Helvetica,sans-Serif" font-size="10.00">Run &#45; Run install actions &#160;&#160;</text>
</g>
<!-- active&#45;&gt;success -->
<g id="edge5" class="edge transition">
<title>active&#45;&gt;success</title>
<path fill="none" stroke="black" d="M84.81,-32.09C90.77,-24.17 98.86,-15.76 108.5,-11.46 148.21,6.26 198.59,-0.17 233.58,-8.56"/>
<polygon fill="black" stroke="black" points="232.92,-12 243.47,-11.08 234.64,-5.22 232.92,-12"/>
<text text-anchor="start" x="108.5" y="-14.46" font-family="Helvetica,sans-Serif" font-size="10.00">success &#45; Task successful &#160;&#160;</text>
</g>
</g>
</svg>
