<?xml version="1.0" encoding="UTF-8" standalone="no"?>
<!DOCTYPE svg PUBLIC "-//W3C//DTD SVG 1.1//EN"
 "http://www.w3.org/Graphics/SVG/1.1/DTD/svg11.dtd">
<!-- Generated by graphviz version 5.0.1 (20220820.1526)
 -->
<!-- Title: state transitions Pages: 1 -->
<svg width="237pt" height="102pt"
 viewBox="0.00 0.00 237.00 102.00" xmlns="http://www.w3.org/2000/svg" xmlns:xlink="http://www.w3.org/1999/xlink">
<g id="graph0" class="graph" transform="scale(1 1) rotate(0) translate(4 98)">
<title>state transitions</title>
<polygon fill="white" stroke="none" points="-4,4 -4,-98 233,-98 233,4 -4,4"/>
<!-- active -->
<g id="node1" class="node state regular">
<title>active</title>
<polygon fill="#ffffff" fill-opacity="0.003922" stroke="none" stroke-width="2" points="229,-94 173,-94 173,-58 229,-58 229,-94"/>
<text text-anchor="start" x="185" y="-72.4" font-family="Helvetica,sans-Serif" font-size="12.00">active</text>
<path fill="none" stroke="black" stroke-width="2" d="M185,-59.5C185,-59.5 217,-59.5 217,-59.5 222.5,-59.5 228,-65 228,-70.5 228,-70.5 228,-81.5 228,-81.5 228,-87 222.5,-92.5 217,-92.5 217,-92.5 185,-92.5 185,-92.5 179.5,-92.5 174,-87 174,-81.5 174,-81.5 174,-70.5 174,-70.5 174,-65 179.5,-59.5 185,-59.5"/>
</g>
<!-- failed -->
<g id="node2" class="node state regular">
<title>failed</title>
<polygon fill="#ffffff" fill-opacity="0.003922" stroke="none" stroke-width="2" points="229,-36 173,-36 173,0 229,0 229,-36"/>
<text text-anchor="start" x="186" y="-14.4" font-family="Helvetica,sans-Serif" font-size="12.00">failed</text>
<path fill="none" stroke="black" stroke-width="2" d="M185,-1.5C185,-1.5 217,-1.5 217,-1.5 222.5,-1.5 228,-7 228,-12.5 228,-12.5 228,-23.5 228,-23.5 228,-29 222.5,-34.5 217,-34.5 217,-34.5 185,-34.5 185,-34.5 179.5,-34.5 174,-29 174,-23.5 174,-23.5 174,-12.5 174,-12.5 174,-7 179.5,-1.5 185,-1.5"/>
</g>
<!-- pending -->
<g id="node3" class="node state regular">
<title>pending</title>
<polygon fill="#ffffff" fill-opacity="0.003922" stroke="none" stroke-width="2" points="66,-65 0,-65 0,-29 66,-29 66,-65"/>
<text text-anchor="start" x="11" y="-43.4" font-family="Helvetica,sans-Serif" font-size="12.00">pending</text>
<path fill="none" stroke="black" stroke-width="2" d="M12,-30.5C12,-30.5 54,-30.5 54,-30.5 59.5,-30.5 65,-36 65,-41.5 65,-41.5 65,-52.5 65,-52.5 65,-58 59.5,-63.5 54,-63.5 54,-63.5 12,-63.5 12,-63.5 6.5,-63.5 1,-58 1,-52.5 1,-52.5 1,-41.5 1,-41.5 1,-36 6.5,-30.5 12,-30.5"/>
</g>
<!-- pending&#45;&gt;active -->
<g id="edge1" class="edge transition">
<title>pending&#45;&gt;active</title>
<path fill="none" stroke="black" d="M66.01,-52.59C93.61,-57.41 133.51,-64.38 162.58,-69.46"/>
<polygon fill="black" stroke="black" points="162.31,-72.97 172.76,-71.24 163.51,-66.07 162.31,-72.97"/>
<text text-anchor="start" x="74" y="-72" font-family="Helvetica,sans-Serif" font-size="10.00">null &#45; Initialize task &#160;&#160;</text>
</g>
<!-- pending&#45;&gt;failed -->
<g id="edge2" class="edge transition">
<title>pending&#45;&gt;failed</title>
<path fill="none" stroke="black" d="M66.27,-39.55C68.88,-39.01 71.48,-38.48 74,-38 103.69,-32.31 137.54,-27 162.68,-23.29"/>
<polygon fill="black" stroke="black" points="163.49,-26.7 172.88,-21.79 162.47,-19.78 163.49,-26.7"/>
<text text-anchor="start" x="75" y="-41" font-family="Helvetica,sans-Serif" font-size="10.00">failed &#45; Task failed &#160;&#160;</text>
</g>
</g>
</svg>
