<?xml version="1.0" encoding="UTF-8" standalone="no"?>
<!DOCTYPE svg PUBLIC "-//W3C//DTD SVG 1.1//EN"
 "http://www.w3.org/Graphics/SVG/1.1/DTD/svg11.dtd">
<!-- Generated by graphviz version 5.0.1 (20220820.1526)
 -->
<!-- Title: state transitions Pages: 1 -->
<svg width="343pt" height="135pt"
 viewBox="0.00 0.00 342.50 134.66" xmlns="http://www.w3.org/2000/svg" xmlns:xlink="http://www.w3.org/1999/xlink">
<g id="graph0" class="graph" transform="scale(1 1) rotate(0) translate(4 130.66)">
<title>state transitions</title>
<polygon fill="white" stroke="none" points="-4,4 -4,-130.66 338.5,-130.66 338.5,4 -4,4"/>
<!-- active -->
<g id="node1" class="node state regular">
<title>active</title>
<polygon fill="#ffffff" fill-opacity="0.003922" stroke="none" stroke-width="2" points="100.5,-68.66 44.5,-68.66 44.5,-32.66 100.5,-32.66 100.5,-68.66"/>
<text text-anchor="start" x="56.5" y="-47.06" font-family="Helvetica,sans-Serif" font-size="12.00">active</text>
<path fill="none" stroke="black" stroke-width="2" d="M56.5,-34.16C56.5,-34.16 88.5,-34.16 88.5,-34.16 94,-34.16 99.5,-39.66 99.5,-45.16 99.5,-45.16 99.5,-56.16 99.5,-56.16 99.5,-61.66 94,-67.16 88.5,-67.16 88.5,-67.16 56.5,-67.16 56.5,-67.16 51,-67.16 45.5,-61.66 45.5,-56.16 45.5,-56.16 45.5,-45.16 45.5,-45.16 45.5,-39.66 51,-34.16 56.5,-34.16"/>
</g>
<!-- active&#45;&gt;active -->
<g id="edge2" class="edge transition">
<title>active&#45;&gt;active</title>
<path fill="none" stroke="black" d="M63.44,-68.76C61.25,-79.98 64.27,-90.66 72.5,-90.66 78.16,-90.66 81.35,-85.61 82.09,-78.81"/>
<polygon fill="black" stroke="black" points="85.58,-78.56 81.56,-68.76 78.59,-78.93 85.58,-78.56"/>
<text text-anchor="start" x="12" y="-93.66" font-family="Helvetica,sans-Serif" font-size="10.00">Plan &#45; Plan install actions &#160;&#160;</text>
</g>
<!-- active&#45;&gt;active -->
<g id="edge3" class="edge transition">
<title>active&#45;&gt;active</title>
<path fill="none" stroke="black" d="M58.03,-68.75C48.07,-89.17 52.9,-112.66 72.5,-112.66 89.04,-112.66 95.06,-95.94 90.56,-78.44"/>
<polygon fill="black" stroke="black" points="93.72,-76.92 86.97,-68.75 87.16,-79.34 93.72,-76.92"/>
<text text-anchor="start" x="0" y="-115.66" font-family="Helvetica,sans-Serif" font-size="10.00">Query &#45; Query device inventory &#160;&#160;</text>
</g>
<!-- failed -->
<g id="node2" class="node state regular">
<title>failed</title>
<polygon fill="#ffffff" fill-opacity="0.003922" stroke="none" stroke-width="2" points="322,-106.66 266,-106.66 266,-70.66 322,-70.66 322,-106.66"/>
<text text-anchor="start" x="279" y="-85.06" font-family="Helvetica,sans-Serif" font-size="12.00">failed</text>
<path fill="none" stroke="black" stroke-width="2" d="M278,-72.16C278,-72.16 310,-72.16 310,-72.16 315.5,-72.16 321,-77.66 321,-83.16 321,-83.16 321,-94.16 321,-94.16 321,-99.66 315.5,-105.16 310,-105.16 310,-105.16 278,-105.16 278,-105.16 272.5,-105.16 267,-99.66 267,-94.16 267,-94.16 267,-83.16 267,-83.16 267,-77.66 272.5,-72.16 278,-72.16"/>
</g>
<!-- active&#45;&gt;failed -->
<g id="edge1" class="edge transition">
<title>active&#45;&gt;failed</title>
<path fill="none" stroke="black" d="M100.52,-59.62C103.2,-60.37 105.89,-61.06 108.5,-61.66 158.98,-73.21 218.41,-80.87 255.9,-84.99"/>
<polygon fill="black" stroke="black" points="255.55,-88.47 265.86,-86.06 256.29,-81.51 255.55,-88.47"/>
<text text-anchor="start" x="132.5" y="-85.66" font-family="Helvetica,sans-Serif" font-size="10.00">failed &#45; Task failed &#160;&#160;</text>
</g>
<!-- succeeded -->
<g id="node3" class="node state regular">
<title>succeeded</title>
<polygon fill="#ffffff" fill-opacity="0.003922" stroke="none" stroke-width="2" points="334.5,-39.66 253.5,-39.66 253.5,-3.66 334.5,-3.66 334.5,-39.66"/>
<text text-anchor="start" x="265" y="-18.06" font-family="Helvetica,sans-Serif" font-size="12.00">succeeded</text>
<path fill="none" stroke="black" stroke-width="2" d="M265.5,-5.16C265.5,-5.16 322.5,-5.16 322.5,-5.16 328,-5.16 333.5,-10.66 333.5,-16.16 333.5,-16.16 333.5,-27.16 333.5,-27.16 333.5,-32.66 328,-38.16 322.5,-38.16 322.5,-38.16 265.5,-38.16 265.5,-38.16 260,-38.16 254.5,-32.66 254.5,-27.16 254.5,-27.16 254.5,-16.16 254.5,-16.16 254.5,-10.66 260,-5.16 265.5,-5.16"/>
</g>
<!-- active&#45;&gt;succeeded -->
<g id="edge4" class="edge transition">
<title>active&#45;&gt;succeeded</title>
<path fill="none" stroke="black" d="M100.86,-47.05C136.47,-42.34 199.35,-34.03 243.45,-28.21"/>
<polygon fill="black" stroke="black" points="243.94,-31.67 253.4,-26.89 243.02,-24.73 243.94,-31.67"/>
<text text-anchor="start" x="118" y="-48.66" font-family="Helvetica,sans-Serif" font-size="10.00">Run &#45; Run install actions &#160;&#160;</text>
</g>
<!-- active&#45;&gt;succeeded -->
<g id="edge5" class="edge transition">
<title>active&#45;&gt;succeeded</title>
<path fill="none" stroke="black" d="M85.22,-32.35C91.17,-24.75 99.14,-16.77 108.5,-12.66 151.23,6.08 204.99,0.61 243.43,-7.6"/>
<polygon fill="black" stroke="black" points="242.83,-11.06 253.36,-9.86 244.38,-4.23 242.83,-11.06"/>
<text text-anchor="start" x="108.5" y="-15.66" font-family="Helvetica,sans-Serif" font-size="10.00">succeeded &#45; Task successful &#160;&#160;</text>
</g>
</g>
</svg>
