<?xml version="1.0" encoding="UTF-8" standalone="no"?>
<!DOCTYPE svg PUBLIC "-//W3C//DTD SVG 1.1//EN"
 "http://www.w3.org/Graphics/SVG/1.1/DTD/svg11.dtd">
<!-- Generated by graphviz version 5.0.1 (20220820.1526)
 -->
<!-- Title: state transitions Pages: 1 -->
<svg width="273pt" height="44pt"
 viewBox="0.00 0.00 273.00 44.00" xmlns="http://www.w3.org/2000/svg" xmlns:xlink="http://www.w3.org/1999/xlink">
<g id="graph0" class="graph" transform="scale(1 1) rotate(0) translate(4 40)">
<title>state transitions</title>
<polygon fill="white" stroke="none" points="-4,4 -4,-40 269,-40 269,4 -4,4"/>
<!-- active -->
<g id="node1" class="node state regular">
<title>active</title>
<polygon fill="#ffffff" fill-opacity="0.003922" stroke="none" stroke-width="2" points="56,-36 0,-36 0,0 56,0 56,-36"/>
<text text-anchor="start" x="12" y="-14.4" font-family="Helvetica,sans-Serif" font-size="12.00">active</text>
<path fill="none" stroke="black" stroke-width="2" d="M12,-1.5C12,-1.5 44,-1.5 44,-1.5 49.5,-1.5 55,-7 55,-12.5 55,-12.5 55,-23.5 55,-23.5 55,-29 49.5,-34.5 44,-34.5 44,-34.5 12,-34.5 12,-34.5 6.5,-34.5 1,-29 1,-23.5 1,-23.5 1,-12.5 1,-12.5 1,-7 6.5,-1.5 12,-1.5"/>
</g>
<!-- success -->
<g id="node2" class="node state regular">
<title>success</title>
<polygon fill="#ffffff" fill-opacity="0.003922" stroke="none" stroke-width="2" points="265,-36 199,-36 199,0 265,0 265,-36"/>
<text text-anchor="start" x="210" y="-14.4" font-family="Helvetica,sans-Serif" font-size="12.00">success</text>
<path fill="none" stroke="black" stroke-width="2" d="M211,-1.5C211,-1.5 253,-1.5 253,-1.5 258.5,-1.5 264,-7 264,-12.5 264,-12.5 264,-23.5 264,-23.5 264,-29 258.5,-34.5 253,-34.5 253,-34.5 211,-34.5 211,-34.5 205.5,-34.5 200,-29 200,-23.5 200,-23.5 200,-12.5 200,-12.5 200,-7 205.5,-1.5 211,-1.5"/>
</g>
<!-- active&#45;&gt;success -->
<g id="edge1" class="edge transition">
<title>active&#45;&gt;success</title>
<path fill="none" stroke="black" d="M56.24,-18C90.25,-18 148.78,-18 188.66,-18"/>
<polygon fill="black" stroke="black" points="188.87,-21.5 198.87,-18 188.87,-14.5 188.87,-21.5"/>
<text text-anchor="start" x="64" y="-21" font-family="Helvetica,sans-Serif" font-size="10.00">success &#45; Task successful &#160;&#160;</text>
</g>
</g>
</svg>
