<?xml version="1.0" encoding="UTF-8" standalone="no"?>
<!DOCTYPE svg PUBLIC "-//W3C//DTD SVG 1.1//EN"
 "http://www.w3.org/Graphics/SVG/1.1/DTD/svg11.dtd">
<!-- Generated by graphviz version 5.0.1 (20220820.1526)
 -->
<!-- Title: state transitions Pages: 1 -->
<svg width="129pt" height="77pt"
 viewBox="0.00 0.00 129.00 77.00" xmlns="http://www.w3.org/2000/svg" xmlns:xlink="http://www.w3.org/1999/xlink">
<g id="graph0" class="graph" transform="scale(1 1) rotate(0) translate(4 73)">
<title>state transitions</title>
<polygon fill="white" stroke="none" points="-4,4 -4,-73 125,-73 125,4 -4,4"/>
<!-- active -->
<g id="node1" class="node state regular">
<title>active</title>
<polygon fill="#ffffff" fill-opacity="0.003922" stroke="none" stroke-width="2" points="88.5,-36 32.5,-36 32.5,0 88.5,0 88.5,-36"/>
<text text-anchor="start" x="44.5" y="-14.4" font-family="Helvetica,sans-Serif" font-size="12.00">active</text>
<path fill="none" stroke="black" stroke-width="2" d="M44.5,-1.5C44.5,-1.5 76.5,-1.5 76.5,-1.5 82,-1.5 87.5,-7 87.5,-12.5 87.5,-12.5 87.5,-23.5 87.5,-23.5 87.5,-29 82,-34.5 76.5,-34.5 76.5,-34.5 44.5,-34.5 44.5,-34.5 39,-34.5 33.5,-29 33.5,-23.5 33.5,-23.5 33.5,-12.5 33.5,-12.5 33.5,-7 39,-1.5 44.5,-1.5"/>
</g>
<!-- active&#45;&gt;active -->
<g id="edge1" class="edge transition">
<title>active&#45;&gt;active</title>
<path fill="none" stroke="black" d="M50.74,-36.1C48.39,-47.32 51.64,-58 60.5,-58 66.59,-58 70.03,-52.95 70.82,-46.15"/>
<polygon fill="black" stroke="black" points="74.31,-45.89 70.26,-36.1 67.32,-46.28 74.31,-45.89"/>
<text text-anchor="start" x="0" y="-61" font-family="Helvetica,sans-Serif" font-size="10.00">Plan &#45; Plan install actions &#160;&#160;</text>
</g>
</g>
</svg>
