<?xml version="1.0" encoding="UTF-8" standalone="no"?>
<!DOCTYPE svg PUBLIC "-//W3C//DTD SVG 1.1//EN"
 "http://www.w3.org/Graphics/SVG/1.1/DTD/svg11.dtd">
<!-- Generated by graphviz version 5.0.1 (20220820.1526)
 -->
<!-- Title: state transitions Pages: 1 -->
<svg width="264pt" height="44pt"
 viewBox="0.00 0.00 264.00 44.00" xmlns="http://www.w3.org/2000/svg" xmlns:xlink="http://www.w3.org/1999/xlink">
<g id="graph0" class="graph" transform="scale(1 1) rotate(0) translate(4 40)">
<title>state transitions</title>
<polygon fill="white" stroke="none" points="-4,4 -4,-40 260,-40 260,4 -4,4"/>
<!-- active -->
<g id="node1" class="node state regular">
<title>active</title>
<polygon fill="#ffffff" fill-opacity="0.003922" stroke="none" stroke-width="2" points="56,-36 0,-36 0,0 56,0 56,-36"/>
<text text-anchor="start" x="12" y="-14.4" font-family="Helvetica,sans-Serif" font-size="12.00">active</text>
<path fill="none" stroke="black" stroke-width="2" d="M12,-1.5C12,-1.5 44,-1.5 44,-1.5 49.5,-1.5 55,-7 55,-12.5 55,-12.5 55,-23.5 55,-23.5 55,-29 49.5,-34.5 44,-34.5 44,-34.5 12,-34.5 12,-34.5 6.5,-34.5 1,-29 1,-23.5 1,-23.5 1,-12.5 1,-12.5 1,-7 6.5,-1.5 12,-1.5"/>
</g>
<!-- success -->
<g id="node2" class="node state regular">
<title>success</title>
<polygon fill="#ffffff" fill-opacity="0.003922" stroke="none" stroke-width="2" points="256,-36 190,-36 190,0 256,0 256,-36"/>
<text text-anchor="start" x="201" y="-14.4" font-family="Helvetica,sans-Serif" font-size="12.00">success</text>
<path fill="none" stroke="black" stroke-width="2" d="M202,-1.5C202,-1.5 244,-1.5 244,-1.5 249.5,-1.5 255,-7 255,-12.5 255,-12.5 255,-23.5 255,-23.5 255,-29 249.5,-34.5 244,-34.5 244,-34.5 202,-34.5 202,-34.5 196.5,-34.5 191,-29 191,-23.5 191,-23.5 191,-12.5 191,-12.5 191,-7 196.5,-1.5 202,-1.5"/>
</g>
<!-- active&#45;&gt;success -->
<g id="edge1" class="edge transition">
<title>active&#45;&gt;success</title>
<path fill="none" stroke="black" d="M56.24,-18C88.35,-18 142.06,-18 179.62,-18"/>
<polygon fill="black" stroke="black" points="179.75,-21.5 189.75,-18 179.75,-14.5 179.75,-21.5"/>
<text text-anchor="start" x="64" y="-21" font-family="Helvetica,sans-Serif" font-size="10.00">Run &#45; Run install actions &#160;&#160;</text>
</g>
</g>
</svg>
