<?xml version="1.0" encoding="UTF-8" standalone="no"?>
<!DOCTYPE svg PUBLIC "-//W3C//DTD SVG 1.1//EN"
 "http://www.w3.org/Graphics/SVG/1.1/DTD/svg11.dtd">
<!-- Generated by graphviz version 5.0.1 (20220820.1526)
 -->
<!-- Title: state transitions Pages: 1 -->
<svg width="298pt" height="44pt"
 viewBox="0.00 0.00 298.00 44.00" xmlns="http://www.w3.org/2000/svg" xmlns:xlink="http://www.w3.org/1999/xlink">
<g id="graph0" class="graph" transform="scale(1 1) rotate(0) translate(4 40)">
<title>state transitions</title>
<polygon fill="white" stroke="none" points="-4,4 -4,-40 294,-40 294,4 -4,4"/>
<!-- active -->
<g id="node1" class="node state regular">
<title>active</title>
<polygon fill="#ffffff" fill-opacity="0.003922" stroke="none" stroke-width="2" points="56,-36 0,-36 0,0 56,0 56,-36"/>
<text text-anchor="start" x="12" y="-14.4" font-family="Helvetica,sans-Serif" font-size="12.00">active</text>
<path fill="none" stroke="black" stroke-width="2" d="M12,-1.5C12,-1.5 44,-1.5 44,-1.5 49.5,-1.5 55,-7 55,-12.5 55,-12.5 55,-23.5 55,-23.5 55,-29 49.5,-34.5 44,-34.5 44,-34.5 12,-34.5 12,-34.5 6.5,-34.5 1,-29 1,-23.5 1,-23.5 1,-12.5 1,-12.5 1,-7 6.5,-1.5 12,-1.5"/>
</g>
<!-- succeeded -->
<g id="node2" class="node state regular">
<title>succeeded</title>
<polygon fill="#ffffff" fill-opacity="0.003922" stroke="none" stroke-width="2" points="290,-36 209,-36 209,0 290,0 290,-36"/>
<text text-anchor="start" x="220.5" y="-14.4" font-family="Helvetica,sans-Serif" font-size="12.00">succeeded</text>
<path fill="none" stroke="black" stroke-width="2" d="M221,-1.5C221,-1.5 278,-1.5 278,-1.5 283.5,-1.5 289,-7 289,-12.5 289,-12.5 289,-23.5 289,-23.5 289,-29 283.5,-34.5 278,-34.5 278,-34.5 221,-34.5 221,-34.5 215.5,-34.5 210,-29 210,-23.5 210,-23.5 210,-12.5 210,-12.5 210,-7 215.5,-1.5 221,-1.5"/>
</g>
<!-- active&#45;&gt;succeeded -->
<g id="edge1" class="edge transition">
<title>active&#45;&gt;succeeded</title>
<path fill="none" stroke="black" d="M56.36,-18C91.89,-18 154.59,-18 198.67,-18"/>
<polygon fill="black" stroke="black" points="198.9,-21.5 208.9,-18 198.9,-14.5 198.9,-21.5"/>
<text text-anchor="start" x="64" y="-21" font-family="Helvetica,sans-Serif" font-size="10.00">succeeded &#45; Task successful &#160;&#160;</text>
</g>
</g>
</svg>
