<?xml version="1.0" encoding="UTF-8" standalone="no"?>
<!DOCTYPE svg PUBLIC "-//W3C//DTD SVG 1.1//EN"
 "http://www.w3.org/Graphics/SVG/1.1/DTD/svg11.dtd">
<!-- Generated by graphviz version 5.0.1 (20220820.1526)
 -->
<!-- Title: state transitions Pages: 1 -->
<svg width="426pt" height="44pt"
 viewBox="0.00 0.00 426.00 44.00" xmlns="http://www.w3.org/2000/svg" xmlns:xlink="http://www.w3.org/1999/xlink">
<g id="graph0" class="graph" transform="scale(1 1) rotate(0) translate(4 40)">
<title>state transitions</title>
<polygon fill="white" stroke="none" points="-4,4 -4,-40 422,-40 422,4 -4,4"/>
<!-- polledFirmwareInstallStatus -->
<g id="node1" class="node state regular">
<title>polledFirmwareInstallStatus</title>
<polygon fill="#ffffff" fill-opacity="0.003922" stroke="none" stroke-width="2" points="171,-36 0,-36 0,0 171,0 171,-36"/>
<text text-anchor="start" x="11.5" y="-14.4" font-family="Helvetica,sans-Serif" font-size="12.00">polledFirmwareInstallStatus</text>
<path fill="none" stroke="black" stroke-width="2" d="M12,-1.5C12,-1.5 159,-1.5 159,-1.5 164.5,-1.5 170,-7 170,-12.5 170,-12.5 170,-23.5 170,-23.5 170,-29 164.5,-34.5 159,-34.5 159,-34.5 12,-34.5 12,-34.5 6.5,-34.5 1,-29 1,-23.5 1,-23.5 1,-12.5 1,-12.5 1,-7 6.5,-1.5 12,-1.5"/>
</g>
<!-- resetBMC -->
<g id="node2" class="node state regular">
<title>resetBMC</title>
<polygon fill="#ffffff" fill-opacity="0.003922" stroke="none" stroke-width="2" points="418,-36 342,-36 342,0 418,0 418,-36"/>
<text text-anchor="start" x="353" y="-14.4" font-family="Helvetica,sans-Serif" font-size="12.00">resetBMC</text>
<path fill="none" stroke="black" stroke-width="2" d="M354,-1.5C354,-1.5 406,-1.5 406,-1.5 411.5,-1.5 417,-7 417,-12.5 417,-12.5 417,-23.5 417,-23.5 417,-29 411.5,-34.5 406,-34.5 406,-34.5 354,-34.5 354,-34.5 348.5,-34.5 343,-29 343,-23.5 343,-23.5 343,-12.5 343,-12.5 343,-7 348.5,-1.5 354,-1.5"/>
</g>
<!-- polledFirmwareInstallStatus&#45;&gt;resetBMC -->
<g id="edge1" class="edge transition">
<title>polledFirmwareInstallStatus&#45;&gt;resetBMC</title>
<path fill="none" stroke="black" d="M171.1,-18C223.32,-18 288.37,-18 331.66,-18"/>
<polygon fill="black" stroke="black" points="331.91,-21.5 341.91,-18 331.91,-14.5 331.91,-21.5"/>
<text text-anchor="start" x="179" y="-21" font-family="Helvetica,sans-Serif" font-size="10.00">resettingBMC &#45; Powercycle BMC &#160;&#160;</text>
</g>
</g>
</svg>
