<?xml version="1.0" encoding="UTF-8" standalone="no"?>
<!DOCTYPE svg PUBLIC "-//W3C//DTD SVG 1.1//EN"
 "http://www.w3.org/Graphics/SVG/1.1/DTD/svg11.dtd">
<!-- Generated by graphviz version 5.0.1 (20220820.1526)
 -->
<!-- Title: state transitions Pages: 1 -->
<svg width="407pt" height="44pt"
 viewBox="0.00 0.00 407.00 44.00" xmlns="http://www.w3.org/2000/svg" xmlns:xlink="http://www.w3.org/1999/xlink">
<g id="graph0" class="graph" transform="scale(1 1) rotate(0) translate(4 40)">
<title>state transitions</title>
<polygon fill="white" stroke="none" points="-4,4 -4,-40 403,-40 403,4 -4,4"/>
<!-- postInstallResetBMC -->
<g id="node1" class="node state regular">
<title>postInstallResetBMC</title>
<polygon fill="#ffffff" fill-opacity="0.003922" stroke="none" stroke-width="2" points="135,-36 0,-36 0,0 135,0 135,-36"/>
<text text-anchor="start" x="11.5" y="-14.4" font-family="Helvetica,sans-Serif" font-size="12.00">postInstallResetBMC</text>
<path fill="none" stroke="black" stroke-width="2" d="M12,-1.5C12,-1.5 123,-1.5 123,-1.5 128.5,-1.5 134,-7 134,-12.5 134,-12.5 134,-23.5 134,-23.5 134,-29 128.5,-34.5 123,-34.5 123,-34.5 12,-34.5 12,-34.5 6.5,-34.5 1,-29 1,-23.5 1,-23.5 1,-12.5 1,-12.5 1,-7 6.5,-1.5 12,-1.5"/>
</g>
<!-- resetDevice -->
<g id="node2" class="node state regular">
<title>resetDevice</title>
<polygon fill="#ffffff" fill-opacity="0.003922" stroke="none" stroke-width="2" points="399,-36 313,-36 313,0 399,0 399,-36"/>
<text text-anchor="start" x="324" y="-14.4" font-family="Helvetica,sans-Serif" font-size="12.00">resetDevice</text>
<path fill="none" stroke="black" stroke-width="2" d="M325,-1.5C325,-1.5 387,-1.5 387,-1.5 392.5,-1.5 398,-7 398,-12.5 398,-12.5 398,-23.5 398,-23.5 398,-29 392.5,-34.5 387,-34.5 387,-34.5 325,-34.5 325,-34.5 319.5,-34.5 314,-29 314,-23.5 314,-23.5 314,-12.5 314,-12.5 314,-7 319.5,-1.5 325,-1.5"/>
</g>
<!-- postInstallResetBMC&#45;&gt;resetDevice -->
<g id="edge1" class="edge transition">
<title>postInstallResetBMC&#45;&gt;resetDevice</title>
<path fill="none" stroke="black" d="M135.31,-18C186.35,-18 255.69,-18 302.72,-18"/>
<polygon fill="black" stroke="black" points="302.99,-21.5 312.99,-18 302.99,-14.5 302.99,-21.5"/>
<text text-anchor="start" x="143" y="-21" font-family="Helvetica,sans-Serif" font-size="10.00">resettingHost &#45; Powercycle Device &#160;&#160;</text>
</g>
</g>
</svg>
