<?xml version="1.0" encoding="UTF-8" standalone="no"?>
<!DOCTYPE svg PUBLIC "-//W3C//DTD SVG 1.1//EN"
 "http://www.w3.org/Graphics/SVG/1.1/DTD/svg11.dtd">
<!-- Generated by graphviz version 5.0.1 (20220820.1526)
 -->
<!-- Title: state transitions Pages: 1 -->
<svg width="383pt" height="44pt"
 viewBox="0.00 0.00 383.00 44.00" xmlns="http://www.w3.org/2000/svg" xmlns:xlink="http://www.w3.org/1999/xlink">
<g id="graph0" class="graph" transform="scale(1 1) rotate(0) translate(4 40)">
<title>state transitions</title>
<polygon fill="white" stroke="none" points="-4,4 -4,-40 379,-40 379,4 -4,4"/>
<!-- poweredOnDevice -->
<g id="node1" class="node state regular">
<title>poweredOnDevice</title>
<polygon fill="#ffffff" fill-opacity="0.003922" stroke="none" stroke-width="2" points="375,-36 253,-36 253,0 375,0 375,-36"/>
<text text-anchor="start" x="264" y="-14.4" font-family="Helvetica,sans-Serif" font-size="12.00">poweredOnDevice</text>
<path fill="none" stroke="black" stroke-width="2" d="M265,-1.5C265,-1.5 363,-1.5 363,-1.5 368.5,-1.5 374,-7 374,-12.5 374,-12.5 374,-23.5 374,-23.5 374,-29 368.5,-34.5 363,-34.5 363,-34.5 265,-34.5 265,-34.5 259.5,-34.5 254,-29 254,-23.5 254,-23.5 254,-12.5 254,-12.5 254,-7 259.5,-1.5 265,-1.5"/>
</g>
<!-- queued -->
<g id="node2" class="node state regular">
<title>queued</title>
<polygon fill="#ffffff" fill-opacity="0.003922" stroke="none" stroke-width="2" points="63,-36 0,-36 0,0 63,0 63,-36"/>
<text text-anchor="start" x="11.5" y="-14.4" font-family="Helvetica,sans-Serif" font-size="12.00">queued</text>
<path fill="none" stroke="black" stroke-width="2" d="M12,-1.5C12,-1.5 51,-1.5 51,-1.5 56.5,-1.5 62,-7 62,-12.5 62,-12.5 62,-23.5 62,-23.5 62,-29 56.5,-34.5 51,-34.5 51,-34.5 12,-34.5 12,-34.5 6.5,-34.5 1,-29 1,-23.5 1,-23.5 1,-12.5 1,-12.5 1,-7 6.5,-1.5 12,-1.5"/>
</g>
<!-- queued&#45;&gt;poweredOnDevice -->
<g id="edge1" class="edge transition">
<title>queued&#45;&gt;poweredOnDevice</title>
<path fill="none" stroke="black" d="M63.05,-18C105.85,-18 184.88,-18 242.65,-18"/>
<polygon fill="black" stroke="black" points="242.81,-21.5 252.81,-18 242.81,-14.5 242.81,-21.5"/>
<text text-anchor="start" x="71" y="-21" font-family="Helvetica,sans-Serif" font-size="10.00">poweringOnDevice &#45; Power on device &#160;&#160;</text>
</g>
</g>
</svg>
