<?xml version="1.0" encoding="UTF-8" standalone="no"?>
<!DOCTYPE svg PUBLIC "-//W3C//DTD SVG 1.1//EN"
 "http://www.w3.org/Graphics/SVG/1.1/DTD/svg11.dtd">
<!-- Generated by graphviz version 5.0.1 (20220820.1526)
 -->
<!-- Title: state transitions Pages: 1 -->
<svg width="535pt" height="44pt"
 viewBox="0.00 0.00 535.00 44.00" xmlns="http://www.w3.org/2000/svg" xmlns:xlink="http://www.w3.org/1999/xlink">
<g id="graph0" class="graph" transform="scale(1 1) rotate(0) translate(4 40)">
<title>state transitions</title>
<polygon fill="white" stroke="none" points="-4,4 -4,-40 531,-40 531,4 -4,4"/>
<!-- polledFirmwareInstallStatus -->
<g id="node1" class="node state regular">
<title>polledFirmwareInstallStatus</title>
<polygon fill="#ffffff" fill-opacity="0.003922" stroke="none" stroke-width="2" points="171,-36 0,-36 0,0 171,0 171,-36"/>
<text text-anchor="start" x="11.5" y="-14.4" font-family="Helvetica,sans-Serif" font-size="12.00">polledFirmwareInstallStatus</text>
<path fill="none" stroke="black" stroke-width="2" d="M12,-1.5C12,-1.5 159,-1.5 159,-1.5 164.5,-1.5 170,-7 170,-12.5 170,-12.5 170,-23.5 170,-23.5 170,-29 164.5,-34.5 159,-34.5 159,-34.5 12,-34.5 12,-34.5 6.5,-34.5 1,-29 1,-23.5 1,-23.5 1,-12.5 1,-12.5 1,-7 6.5,-1.5 12,-1.5"/>
</g>
<!-- postInstallResetBMC -->
<g id="node2" class="node state regular">
<title>postInstallResetBMC</title>
<polygon fill="#ffffff" fill-opacity="0.003922" stroke="none" stroke-width="2" points="527,-36 392,-36 392,0 527,0 527,-36"/>
<text text-anchor="start" x="403.5" y="-14.4" font-family="Helvetica,sans-Serif" font-size="12.00">postInstallResetBMC</text>
<path fill="none" stroke="black" stroke-width="2" d="M404,-1.5C404,-1.5 515,-1.5 515,-1.5 520.5,-1.5 526,-7 526,-12.5 526,-12.5 526,-23.5 526,-23.5 526,-29 520.5,-34.5 515,-34.5 515,-34.5 404,-34.5 404,-34.5 398.5,-34.5 393,-29 393,-23.5 393,-23.5 393,-12.5 393,-12.5 393,-7 398.5,-1.5 404,-1.5"/>
</g>
<!-- polledFirmwareInstallStatus&#45;&gt;postInstallResetBMC -->
<g id="edge1" class="edge transition">
<title>polledFirmwareInstallStatus&#45;&gt;postInstallResetBMC</title>
<path fill="none" stroke="black" d="M171.38,-18C234.62,-18 320.28,-18 381.54,-18"/>
<polygon fill="black" stroke="black" points="381.92,-21.5 391.92,-18 381.92,-14.5 381.92,-21.5"/>
<text text-anchor="start" x="179" y="-21" font-family="Helvetica,sans-Serif" font-size="10.00">postInstallResettingBMC &#45; Powercycle BMC &#160;&#160;</text>
</g>
</g>
</svg>
