<?xml version="1.0" encoding="UTF-8" standalone="no"?>
<!DOCTYPE svg PUBLIC "-//W3C//DTD SVG 1.1//EN"
 "http://www.w3.org/Graphics/SVG/1.1/DTD/svg11.dtd">
<!-- Generated by graphviz version 5.0.1 (20220820.1526)
 -->
<!-- Title: state transitions Pages: 1 -->
<svg width="410pt" height="44pt"
 viewBox="0.00 0.00 410.00 44.00" xmlns="http://www.w3.org/2000/svg" xmlns:xlink="http://www.w3.org/1999/xlink">
<g id="graph0" class="graph" transform="scale(1 1) rotate(0) translate(4 40)">
<title>state transitions</title>
<polygon fill="white" stroke="none" points="-4,4 -4,-40 406,-40 406,4 -4,4"/>
<!-- poweredOffDevice -->
<g id="node1" class="node state regular">
<title>poweredOffDevice</title>
<polygon fill="#ffffff" fill-opacity="0.003922" stroke="none" stroke-width="2" points="402,-36 280,-36 280,0 402,0 402,-36"/>
<text text-anchor="start" x="291" y="-14.4" font-family="Helvetica,sans-Serif" font-size="12.00">poweredOffDevice</text>
<path fill="none" stroke="black" stroke-width="2" d="M292,-1.5C292,-1.5 390,-1.5 390,-1.5 395.5,-1.5 401,-7 401,-12.5 401,-12.5 401,-23.5 401,-23.5 401,-29 395.5,-34.5 390,-34.5 390,-34.5 292,-34.5 292,-34.5 286.5,-34.5 281,-29 281,-23.5 281,-23.5 281,-12.5 281,-12.5 281,-7 286.5,-1.5 292,-1.5"/>
</g>
<!-- resetDevice -->
<g id="node2" class="node state regular">
<title>resetDevice</title>
<polygon fill="#ffffff" fill-opacity="0.003922" stroke="none" stroke-width="2" points="86,-36 0,-36 0,0 86,0 86,-36"/>
<text text-anchor="start" x="11" y="-14.4" font-family="Helvetica,sans-Serif" font-size="12.00">resetDevice</text>
<path fill="none" stroke="black" stroke-width="2" d="M12,-1.5C12,-1.5 74,-1.5 74,-1.5 79.5,-1.5 85,-7 85,-12.5 85,-12.5 85,-23.5 85,-23.5 85,-29 79.5,-34.5 74,-34.5 74,-34.5 12,-34.5 12,-34.5 6.5,-34.5 1,-29 1,-23.5 1,-23.5 1,-12.5 1,-12.5 1,-7 6.5,-1.5 12,-1.5"/>
</g>
<!-- resetDevice&#45;&gt;poweredOffDevice -->
<g id="edge1" class="edge transition">
<title>resetDevice&#45;&gt;poweredOffDevice</title>
<path fill="none" stroke="black" d="M86.1,-18C133.9,-18 212.67,-18 269.81,-18"/>
<polygon fill="black" stroke="black" points="269.85,-21.5 279.85,-18 269.85,-14.5 269.85,-21.5"/>
<text text-anchor="start" x="94" y="-21" font-family="Helvetica,sans-Serif" font-size="10.00">poweringOffDevice &#45; Power off Device &#160;&#160;</text>
</g>
</g>
</svg>
