<?xml version="1.0" encoding="UTF-8" standalone="no"?>
<!DOCTYPE svg PUBLIC "-//W3C//DTD SVG 1.1//EN"
 "http://www.w3.org/Graphics/SVG/1.1/DTD/svg11.dtd">
<!-- Generated by graphviz version 5.0.1 (20220820.1526)
 -->
<!-- Title: state transitions Pages: 1 -->
<svg width="348pt" height="44pt"
 viewBox="0.00 0.00 348.00 44.00" xmlns="http://www.w3.org/2000/svg" xmlns:xlink="http://www.w3.org/1999/xlink">
<g id="graph0" class="graph" transform="scale(1 1) rotate(0) translate(4 40)">
<title>state transitions</title>
<polygon fill="white" stroke="none" points="-4,4 -4,-40 344,-40 344,4 -4,4"/>
<!-- resetBMC -->
<g id="node1" class="node state regular">
<title>resetBMC</title>
<polygon fill="#ffffff" fill-opacity="0.003922" stroke="none" stroke-width="2" points="76,-36 0,-36 0,0 76,0 76,-36"/>
<text text-anchor="start" x="11" y="-14.4" font-family="Helvetica,sans-Serif" font-size="12.00">resetBMC</text>
<path fill="none" stroke="black" stroke-width="2" d="M12,-1.5C12,-1.5 64,-1.5 64,-1.5 69.5,-1.5 75,-7 75,-12.5 75,-12.5 75,-23.5 75,-23.5 75,-29 69.5,-34.5 64,-34.5 64,-34.5 12,-34.5 12,-34.5 6.5,-34.5 1,-29 1,-23.5 1,-23.5 1,-12.5 1,-12.5 1,-7 6.5,-1.5 12,-1.5"/>
</g>
<!-- resetDevice -->
<g id="node2" class="node state regular">
<title>resetDevice</title>
<polygon fill="#ffffff" fill-opacity="0.003922" stroke="none" stroke-width="2" points="340,-36 254,-36 254,0 340,0 340,-36"/>
<text text-anchor="start" x="265" y="-14.4" font-family="Helvetica,sans-Serif" font-size="12.00">resetDevice</text>
<path fill="none" stroke="black" stroke-width="2" d="M266,-1.5C266,-1.5 328,-1.5 328,-1.5 333.5,-1.5 339,-7 339,-12.5 339,-12.5 339,-23.5 339,-23.5 339,-29 333.5,-34.5 328,-34.5 328,-34.5 266,-34.5 266,-34.5 260.5,-34.5 255,-29 255,-23.5 255,-23.5 255,-12.5 255,-12.5 255,-7 260.5,-1.5 266,-1.5"/>
</g>
<!-- resetBMC&#45;&gt;resetDevice -->
<g id="edge1" class="edge transition">
<title>resetBMC&#45;&gt;resetDevice</title>
<path fill="none" stroke="black" d="M76.1,-18C120.09,-18 193.72,-18 243.54,-18"/>
<polygon fill="black" stroke="black" points="243.79,-21.5 253.79,-18 243.79,-14.5 243.79,-21.5"/>
<text text-anchor="start" x="84" y="-21" font-family="Helvetica,sans-Serif" font-size="10.00">resettingHost &#45; Powercycle Device &#160;&#160;</text>
</g>
</g>
</svg>
