<?xml version="1.0" encoding="UTF-8" standalone="no"?>
<!DOCTYPE svg PUBLIC "-//W3C//DTD SVG 1.1//EN"
 "http://www.w3.org/Graphics/SVG/1.1/DTD/svg11.dtd">
<!-- Generated by graphviz version 5.0.1 (20220820.1526)
 -->
<!-- Title: state transitions Pages: 1 -->
<svg width="546pt" height="44pt"
 viewBox="0.00 0.00 546.00 44.00" xmlns="http://www.w3.org/2000/svg" xmlns:xlink="http://www.w3.org/1999/xlink">
<g id="graph0" class="graph" transform="scale(1 1) rotate(0) translate(4 40)">
<title>state transitions</title>
<polygon fill="white" stroke="none" points="-4,4 -4,-40 542,-40 542,4 -4,4"/>
<!-- downloadedFirmware -->
<g id="node1" class="node state regular">
<title>downloadedFirmware</title>
<polygon fill="#ffffff" fill-opacity="0.003922" stroke="none" stroke-width="2" points="139,-36 0,-36 0,0 139,0 139,-36"/>
<text text-anchor="start" x="11.5" y="-14.4" font-family="Helvetica,sans-Serif" font-size="12.00">downloadedFirmware</text>
<path fill="none" stroke="black" stroke-width="2" d="M12,-1.5C12,-1.5 127,-1.5 127,-1.5 132.5,-1.5 138,-7 138,-12.5 138,-12.5 138,-23.5 138,-23.5 138,-29 132.5,-34.5 127,-34.5 127,-34.5 12,-34.5 12,-34.5 6.5,-34.5 1,-29 1,-23.5 1,-23.5 1,-12.5 1,-12.5 1,-7 6.5,-1.5 12,-1.5"/>
</g>
<!-- preInstallresetBMC -->
<g id="node2" class="node state regular">
<title>preInstallresetBMC</title>
<polygon fill="#ffffff" fill-opacity="0.003922" stroke="none" stroke-width="2" points="538,-36 413,-36 413,0 538,0 538,-36"/>
<text text-anchor="start" x="424.5" y="-14.4" font-family="Helvetica,sans-Serif" font-size="12.00">preInstallresetBMC</text>
<path fill="none" stroke="black" stroke-width="2" d="M425,-1.5C425,-1.5 526,-1.5 526,-1.5 531.5,-1.5 537,-7 537,-12.5 537,-12.5 537,-23.5 537,-23.5 537,-29 531.5,-34.5 526,-34.5 526,-34.5 425,-34.5 425,-34.5 419.5,-34.5 414,-29 414,-23.5 414,-23.5 414,-12.5 414,-12.5 414,-7 419.5,-1.5 425,-1.5"/>
</g>
<!-- downloadedFirmware&#45;&gt;preInstallresetBMC -->
<g id="edge1" class="edge transition">
<title>downloadedFirmware&#45;&gt;preInstallresetBMC</title>
<path fill="none" stroke="black" d="M139.03,-18C212.35,-18 328.13,-18 402.69,-18"/>
<polygon fill="black" stroke="black" points="402.92,-21.5 412.92,-18 402.92,-14.5 402.92,-21.5"/>
<text text-anchor="start" x="147" y="-21" font-family="Helvetica,sans-Serif" font-size="10.00">preInstallResettingBMC &#45; Powercycle BMC before install &#160;&#160;</text>
</g>
</g>
</svg>
