<?xml version="1.0" encoding="UTF-8" standalone="no"?>
<!DOCTYPE svg PUBLIC "-//W3C//DTD SVG 1.1//EN"
 "http://www.w3.org/Graphics/SVG/1.1/DTD/svg11.dtd">
<!-- Generated by graphviz version 5.0.1 (20220820.1526)
 -->
<!-- Title: state transitions Pages: 1 -->
<svg width="547pt" height="44pt"
 viewBox="0.00 0.00 547.00 44.00" xmlns="http://www.w3.org/2000/svg" xmlns:xlink="http://www.w3.org/1999/xlink">
<g id="graph0" class="graph" transform="scale(1 1) rotate(0) translate(4 40)">
<title>state transitions</title>
<polygon fill="white" stroke="none" points="-4,4 -4,-40 543,-40 543,4 -4,4"/>
<!-- checkedCurrentFirmware -->
<g id="node1" class="node state regular">
<title>checkedCurrentFirmware</title>
<polygon fill="#ffffff" fill-opacity="0.003922" stroke="none" stroke-width="2" points="539,-36 381,-36 381,0 539,0 539,-36"/>
<text text-anchor="start" x="392" y="-14.4" font-family="Helvetica,sans-Serif" font-size="12.00">checkedCurrentFirmware</text>
<path fill="none" stroke="black" stroke-width="2" d="M393,-1.5C393,-1.5 527,-1.5 527,-1.5 532.5,-1.5 538,-7 538,-12.5 538,-12.5 538,-23.5 538,-23.5 538,-29 532.5,-34.5 527,-34.5 527,-34.5 393,-34.5 393,-34.5 387.5,-34.5 382,-29 382,-23.5 382,-23.5 382,-12.5 382,-12.5 382,-7 387.5,-1.5 393,-1.5"/>
</g>
<!-- poweredOnDevice -->
<g id="node2" class="node state regular">
<title>poweredOnDevice</title>
<polygon fill="#ffffff" fill-opacity="0.003922" stroke="none" stroke-width="2" points="122,-36 0,-36 0,0 122,0 122,-36"/>
<text text-anchor="start" x="11" y="-14.4" font-family="Helvetica,sans-Serif" font-size="12.00">poweredOnDevice</text>
<path fill="none" stroke="black" stroke-width="2" d="M12,-1.5C12,-1.5 110,-1.5 110,-1.5 115.5,-1.5 121,-7 121,-12.5 121,-12.5 121,-23.5 121,-23.5 121,-29 115.5,-34.5 110,-34.5 110,-34.5 12,-34.5 12,-34.5 6.5,-34.5 1,-29 1,-23.5 1,-23.5 1,-12.5 1,-12.5 1,-7 6.5,-1.5 12,-1.5"/>
</g>
<!-- poweredOnDevice&#45;&gt;checkedCurrentFirmware -->
<g id="edge1" class="edge transition">
<title>poweredOnDevice&#45;&gt;checkedCurrentFirmware</title>
<path fill="none" stroke="black" d="M122.3,-18C188.28,-18 294.71,-18 370.23,-18"/>
<polygon fill="black" stroke="black" points="370.68,-21.5 380.68,-18 370.68,-14.5 370.68,-21.5"/>
<text text-anchor="start" x="130" y="-21" font-family="Helvetica,sans-Serif" font-size="10.00">checkingInstalledFirmware &#45; Check installed firmware &#160;&#160;</text>
</g>
</g>
</svg>
