<?xml version="1.0" encoding="UTF-8" standalone="no"?>
<!DOCTYPE svg PUBLIC "-//W3C//DTD SVG 1.1//EN"
 "http://www.w3.org/Graphics/SVG/1.1/DTD/svg11.dtd">
<!-- Generated by graphviz version 5.0.1 (20220820.1526)
 -->
<!-- Title: state transitions Pages: 1 -->
<svg width="564pt" height="102pt"
 viewBox="0.00 0.00 564.00 102.00" xmlns="http://www.w3.org/2000/svg" xmlns:xlink="http://www.w3.org/1999/xlink">
<g id="graph0" class="graph" transform="scale(1 1) rotate(0) translate(4 98)">
<title>state transitions</title>
<polygon fill="white" stroke="none" points="-4,4 -4,-98 560,-98 560,4 -4,4"/>
<!-- checkedCurrentFirmware -->
<g id="node1" class="node state regular">
<title>checkedCurrentFirmware</title>
<polygon fill="#ffffff" fill-opacity="0.003922" stroke="none" stroke-width="2" points="158,-65 0,-65 0,-29 158,-29 158,-65"/>
<text text-anchor="start" x="11" y="-43.4" font-family="Helvetica,sans-Serif" font-size="12.00">checkedCurrentFirmware</text>
<path fill="none" stroke="black" stroke-width="2" d="M12,-30.5C12,-30.5 146,-30.5 146,-30.5 151.5,-30.5 157,-36 157,-41.5 157,-41.5 157,-52.5 157,-52.5 157,-58 151.5,-63.5 146,-63.5 146,-63.5 12,-63.5 12,-63.5 6.5,-63.5 1,-58 1,-52.5 1,-52.5 1,-41.5 1,-41.5 1,-36 6.5,-30.5 12,-30.5"/>
</g>
<!-- downloadedFirmware -->
<g id="node2" class="node state regular">
<title>downloadedFirmware</title>
<polygon fill="#ffffff" fill-opacity="0.003922" stroke="none" stroke-width="2" points="556,-94 417,-94 417,-58 556,-58 556,-94"/>
<text text-anchor="start" x="428.5" y="-72.4" font-family="Helvetica,sans-Serif" font-size="12.00">downloadedFirmware</text>
<path fill="none" stroke="black" stroke-width="2" d="M429,-59.5C429,-59.5 544,-59.5 544,-59.5 549.5,-59.5 555,-65 555,-70.5 555,-70.5 555,-81.5 555,-81.5 555,-87 549.5,-92.5 544,-92.5 544,-92.5 429,-92.5 429,-92.5 423.5,-92.5 418,-87 418,-81.5 418,-81.5 418,-70.5 418,-70.5 418,-65 423.5,-59.5 429,-59.5"/>
</g>
<!-- checkedCurrentFirmware&#45;&gt;downloadedFirmware -->
<g id="edge1" class="edge transition">
<title>checkedCurrentFirmware&#45;&gt;downloadedFirmware</title>
<path fill="none" stroke="black" d="M158.18,-52.59C229.69,-57.71 334.96,-65.23 406.67,-70.36"/>
<polygon fill="black" stroke="black" points="406.77,-73.88 417,-71.1 407.27,-66.9 406.77,-73.88"/>
<text text-anchor="start" x="166" y="-73" font-family="Helvetica,sans-Serif" font-size="10.00">downloadingFirmware &#45; Download and verify firmware &#160;&#160;</text>
</g>
<!-- failed -->
<g id="node3" class="node state regular">
<title>failed</title>
<polygon fill="#ffffff" fill-opacity="0.003922" stroke="none" stroke-width="2" points="514.5,-36 458.5,-36 458.5,0 514.5,0 514.5,-36"/>
<text text-anchor="start" x="471.5" y="-14.4" font-family="Helvetica,sans-Serif" font-size="12.00">failed</text>
<path fill="none" stroke="black" stroke-width="2" d="M470.5,-1.5C470.5,-1.5 502.5,-1.5 502.5,-1.5 508,-1.5 513.5,-7 513.5,-12.5 513.5,-12.5 513.5,-23.5 513.5,-23.5 513.5,-29 508,-34.5 502.5,-34.5 502.5,-34.5 470.5,-34.5 470.5,-34.5 465,-34.5 459.5,-29 459.5,-23.5 459.5,-23.5 459.5,-12.5 459.5,-12.5 459.5,-7 465,-1.5 470.5,-1.5"/>
</g>
<!-- checkedCurrentFirmware&#45;&gt;failed -->
<g id="edge2" class="edge transition">
<title>checkedCurrentFirmware&#45;&gt;failed</title>
<path fill="none" stroke="black" d="M158.26,-37.71C160.87,-37.46 163.45,-37.22 166,-37 267.83,-28.06 388.29,-22.16 448.02,-19.54"/>
<polygon fill="black" stroke="black" points="448.27,-23.04 458.11,-19.11 447.97,-16.04 448.27,-23.04"/>
<text text-anchor="start" x="257.5" y="-40" font-family="Helvetica,sans-Serif" font-size="10.00">null &#45; Failed &#160;&#160;</text>
</g>
</g>
</svg>
