<?xml version="1.0" encoding="UTF-8" standalone="no"?>
<!DOCTYPE svg PUBLIC "-//W3C//DTD SVG 1.1//EN"
 "http://www.w3.org/Graphics/SVG/1.1/DTD/svg11.dtd">
<!-- Generated by graphviz version 5.0.1 (20220820.1526)
 -->
<!-- Title: state transitions Pages: 1 -->
<svg width="546pt" height="102pt"
 viewBox="0.00 0.00 546.00 102.00" xmlns="http://www.w3.org/2000/svg" xmlns:xlink="http://www.w3.org/1999/xlink">
<g id="graph0" class="graph" transform="scale(1 1) rotate(0) translate(4 98)">
<title>state transitions</title>
<polygon fill="white" stroke="none" points="-4,4 -4,-98 542,-98 542,4 -4,4"/>
<!-- downloadedFirmware -->
<g id="node1" class="node state regular">
<title>downloadedFirmware</title>
<polygon fill="#ffffff" fill-opacity="0.003922" stroke="none" stroke-width="2" points="139,-65 0,-65 0,-29 139,-29 139,-65"/>
<text text-anchor="start" x="11.5" y="-43.4" font-family="Helvetica,sans-Serif" font-size="12.00">downloadedFirmware</text>
<path fill="none" stroke="black" stroke-width="2" d="M12,-30.5C12,-30.5 127,-30.5 127,-30.5 132.5,-30.5 138,-36 138,-41.5 138,-41.5 138,-52.5 138,-52.5 138,-58 132.5,-63.5 127,-63.5 127,-63.5 12,-63.5 12,-63.5 6.5,-63.5 1,-58 1,-52.5 1,-52.5 1,-41.5 1,-41.5 1,-36 6.5,-30.5 12,-30.5"/>
</g>
<!-- failed -->
<g id="node2" class="node state regular">
<title>failed</title>
<polygon fill="#ffffff" fill-opacity="0.003922" stroke="none" stroke-width="2" points="503.5,-94 447.5,-94 447.5,-58 503.5,-58 503.5,-94"/>
<text text-anchor="start" x="460.5" y="-72.4" font-family="Helvetica,sans-Serif" font-size="12.00">failed</text>
<path fill="none" stroke="black" stroke-width="2" d="M459.5,-59.5C459.5,-59.5 491.5,-59.5 491.5,-59.5 497,-59.5 502.5,-65 502.5,-70.5 502.5,-70.5 502.5,-81.5 502.5,-81.5 502.5,-87 497,-92.5 491.5,-92.5 491.5,-92.5 459.5,-92.5 459.5,-92.5 454,-92.5 448.5,-87 448.5,-81.5 448.5,-81.5 448.5,-70.5 448.5,-70.5 448.5,-65 454,-59.5 459.5,-59.5"/>
</g>
<!-- downloadedFirmware&#45;&gt;failed -->
<g id="edge1" class="edge transition">
<title>downloadedFirmware&#45;&gt;failed</title>
<path fill="none" stroke="black" d="M139.03,-51.92C224.94,-58.09 369.13,-68.44 437.01,-73.31"/>
<polygon fill="black" stroke="black" points="437.01,-76.82 447.23,-74.04 437.51,-69.84 437.01,-76.82"/>
<text text-anchor="start" x="246" y="-73" font-family="Helvetica,sans-Serif" font-size="10.00">null &#45; Failed &#160;&#160;</text>
</g>
<!-- preInstallresetBMC -->
<g id="node3" class="node state regular">
<title>preInstallresetBMC</title>
<polygon fill="#ffffff" fill-opacity="0.003922" stroke="none" stroke-width="2" points="538,-36 413,-36 413,0 538,0 538,-36"/>
<text text-anchor="start" x="424.5" y="-14.4" font-family="Helvetica,sans-Serif" font-size="12.00">preInstallresetBMC</text>
<path fill="none" stroke="black" stroke-width="2" d="M425,-1.5C425,-1.5 526,-1.5 526,-1.5 531.5,-1.5 537,-7 537,-12.5 537,-12.5 537,-23.5 537,-23.5 537,-29 531.5,-34.5 526,-34.5 526,-34.5 425,-34.5 425,-34.5 419.5,-34.5 414,-29 414,-23.5 414,-23.5 414,-12.5 414,-12.5 414,-7 419.5,-1.5 425,-1.5"/>
</g>
<!-- downloadedFirmware&#45;&gt;preInstallresetBMC -->
<g id="edge2" class="edge transition">
<title>downloadedFirmware&#45;&gt;preInstallresetBMC</title>
<path fill="none" stroke="black" d="M139.28,-36.82C141.88,-36.53 144.46,-36.25 147,-36 234.67,-27.3 336,-22.54 402.45,-20.14"/>
<polygon fill="black" stroke="black" points="402.94,-23.62 412.81,-19.77 402.69,-16.63 402.94,-23.62"/>
<text text-anchor="start" x="147" y="-39" font-family="Helvetica,sans-Serif" font-size="10.00">preInstallResettingBMC &#45; Powercycle BMC before install &#160;&#160;</text>
</g>
</g>
</svg>
