<?xml version="1.0" encoding="UTF-8" standalone="no"?>
<!DOCTYPE svg PUBLIC "-//W3C//DTD SVG 1.1//EN"
 "http://www.w3.org/Graphics/SVG/1.1/DTD/svg11.dtd">
<!-- Generated by graphviz version 5.0.1 (20220820.1526)
 -->
<!-- Title: state transitions Pages: 1 -->
<svg width="284pt" height="102pt"
 viewBox="0.00 0.00 284.00 102.00" xmlns="http://www.w3.org/2000/svg" xmlns:xlink="http://www.w3.org/1999/xlink">
<g id="graph0" class="graph" transform="scale(1 1) rotate(0) translate(4 98)">
<title>state transitions</title>
<polygon fill="white" stroke="none" points="-4,4 -4,-98 280,-98 280,4 -4,4"/>
<!-- failed -->
<g id="node1" class="node state regular">
<title>failed</title>
<polygon fill="#ffffff" fill-opacity="0.003922" stroke="none" stroke-width="2" points="271,-94 215,-94 215,-58 271,-58 271,-94"/>
<text text-anchor="start" x="228" y="-72.4" font-family="Helvetica,sans-Serif" font-size="12.00">failed</text>
<path fill="none" stroke="black" stroke-width="2" d="M227,-59.5C227,-59.5 259,-59.5 259,-59.5 264.5,-59.5 270,-65 270,-70.5 270,-70.5 270,-81.5 270,-81.5 270,-87 264.5,-92.5 259,-92.5 259,-92.5 227,-92.5 227,-92.5 221.5,-92.5 216,-87 216,-81.5 216,-81.5 216,-70.5 216,-70.5 216,-65 221.5,-59.5 227,-59.5"/>
</g>
<!-- poweredOffDevice -->
<g id="node2" class="node state regular">
<title>poweredOffDevice</title>
<polygon fill="#ffffff" fill-opacity="0.003922" stroke="none" stroke-width="2" points="122,-65 0,-65 0,-29 122,-29 122,-65"/>
<text text-anchor="start" x="11" y="-43.4" font-family="Helvetica,sans-Serif" font-size="12.00">poweredOffDevice</text>
<path fill="none" stroke="black" stroke-width="2" d="M12,-30.5C12,-30.5 110,-30.5 110,-30.5 115.5,-30.5 121,-36 121,-41.5 121,-41.5 121,-52.5 121,-52.5 121,-58 115.5,-63.5 110,-63.5 110,-63.5 12,-63.5 12,-63.5 6.5,-63.5 1,-58 1,-52.5 1,-52.5 1,-41.5 1,-41.5 1,-36 6.5,-30.5 12,-30.5"/>
</g>
<!-- poweredOffDevice&#45;&gt;failed -->
<g id="edge1" class="edge transition">
<title>poweredOffDevice&#45;&gt;failed</title>
<path fill="none" stroke="black" d="M122.19,-56.7C149.43,-61.09 180.78,-66.14 204.58,-69.97"/>
<polygon fill="black" stroke="black" points="204.18,-73.45 214.61,-71.59 205.29,-66.54 204.18,-73.45"/>
<text text-anchor="start" x="136" y="-71" font-family="Helvetica,sans-Serif" font-size="10.00">null &#45; Failed &#160;&#160;</text>
</g>
<!-- success -->
<g id="node3" class="node state regular">
<title>success</title>
<polygon fill="#ffffff" fill-opacity="0.003922" stroke="none" stroke-width="2" points="276,-36 210,-36 210,0 276,0 276,-36"/>
<text text-anchor="start" x="221" y="-14.4" font-family="Helvetica,sans-Serif" font-size="12.00">success</text>
<path fill="none" stroke="black" stroke-width="2" d="M222,-1.5C222,-1.5 264,-1.5 264,-1.5 269.5,-1.5 275,-7 275,-12.5 275,-12.5 275,-23.5 275,-23.5 275,-29 269.5,-34.5 264,-34.5 264,-34.5 222,-34.5 222,-34.5 216.5,-34.5 211,-29 211,-23.5 211,-23.5 211,-12.5 211,-12.5 211,-7 216.5,-1.5 222,-1.5"/>
</g>
<!-- poweredOffDevice&#45;&gt;success -->
<g id="edge2" class="edge transition">
<title>poweredOffDevice&#45;&gt;success</title>
<path fill="none" stroke="black" d="M122.19,-37.3C147.62,-33.21 176.64,-28.53 199.75,-24.81"/>
<polygon fill="black" stroke="black" points="200.6,-28.22 209.92,-23.17 199.49,-21.3 200.6,-28.22"/>
<text text-anchor="start" x="130" y="-38" font-family="Helvetica,sans-Serif" font-size="10.00">null &#45; Success &#160;&#160;</text>
</g>
</g>
</svg>
