<?xml version="1.0" encoding="UTF-8" standalone="no"?>
<!DOCTYPE svg PUBLIC "-//W3C//DTD SVG 1.1//EN"
 "http://www.w3.org/Graphics/SVG/1.1/DTD/svg11.dtd">
<!-- Generated by graphviz version 5.0.1 (20220820.1526)
 -->
<!-- Title: state transitions Pages: 1 -->
<svg width="558pt" height="102pt"
 viewBox="0.00 0.00 558.00 102.00" xmlns="http://www.w3.org/2000/svg" xmlns:xlink="http://www.w3.org/1999/xlink">
<g id="graph0" class="graph" transform="scale(1 1) rotate(0) translate(4 98)">
<title>state transitions</title>
<polygon fill="white" stroke="none" points="-4,4 -4,-98 554,-98 554,4 -4,4"/>
<!-- failed -->
<g id="node1" class="node state regular">
<title>failed</title>
<polygon fill="#ffffff" fill-opacity="0.003922" stroke="none" stroke-width="2" points="492.5,-94 436.5,-94 436.5,-58 492.5,-58 492.5,-94"/>
<text text-anchor="start" x="449.5" y="-72.4" font-family="Helvetica,sans-Serif" font-size="12.00">failed</text>
<path fill="none" stroke="black" stroke-width="2" d="M448.5,-59.5C448.5,-59.5 480.5,-59.5 480.5,-59.5 486,-59.5 491.5,-65 491.5,-70.5 491.5,-70.5 491.5,-81.5 491.5,-81.5 491.5,-87 486,-92.5 480.5,-92.5 480.5,-92.5 448.5,-92.5 448.5,-92.5 443,-92.5 437.5,-87 437.5,-81.5 437.5,-81.5 437.5,-70.5 437.5,-70.5 437.5,-65 443,-59.5 448.5,-59.5"/>
</g>
<!-- initiatedInstallFirmware -->
<g id="node2" class="node state regular">
<title>initiatedInstallFirmware</title>
<polygon fill="#ffffff" fill-opacity="0.003922" stroke="none" stroke-width="2" points="146,-65 0,-65 0,-29 146,-29 146,-65"/>
<text text-anchor="start" x="11" y="-43.4" font-family="Helvetica,sans-Serif" font-size="12.00">initiatedInstallFirmware</text>
<path fill="none" stroke="black" stroke-width="2" d="M12,-30.5C12,-30.5 134,-30.5 134,-30.5 139.5,-30.5 145,-36 145,-41.5 145,-41.5 145,-52.5 145,-52.5 145,-58 139.5,-63.5 134,-63.5 134,-63.5 12,-63.5 12,-63.5 6.5,-63.5 1,-58 1,-52.5 1,-52.5 1,-41.5 1,-41.5 1,-36 6.5,-30.5 12,-30.5"/>
</g>
<!-- initiatedInstallFirmware&#45;&gt;failed -->
<g id="edge1" class="edge transition">
<title>initiatedInstallFirmware&#45;&gt;failed</title>
<path fill="none" stroke="black" d="M146.35,-52.39C229.29,-58.56 362.05,-68.45 426.28,-73.23"/>
<polygon fill="black" stroke="black" points="426.12,-76.73 436.36,-73.98 426.64,-69.75 426.12,-76.73"/>
<text text-anchor="start" x="232.5" y="-71" font-family="Helvetica,sans-Serif" font-size="10.00">null &#45; Failed &#160;&#160;</text>
</g>
<!-- polledFirmwareInstallStatus -->
<g id="node3" class="node state regular">
<title>polledFirmwareInstallStatus</title>
<polygon fill="#ffffff" fill-opacity="0.003922" stroke="none" stroke-width="2" points="550,-36 379,-36 379,0 550,0 550,-36"/>
<text text-anchor="start" x="390.5" y="-14.4" font-family="Helvetica,sans-Serif" font-size="12.00">polledFirmwareInstallStatus</text>
<path fill="none" stroke="black" stroke-width="2" d="M391,-1.5C391,-1.5 538,-1.5 538,-1.5 543.5,-1.5 549,-7 549,-12.5 549,-12.5 549,-23.5 549,-23.5 549,-29 543.5,-34.5 538,-34.5 538,-34.5 391,-34.5 391,-34.5 385.5,-34.5 380,-29 380,-23.5 380,-23.5 380,-12.5 380,-12.5 380,-7 385.5,-1.5 391,-1.5"/>
</g>
<!-- initiatedInstallFirmware&#45;&gt;polledFirmwareInstallStatus -->
<g id="edge2" class="edge transition">
<title>initiatedInstallFirmware&#45;&gt;polledFirmwareInstallStatus</title>
<path fill="none" stroke="black" d="M146.36,-37.75C148.94,-37.48 151.49,-37.23 154,-37 225.97,-30.3 307.59,-25.4 368.94,-22.26"/>
<polygon fill="black" stroke="black" points="369.18,-25.75 378.99,-21.75 368.83,-18.76 369.18,-25.75"/>
<text text-anchor="start" x="154" y="-40" font-family="Helvetica,sans-Serif" font-size="10.00">pollingInstallStatus &#45; Poll firmware install status &#160;&#160;</text>
</g>
</g>
</svg>
