<?xml version="1.0" encoding="UTF-8" standalone="no"?>
<!DOCTYPE svg PUBLIC "-//W3C//DTD SVG 1.1//EN"
 "http://www.w3.org/Graphics/SVG/1.1/DTD/svg11.dtd">
<!-- Generated by graphviz version 5.0.1 (20220820.1526)
 -->
<!-- Title: state transitions Pages: 1 -->
<svg width="547pt" height="102pt"
 viewBox="0.00 0.00 547.00 102.00" xmlns="http://www.w3.org/2000/svg" xmlns:xlink="http://www.w3.org/1999/xlink">
<g id="graph0" class="graph" transform="scale(1 1) rotate(0) translate(4 98)">
<title>state transitions</title>
<polygon fill="white" stroke="none" points="-4,4 -4,-98 543,-98 543,4 -4,4"/>
<!-- checkedCurrentFirmware -->
<g id="node1" class="node state regular">
<title>checkedCurrentFirmware</title>
<polygon fill="#ffffff" fill-opacity="0.003922" stroke="none" stroke-width="2" points="539,-94 381,-94 381,-58 539,-58 539,-94"/>
<text text-anchor="start" x="392" y="-72.4" font-family="Helvetica,sans-Serif" font-size="12.00">checkedCurrentFirmware</text>
<path fill="none" stroke="black" stroke-width="2" d="M393,-59.5C393,-59.5 527,-59.5 527,-59.5 532.5,-59.5 538,-65 538,-70.5 538,-70.5 538,-81.5 538,-81.5 538,-87 532.5,-92.5 527,-92.5 527,-92.5 393,-92.5 393,-92.5 387.5,-92.5 382,-87 382,-81.5 382,-81.5 382,-70.5 382,-70.5 382,-65 387.5,-59.5 393,-59.5"/>
</g>
<!-- failed -->
<g id="node2" class="node state regular">
<title>failed</title>
<polygon fill="#ffffff" fill-opacity="0.003922" stroke="none" stroke-width="2" points="488,-36 432,-36 432,0 488,0 488,-36"/>
<text text-anchor="start" x="445" y="-14.4" font-family="Helvetica,sans-Serif" font-size="12.00">failed</text>
<path fill="none" stroke="black" stroke-width="2" d="M444,-1.5C444,-1.5 476,-1.5 476,-1.5 481.5,-1.5 487,-7 487,-12.5 487,-12.5 487,-23.5 487,-23.5 487,-29 481.5,-34.5 476,-34.5 476,-34.5 444,-34.5 444,-34.5 438.5,-34.5 433,-29 433,-23.5 433,-23.5 433,-12.5 433,-12.5 433,-7 438.5,-1.5 444,-1.5"/>
</g>
<!-- poweredOnDevice -->
<g id="node3" class="node state regular">
<title>poweredOnDevice</title>
<polygon fill="#ffffff" fill-opacity="0.003922" stroke="none" stroke-width="2" points="122,-65 0,-65 0,-29 122,-29 122,-65"/>
<text text-anchor="start" x="11" y="-43.4" font-family="Helvetica,sans-Serif" font-size="12.00">poweredOnDevice</text>
<path fill="none" stroke="black" stroke-width="2" d="M12,-30.5C12,-30.5 110,-30.5 110,-30.5 115.5,-30.5 121,-36 121,-41.5 121,-41.5 121,-52.5 121,-52.5 121,-58 115.5,-63.5 110,-63.5 110,-63.5 12,-63.5 12,-63.5 6.5,-63.5 1,-58 1,-52.5 1,-52.5 1,-41.5 1,-41.5 1,-36 6.5,-30.5 12,-30.5"/>
</g>
<!-- poweredOnDevice&#45;&gt;checkedCurrentFirmware -->
<g id="edge1" class="edge transition">
<title>poweredOnDevice&#45;&gt;checkedCurrentFirmware</title>
<path fill="none" stroke="black" d="M122.3,-51.4C188.41,-56.23 295.14,-64.03 370.7,-69.55"/>
<polygon fill="black" stroke="black" points="370.45,-73.04 380.68,-70.28 370.96,-66.06 370.45,-73.04"/>
<text text-anchor="start" x="130" y="-71" font-family="Helvetica,sans-Serif" font-size="10.00">checkingInstalledFirmware &#45; Check installed firmware &#160;&#160;</text>
</g>
<!-- poweredOnDevice&#45;&gt;failed -->
<g id="edge2" class="edge transition">
<title>poweredOnDevice&#45;&gt;failed</title>
<path fill="none" stroke="black" d="M122.02,-36.94C124.72,-36.6 127.38,-36.28 130,-36 235.16,-24.65 360.04,-20.31 421.3,-18.77"/>
<polygon fill="black" stroke="black" points="421.71,-22.26 431.62,-18.52 421.54,-15.26 421.71,-22.26"/>
<text text-anchor="start" x="221.5" y="-39" font-family="Helvetica,sans-Serif" font-size="10.00">null &#45; Failed &#160;&#160;</text>
</g>
</g>
</svg>
