<?xml version="1.0" encoding="UTF-8" standalone="no"?>
<!DOCTYPE svg PUBLIC "-//W3C//DTD SVG 1.1//EN"
 "http://www.w3.org/Graphics/SVG/1.1/DTD/svg11.dtd">
<!-- Generated by graphviz version 5.0.1 (20220820.1526)
 -->
<!-- Title: state transitions Pages: 1 -->
<svg width="535pt" height="102pt"
 viewBox="0.00 0.00 535.00 102.00" xmlns="http://www.w3.org/2000/svg" xmlns:xlink="http://www.w3.org/1999/xlink">
<g id="graph0" class="graph" transform="scale(1 1) rotate(0) translate(4 98)">
<title>state transitions</title>
<polygon fill="white" stroke="none" points="-4,4 -4,-98 531,-98 531,4 -4,4"/>
<!-- failed -->
<g id="node1" class="node state regular">
<title>failed</title>
<polygon fill="#ffffff" fill-opacity="0.003922" stroke="none" stroke-width="2" points="487.5,-94 431.5,-94 431.5,-58 487.5,-58 487.5,-94"/>
<text text-anchor="start" x="444.5" y="-72.4" font-family="Helvetica,sans-Serif" font-size="12.00">failed</text>
<path fill="none" stroke="black" stroke-width="2" d="M443.5,-59.5C443.5,-59.5 475.5,-59.5 475.5,-59.5 481,-59.5 486.5,-65 486.5,-70.5 486.5,-70.5 486.5,-81.5 486.5,-81.5 486.5,-87 481,-92.5 475.5,-92.5 475.5,-92.5 443.5,-92.5 443.5,-92.5 438,-92.5 432.5,-87 432.5,-81.5 432.5,-81.5 432.5,-70.5 432.5,-70.5 432.5,-65 438,-59.5 443.5,-59.5"/>
</g>
<!-- polledFirmwareInstallStatus -->
<g id="node2" class="node state regular">
<title>polledFirmwareInstallStatus</title>
<polygon fill="#ffffff" fill-opacity="0.003922" stroke="none" stroke-width="2" points="171,-65 0,-65 0,-29 171,-29 171,-65"/>
<text text-anchor="start" x="11.5" y="-43.4" font-family="Helvetica,sans-Serif" font-size="12.00">polledFirmwareInstallStatus</text>
<path fill="none" stroke="black" stroke-width="2" d="M12,-30.5C12,-30.5 159,-30.5 159,-30.5 164.5,-30.5 170,-36 170,-41.5 170,-41.5 170,-52.5 170,-52.5 170,-58 164.5,-63.5 159,-63.5 159,-63.5 12,-63.5 12,-63.5 6.5,-63.5 1,-58 1,-52.5 1,-52.5 1,-41.5 1,-41.5 1,-36 6.5,-30.5 12,-30.5"/>
</g>
<!-- polledFirmwareInstallStatus&#45;&gt;failed -->
<g id="edge1" class="edge transition">
<title>polledFirmwareInstallStatus&#45;&gt;failed</title>
<path fill="none" stroke="black" d="M171.38,-53.62C249.91,-59.74 362.99,-68.55 421.02,-73.08"/>
<polygon fill="black" stroke="black" points="420.95,-76.58 431.19,-73.87 421.49,-69.6 420.95,-76.58"/>
<text text-anchor="start" x="251.5" y="-72" font-family="Helvetica,sans-Serif" font-size="10.00">null &#45; Failed &#160;&#160;</text>
</g>
<!-- postInstallResetBMC -->
<g id="node3" class="node state regular">
<title>postInstallResetBMC</title>
<polygon fill="#ffffff" fill-opacity="0.003922" stroke="none" stroke-width="2" points="527,-36 392,-36 392,0 527,0 527,-36"/>
<text text-anchor="start" x="403.5" y="-14.4" font-family="Helvetica,sans-Serif" font-size="12.00">postInstallResetBMC</text>
<path fill="none" stroke="black" stroke-width="2" d="M404,-1.5C404,-1.5 515,-1.5 515,-1.5 520.5,-1.5 526,-7 526,-12.5 526,-12.5 526,-23.5 526,-23.5 526,-29 520.5,-34.5 515,-34.5 515,-34.5 404,-34.5 404,-34.5 398.5,-34.5 393,-29 393,-23.5 393,-23.5 393,-12.5 393,-12.5 393,-7 398.5,-1.5 404,-1.5"/>
</g>
<!-- polledFirmwareInstallStatus&#45;&gt;postInstallResetBMC -->
<g id="edge2" class="edge transition">
<title>polledFirmwareInstallStatus&#45;&gt;postInstallResetBMC</title>
<path fill="none" stroke="black" d="M171.18,-38.67C173.82,-38.44 176.43,-38.22 179,-38 247.45,-32.22 325.43,-26.73 381.6,-22.97"/>
<polygon fill="black" stroke="black" points="382.08,-26.45 391.82,-22.29 381.61,-19.46 382.08,-26.45"/>
<text text-anchor="start" x="179" y="-41" font-family="Helvetica,sans-Serif" font-size="10.00">postInstallResettingBMC &#45; Powercycle BMC &#160;&#160;</text>
</g>
</g>
</svg>
