<?xml version="1.0" encoding="UTF-8" standalone="no"?>
<!DOCTYPE svg PUBLIC "-//W3C//DTD SVG 1.1//EN"
 "http://www.w3.org/Graphics/SVG/1.1/DTD/svg11.dtd">
<!-- Generated by graphviz version 5.0.1 (20220820.1526)
 -->
<!-- Title: state transitions Pages: 1 -->
<svg width="426pt" height="102pt"
 viewBox="0.00 0.00 426.00 102.00" xmlns="http://www.w3.org/2000/svg" xmlns:xlink="http://www.w3.org/1999/xlink">
<g id="graph0" class="graph" transform="scale(1 1) rotate(0) translate(4 98)">
<title>state transitions</title>
<polygon fill="white" stroke="none" points="-4,4 -4,-98 422,-98 422,4 -4,4"/>
<!-- failed -->
<g id="node1" class="node state regular">
<title>failed</title>
<polygon fill="#ffffff" fill-opacity="0.003922" stroke="none" stroke-width="2" points="408,-94 352,-94 352,-58 408,-58 408,-94"/>
<text text-anchor="start" x="365" y="-72.4" font-family="Helvetica,sans-Serif" font-size="12.00">failed</text>
<path fill="none" stroke="black" stroke-width="2" d="M364,-59.5C364,-59.5 396,-59.5 396,-59.5 401.5,-59.5 407,-65 407,-70.5 407,-70.5 407,-81.5 407,-81.5 407,-87 401.5,-92.5 396,-92.5 396,-92.5 364,-92.5 364,-92.5 358.5,-92.5 353,-87 353,-81.5 353,-81.5 353,-70.5 353,-70.5 353,-65 358.5,-59.5 364,-59.5"/>
</g>
<!-- polledFirmwareInstallStatus -->
<g id="node2" class="node state regular">
<title>polledFirmwareInstallStatus</title>
<polygon fill="#ffffff" fill-opacity="0.003922" stroke="none" stroke-width="2" points="171,-65 0,-65 0,-29 171,-29 171,-65"/>
<text text-anchor="start" x="11.5" y="-43.4" font-family="Helvetica,sans-Serif" font-size="12.00">polledFirmwareInstallStatus</text>
<path fill="none" stroke="black" stroke-width="2" d="M12,-30.5C12,-30.5 159,-30.5 159,-30.5 164.5,-30.5 170,-36 170,-41.5 170,-41.5 170,-52.5 170,-52.5 170,-58 164.5,-63.5 159,-63.5 159,-63.5 12,-63.5 12,-63.5 6.5,-63.5 1,-58 1,-52.5 1,-52.5 1,-41.5 1,-41.5 1,-36 6.5,-30.5 12,-30.5"/>
</g>
<!-- polledFirmwareInstallStatus&#45;&gt;failed -->
<g id="edge1" class="edge transition">
<title>polledFirmwareInstallStatus&#45;&gt;failed</title>
<path fill="none" stroke="black" d="M171.1,-55.39C227.56,-60.99 299.03,-68.07 341.77,-72.31"/>
<polygon fill="black" stroke="black" points="341.69,-75.82 351.99,-73.32 342.38,-68.85 341.69,-75.82"/>
<text text-anchor="start" x="226.5" y="-74" font-family="Helvetica,sans-Serif" font-size="10.00">null &#45; Failed &#160;&#160;</text>
</g>
<!-- resetBMC -->
<g id="node3" class="node state regular">
<title>resetBMC</title>
<polygon fill="#ffffff" fill-opacity="0.003922" stroke="none" stroke-width="2" points="418,-36 342,-36 342,0 418,0 418,-36"/>
<text text-anchor="start" x="353" y="-14.4" font-family="Helvetica,sans-Serif" font-size="12.00">resetBMC</text>
<path fill="none" stroke="black" stroke-width="2" d="M354,-1.5C354,-1.5 406,-1.5 406,-1.5 411.5,-1.5 417,-7 417,-12.5 417,-12.5 417,-23.5 417,-23.5 417,-29 411.5,-34.5 406,-34.5 406,-34.5 354,-34.5 354,-34.5 348.5,-34.5 343,-29 343,-23.5 343,-23.5 343,-12.5 343,-12.5 343,-7 348.5,-1.5 354,-1.5"/>
</g>
<!-- polledFirmwareInstallStatus&#45;&gt;resetBMC -->
<g id="edge2" class="edge transition">
<title>polledFirmwareInstallStatus&#45;&gt;resetBMC</title>
<path fill="none" stroke="black" d="M171.1,-38.61C223.43,-33.42 288.65,-26.96 331.94,-22.67"/>
<polygon fill="black" stroke="black" points="332.3,-26.15 341.91,-21.68 331.61,-19.18 332.3,-26.15"/>
<text text-anchor="start" x="179" y="-40" font-family="Helvetica,sans-Serif" font-size="10.00">resettingBMC &#45; Powercycle BMC &#160;&#160;</text>
</g>
</g>
</svg>
