<?xml version="1.0" encoding="UTF-8" standalone="no"?>
<!DOCTYPE svg PUBLIC "-//W3C//DTD SVG 1.1//EN"
 "http://www.w3.org/Graphics/SVG/1.1/DTD/svg11.dtd">
<!-- Generated by graphviz version 5.0.1 (20220820.1526)
 -->
<!-- Title: state transitions Pages: 1 -->
<svg width="410pt" height="102pt"
 viewBox="0.00 0.00 410.00 102.00" xmlns="http://www.w3.org/2000/svg" xmlns:xlink="http://www.w3.org/1999/xlink">
<g id="graph0" class="graph" transform="scale(1 1) rotate(0) translate(4 98)">
<title>state transitions</title>
<polygon fill="white" stroke="none" points="-4,4 -4,-98 406,-98 406,4 -4,4"/>
<!-- failed -->
<g id="node1" class="node state regular">
<title>failed</title>
<polygon fill="#ffffff" fill-opacity="0.003922" stroke="none" stroke-width="2" points="369,-94 313,-94 313,-58 369,-58 369,-94"/>
<text text-anchor="start" x="326" y="-72.4" font-family="Helvetica,sans-Serif" font-size="12.00">failed</text>
<path fill="none" stroke="black" stroke-width="2" d="M325,-59.5C325,-59.5 357,-59.5 357,-59.5 362.5,-59.5 368,-65 368,-70.5 368,-70.5 368,-81.5 368,-81.5 368,-87 362.5,-92.5 357,-92.5 357,-92.5 325,-92.5 325,-92.5 319.5,-92.5 314,-87 314,-81.5 314,-81.5 314,-70.5 314,-70.5 314,-65 319.5,-59.5 325,-59.5"/>
</g>
<!-- poweredOffDevice -->
<g id="node2" class="node state regular">
<title>poweredOffDevice</title>
<polygon fill="#ffffff" fill-opacity="0.003922" stroke="none" stroke-width="2" points="402,-36 280,-36 280,0 402,0 402,-36"/>
<text text-anchor="start" x="291" y="-14.4" font-family="Helvetica,sans-Serif" font-size="12.00">poweredOffDevice</text>
<path fill="none" stroke="black" stroke-width="2" d="M292,-1.5C292,-1.5 390,-1.5 390,-1.5 395.5,-1.5 401,-7 401,-12.5 401,-12.5 401,-23.5 401,-23.5 401,-29 395.5,-34.5 390,-34.5 390,-34.5 292,-34.5 292,-34.5 286.5,-34.5 281,-29 281,-23.5 281,-23.5 281,-12.5 281,-12.5 281,-7 286.5,-1.5 292,-1.5"/>
</g>
<!-- resetDevice -->
<g id="node3" class="node state regular">
<title>resetDevice</title>
<polygon fill="#ffffff" fill-opacity="0.003922" stroke="none" stroke-width="2" points="86,-65 0,-65 0,-29 86,-29 86,-65"/>
<text text-anchor="start" x="11" y="-43.4" font-family="Helvetica,sans-Serif" font-size="12.00">resetDevice</text>
<path fill="none" stroke="black" stroke-width="2" d="M12,-30.5C12,-30.5 74,-30.5 74,-30.5 79.5,-30.5 85,-36 85,-41.5 85,-41.5 85,-52.5 85,-52.5 85,-58 79.5,-63.5 74,-63.5 74,-63.5 12,-63.5 12,-63.5 6.5,-63.5 1,-58 1,-52.5 1,-52.5 1,-41.5 1,-41.5 1,-36 6.5,-30.5 12,-30.5"/>
</g>
<!-- resetDevice&#45;&gt;failed -->
<g id="edge1" class="edge transition">
<title>resetDevice&#45;&gt;failed</title>
<path fill="none" stroke="black" d="M86.1,-51.12C143.97,-56.79 247.23,-66.91 302.56,-72.33"/>
<polygon fill="black" stroke="black" points="302.34,-75.83 312.63,-73.32 303.02,-68.86 302.34,-75.83"/>
<text text-anchor="start" x="153" y="-71" font-family="Helvetica,sans-Serif" font-size="10.00">null &#45; Failed &#160;&#160;</text>
</g>
<!-- resetDevice&#45;&gt;poweredOffDevice -->
<g id="edge2" class="edge transition">
<title>resetDevice&#45;&gt;poweredOffDevice</title>
<path fill="none" stroke="black" d="M86.2,-37.27C88.84,-36.8 91.45,-36.37 94,-36 152.85,-27.42 220.24,-22.85 269.59,-20.47"/>
<polygon fill="black" stroke="black" points="270.01,-23.95 279.84,-19.99 269.68,-16.96 270.01,-23.95"/>
<text text-anchor="start" x="94" y="-39" font-family="Helvetica,sans-Serif" font-size="10.00">poweringOffDevice &#45; Power off Device &#160;&#160;</text>
</g>
</g>
</svg>
