<?xml version="1.0" encoding="UTF-8" standalone="no"?>
<!DOCTYPE svg PUBLIC "-//W3C//DTD SVG 1.1//EN"
 "http://www.w3.org/Graphics/SVG/1.1/DTD/svg11.dtd">
<!-- Generated by graphviz version 5.0.1 (20220820.1526)
 -->
<!-- Title: state transitions Pages: 1 -->
<svg width="348pt" height="102pt"
 viewBox="0.00 0.00 348.00 102.00" xmlns="http://www.w3.org/2000/svg" xmlns:xlink="http://www.w3.org/1999/xlink">
<g id="graph0" class="graph" transform="scale(1 1) rotate(0) translate(4 98)">
<title>state transitions</title>
<polygon fill="white" stroke="none" points="-4,4 -4,-98 344,-98 344,4 -4,4"/>
<!-- failed -->
<g id="node1" class="node state regular">
<title>failed</title>
<polygon fill="#ffffff" fill-opacity="0.003922" stroke="none" stroke-width="2" points="325,-94 269,-94 269,-58 325,-58 325,-94"/>
<text text-anchor="start" x="282" y="-72.4" font-family="Helvetica,sans-Serif" font-size="12.00">failed</text>
<path fill="none" stroke="black" stroke-width="2" d="M281,-59.5C281,-59.5 313,-59.5 313,-59.5 318.5,-59.5 324,-65 324,-70.5 324,-70.5 324,-81.5 324,-81.5 324,-87 318.5,-92.5 313,-92.5 313,-92.5 281,-92.5 281,-92.5 275.5,-92.5 270,-87 270,-81.5 270,-81.5 270,-70.5 270,-70.5 270,-65 275.5,-59.5 281,-59.5"/>
</g>
<!-- resetBMC -->
<g id="node2" class="node state regular">
<title>resetBMC</title>
<polygon fill="#ffffff" fill-opacity="0.003922" stroke="none" stroke-width="2" points="76,-65 0,-65 0,-29 76,-29 76,-65"/>
<text text-anchor="start" x="11" y="-43.4" font-family="Helvetica,sans-Serif" font-size="12.00">resetBMC</text>
<path fill="none" stroke="black" stroke-width="2" d="M12,-30.5C12,-30.5 64,-30.5 64,-30.5 69.5,-30.5 75,-36 75,-41.5 75,-41.5 75,-52.5 75,-52.5 75,-58 69.5,-63.5 64,-63.5 64,-63.5 12,-63.5 12,-63.5 6.5,-63.5 1,-58 1,-52.5 1,-52.5 1,-41.5 1,-41.5 1,-36 6.5,-30.5 12,-30.5"/>
</g>
<!-- resetBMC&#45;&gt;failed -->
<g id="edge1" class="edge transition">
<title>resetBMC&#45;&gt;failed</title>
<path fill="none" stroke="black" d="M76.1,-51.19C124.79,-56.68 209.79,-66.27 258.62,-71.78"/>
<polygon fill="black" stroke="black" points="258.43,-75.28 268.76,-72.93 259.21,-68.33 258.43,-75.28"/>
<text text-anchor="start" x="135" y="-72" font-family="Helvetica,sans-Serif" font-size="10.00">null &#45; Failed &#160;&#160;</text>
</g>
<!-- resetDevice -->
<g id="node3" class="node state regular">
<title>resetDevice</title>
<polygon fill="#ffffff" fill-opacity="0.003922" stroke="none" stroke-width="2" points="340,-36 254,-36 254,0 340,0 340,-36"/>
<text text-anchor="start" x="265" y="-14.4" font-family="Helvetica,sans-Serif" font-size="12.00">resetDevice</text>
<path fill="none" stroke="black" stroke-width="2" d="M266,-1.5C266,-1.5 328,-1.5 328,-1.5 333.5,-1.5 339,-7 339,-12.5 339,-12.5 339,-23.5 339,-23.5 339,-29 333.5,-34.5 328,-34.5 328,-34.5 266,-34.5 266,-34.5 260.5,-34.5 255,-29 255,-23.5 255,-23.5 255,-12.5 255,-12.5 255,-7 260.5,-1.5 266,-1.5"/>
</g>
<!-- resetBMC&#45;&gt;resetDevice -->
<g id="edge2" class="edge transition">
<title>resetBMC&#45;&gt;resetDevice</title>
<path fill="none" stroke="black" d="M76.23,-37.43C78.85,-36.9 81.46,-36.42 84,-36 138.05,-27.15 200.61,-22.52 243.69,-20.18"/>
<polygon fill="black" stroke="black" points="244.12,-23.66 253.93,-19.65 243.76,-16.67 244.12,-23.66"/>
<text text-anchor="start" x="84" y="-39" font-family="Helvetica,sans-Serif" font-size="10.00">resettingHost &#45; Powercycle Device &#160;&#160;</text>
</g>
</g>
</svg>
