<?xml version="1.0" encoding="UTF-8" standalone="no"?>
<!DOCTYPE svg PUBLIC "-//W3C//DTD SVG 1.1//EN"
 "http://www.w3.org/Graphics/SVG/1.1/DTD/svg11.dtd">
<!-- Generated by graphviz version 5.0.1 (20220820.1526)
 -->
<!-- Title: state transitions Pages: 1 -->
<svg width="407pt" height="102pt"
 viewBox="0.00 0.00 407.00 102.00" xmlns="http://www.w3.org/2000/svg" xmlns:xlink="http://www.w3.org/1999/xlink">
<g id="graph0" class="graph" transform="scale(1 1) rotate(0) translate(4 98)">
<title>state transitions</title>
<polygon fill="white" stroke="none" points="-4,4 -4,-98 403,-98 403,4 -4,4"/>
<!-- failed -->
<g id="node1" class="node state regular">
<title>failed</title>
<polygon fill="#ffffff" fill-opacity="0.003922" stroke="none" stroke-width="2" points="384,-94 328,-94 328,-58 384,-58 384,-94"/>
<text text-anchor="start" x="341" y="-72.4" font-family="Helvetica,sans-Serif" font-size="12.00">failed</text>
<path fill="none" stroke="black" stroke-width="2" d="M340,-59.5C340,-59.5 372,-59.5 372,-59.5 377.5,-59.5 383,-65 383,-70.5 383,-70.5 383,-81.5 383,-81.5 383,-87 377.5,-92.5 372,-92.5 372,-92.5 340,-92.5 340,-92.5 334.5,-92.5 329,-87 329,-81.5 329,-81.5 329,-70.5 329,-70.5 329,-65 334.5,-59.5 340,-59.5"/>
</g>
<!-- postInstallResetBMC -->
<g id="node2" class="node state regular">
<title>postInstallResetBMC</title>
<polygon fill="#ffffff" fill-opacity="0.003922" stroke="none" stroke-width="2" points="135,-65 0,-65 0,-29 135,-29 135,-65"/>
<text text-anchor="start" x="11.5" y="-43.4" font-family="Helvetica,sans-Serif" font-size="12.00">postInstallResetBMC</text>
<path fill="none" stroke="black" stroke-width="2" d="M12,-30.5C12,-30.5 123,-30.5 123,-30.5 128.5,-30.5 134,-36 134,-41.5 134,-41.5 134,-52.5 134,-52.5 134,-58 128.5,-63.5 123,-63.5 123,-63.5 12,-63.5 12,-63.5 6.5,-63.5 1,-58 1,-52.5 1,-52.5 1,-41.5 1,-41.5 1,-36 6.5,-30.5 12,-30.5"/>
</g>
<!-- postInstallResetBMC&#45;&gt;failed -->
<g id="edge1" class="edge transition">
<title>postInstallResetBMC&#45;&gt;failed</title>
<path fill="none" stroke="black" d="M135.31,-53.76C192.07,-59.51 271.47,-67.54 317.64,-72.22"/>
<polygon fill="black" stroke="black" points="317.49,-75.72 327.8,-73.25 318.2,-68.76 317.49,-75.72"/>
<text text-anchor="start" x="194" y="-73" font-family="Helvetica,sans-Serif" font-size="10.00">null &#45; Failed &#160;&#160;</text>
</g>
<!-- resetDevice -->
<g id="node3" class="node state regular">
<title>resetDevice</title>
<polygon fill="#ffffff" fill-opacity="0.003922" stroke="none" stroke-width="2" points="399,-36 313,-36 313,0 399,0 399,-36"/>
<text text-anchor="start" x="324" y="-14.4" font-family="Helvetica,sans-Serif" font-size="12.00">resetDevice</text>
<path fill="none" stroke="black" stroke-width="2" d="M325,-1.5C325,-1.5 387,-1.5 387,-1.5 392.5,-1.5 398,-7 398,-12.5 398,-12.5 398,-23.5 398,-23.5 398,-29 392.5,-34.5 387,-34.5 387,-34.5 325,-34.5 325,-34.5 319.5,-34.5 314,-29 314,-23.5 314,-23.5 314,-12.5 314,-12.5 314,-7 319.5,-1.5 325,-1.5"/>
</g>
<!-- postInstallResetBMC&#45;&gt;resetDevice -->
<g id="edge2" class="edge transition">
<title>postInstallResetBMC&#45;&gt;resetDevice</title>
<path fill="none" stroke="black" d="M135.1,-38.87C137.77,-38.57 140.41,-38.28 143,-38 197.33,-32.16 259.6,-26.39 302.52,-22.57"/>
<polygon fill="black" stroke="black" points="303.08,-26.03 312.73,-21.66 302.46,-19.06 303.08,-26.03"/>
<text text-anchor="start" x="143" y="-41" font-family="Helvetica,sans-Serif" font-size="10.00">resettingHost &#45; Powercycle Device &#160;&#160;</text>
</g>
</g>
</svg>
