<?xml version="1.0" encoding="UTF-8" standalone="no"?>
<!DOCTYPE svg PUBLIC "-//W3C//DTD SVG 1.1//EN"
 "http://www.w3.org/Graphics/SVG/1.1/DTD/svg11.dtd">
<!-- Generated by graphviz version 5.0.1 (20220820.1526)
 -->
<!-- Title: state transitions Pages: 1 -->
<svg width="515pt" height="102pt"
 viewBox="0.00 0.00 515.00 102.00" xmlns="http://www.w3.org/2000/svg" xmlns:xlink="http://www.w3.org/1999/xlink">
<g id="graph0" class="graph" transform="scale(1 1) rotate(0) translate(4 98)">
<title>state transitions</title>
<polygon fill="white" stroke="none" points="-4,4 -4,-98 511,-98 511,4 -4,4"/>
<!-- failed -->
<g id="node1" class="node state regular">
<title>failed</title>
<polygon fill="#ffffff" fill-opacity="0.003922" stroke="none" stroke-width="2" points="462,-94 406,-94 406,-58 462,-58 462,-94"/>
<text text-anchor="start" x="419" y="-72.4" font-family="Helvetica,sans-Serif" font-size="12.00">failed</text>
<path fill="none" stroke="black" stroke-width="2" d="M418,-59.5C418,-59.5 450,-59.5 450,-59.5 455.5,-59.5 461,-65 461,-70.5 461,-70.5 461,-81.5 461,-81.5 461,-87 455.5,-92.5 450,-92.5 450,-92.5 418,-92.5 418,-92.5 412.5,-92.5 407,-87 407,-81.5 407,-81.5 407,-70.5 407,-70.5 407,-65 412.5,-59.5 418,-59.5"/>
</g>
<!-- initiatedInstallFirmware -->
<g id="node2" class="node state regular">
<title>initiatedInstallFirmware</title>
<polygon fill="#ffffff" fill-opacity="0.003922" stroke="none" stroke-width="2" points="507,-36 361,-36 361,0 507,0 507,-36"/>
<text text-anchor="start" x="372" y="-14.4" font-family="Helvetica,sans-Serif" font-size="12.00">initiatedInstallFirmware</text>
<path fill="none" stroke="black" stroke-width="2" d="M373,-1.5C373,-1.5 495,-1.5 495,-1.5 500.5,-1.5 506,-7 506,-12.5 506,-12.5 506,-23.5 506,-23.5 506,-29 500.5,-34.5 495,-34.5 495,-34.5 373,-34.5 373,-34.5 367.5,-34.5 362,-29 362,-23.5 362,-23.5 362,-12.5 362,-12.5 362,-7 367.5,-1.5 373,-1.5"/>
</g>
<!-- preInstallresetBMC -->
<g id="node3" class="node state regular">
<title>preInstallresetBMC</title>
<polygon fill="#ffffff" fill-opacity="0.003922" stroke="none" stroke-width="2" points="125,-65 0,-65 0,-29 125,-29 125,-65"/>
<text text-anchor="start" x="11.5" y="-43.4" font-family="Helvetica,sans-Serif" font-size="12.00">preInstallresetBMC</text>
<path fill="none" stroke="black" stroke-width="2" d="M12,-30.5C12,-30.5 113,-30.5 113,-30.5 118.5,-30.5 124,-36 124,-41.5 124,-41.5 124,-52.5 124,-52.5 124,-58 118.5,-63.5 113,-63.5 113,-63.5 12,-63.5 12,-63.5 6.5,-63.5 1,-58 1,-52.5 1,-52.5 1,-41.5 1,-41.5 1,-36 6.5,-30.5 12,-30.5"/>
</g>
<!-- preInstallresetBMC&#45;&gt;failed -->
<g id="edge1" class="edge transition">
<title>preInstallresetBMC&#45;&gt;failed</title>
<path fill="none" stroke="black" d="M125.35,-51.85C202.45,-57.91 331.81,-68.06 395.4,-73.05"/>
<polygon fill="black" stroke="black" points="395.51,-76.57 405.75,-73.86 396.06,-69.59 395.51,-76.57"/>
<text text-anchor="start" x="213" y="-71" font-family="Helvetica,sans-Serif" font-size="10.00">null &#45; Failed &#160;&#160;</text>
</g>
<!-- preInstallresetBMC&#45;&gt;initiatedInstallFirmware -->
<g id="edge2" class="edge transition">
<title>preInstallresetBMC&#45;&gt;initiatedInstallFirmware</title>
<path fill="none" stroke="black" d="M125.23,-36.91C127.85,-36.58 130.45,-36.28 133,-36 206.31,-28.02 290.1,-23.36 350.47,-20.8"/>
<polygon fill="black" stroke="black" points="350.85,-24.28 360.7,-20.37 350.56,-17.29 350.85,-24.28"/>
<text text-anchor="start" x="133" y="-39" font-family="Helvetica,sans-Serif" font-size="10.00">initiatingInstallFirmware &#45; Initiate firmware install &#160;&#160;</text>
</g>
</g>
</svg>
