<?xml version="1.0" encoding="UTF-8" standalone="no"?>
<!DOCTYPE svg PUBLIC "-//W3C//DTD SVG 1.1//EN"
 "http://www.w3.org/Graphics/SVG/1.1/DTD/svg11.dtd">
<!-- Generated by graphviz version 5.0.1 (20220820.1526)
 -->
<!-- Title: state transitions Pages: 1 -->
<svg width="299pt" height="102pt"
 viewBox="0.00 0.00 299.00 102.00" xmlns="http://www.w3.org/2000/svg" xmlns:xlink="http://www.w3.org/1999/xlink">
<g id="graph0" class="graph" transform="scale(1 1) rotate(0) translate(4 98)">
<title>state transitions</title>
<polygon fill="white" stroke="none" points="-4,4 -4,-98 295,-98 295,4 -4,4"/>
<!-- failed -->
<g id="node1" class="node state regular">
<title>failed</title>
<polygon fill="#ffffff" fill-opacity="0.003922" stroke="none" stroke-width="2" points="278.5,-94 222.5,-94 222.5,-58 278.5,-58 278.5,-94"/>
<text text-anchor="start" x="235.5" y="-72.4" font-family="Helvetica,sans-Serif" font-size="12.00">failed</text>
<path fill="none" stroke="black" stroke-width="2" d="M234.5,-59.5C234.5,-59.5 266.5,-59.5 266.5,-59.5 272,-59.5 277.5,-65 277.5,-70.5 277.5,-70.5 277.5,-81.5 277.5,-81.5 277.5,-87 272,-92.5 266.5,-92.5 266.5,-92.5 234.5,-92.5 234.5,-92.5 229,-92.5 223.5,-87 223.5,-81.5 223.5,-81.5 223.5,-70.5 223.5,-70.5 223.5,-65 229,-59.5 234.5,-59.5"/>
</g>
<!-- poweredOffDevice -->
<g id="node2" class="node state regular">
<title>poweredOffDevice</title>
<polygon fill="#ffffff" fill-opacity="0.003922" stroke="none" stroke-width="2" points="122,-65 0,-65 0,-29 122,-29 122,-65"/>
<text text-anchor="start" x="11" y="-43.4" font-family="Helvetica,sans-Serif" font-size="12.00">poweredOffDevice</text>
<path fill="none" stroke="black" stroke-width="2" d="M12,-30.5C12,-30.5 110,-30.5 110,-30.5 115.5,-30.5 121,-36 121,-41.5 121,-41.5 121,-52.5 121,-52.5 121,-58 115.5,-63.5 110,-63.5 110,-63.5 12,-63.5 12,-63.5 6.5,-63.5 1,-58 1,-52.5 1,-52.5 1,-41.5 1,-41.5 1,-36 6.5,-30.5 12,-30.5"/>
</g>
<!-- poweredOffDevice&#45;&gt;failed -->
<g id="edge1" class="edge transition">
<title>poweredOffDevice&#45;&gt;failed</title>
<path fill="none" stroke="black" d="M122.1,-56.3C151.66,-60.87 186.37,-66.24 212.09,-70.21"/>
<polygon fill="black" stroke="black" points="211.75,-73.7 222.17,-71.77 212.82,-66.79 211.75,-73.7"/>
<text text-anchor="start" x="136" y="-71" font-family="Helvetica,sans-Serif" font-size="10.00">null &#45; Failed &#160;&#160;</text>
</g>
<!-- succeeded -->
<g id="node3" class="node state regular">
<title>succeeded</title>
<polygon fill="#ffffff" fill-opacity="0.003922" stroke="none" stroke-width="2" points="291,-36 210,-36 210,0 291,0 291,-36"/>
<text text-anchor="start" x="221.5" y="-14.4" font-family="Helvetica,sans-Serif" font-size="12.00">succeeded</text>
<path fill="none" stroke="black" stroke-width="2" d="M222,-1.5C222,-1.5 279,-1.5 279,-1.5 284.5,-1.5 290,-7 290,-12.5 290,-12.5 290,-23.5 290,-23.5 290,-29 284.5,-34.5 279,-34.5 279,-34.5 222,-34.5 222,-34.5 216.5,-34.5 211,-29 211,-23.5 211,-23.5 211,-12.5 211,-12.5 211,-7 216.5,-1.5 222,-1.5"/>
</g>
<!-- poweredOffDevice&#45;&gt;succeeded -->
<g id="edge2" class="edge transition">
<title>poweredOffDevice&#45;&gt;succeeded</title>
<path fill="none" stroke="black" d="M122.1,-37.7C147.22,-33.82 176.05,-29.36 199.93,-25.67"/>
<polygon fill="black" stroke="black" points="200.49,-29.12 209.83,-24.13 199.42,-22.2 200.49,-29.12"/>
<text text-anchor="start" x="130" y="-38" font-family="Helvetica,sans-Serif" font-size="10.00">null &#45; Success &#160;&#160;</text>
</g>
</g>
</svg>
