<?xml version="1.0" encoding="UTF-8" standalone="no"?>
<!DOCTYPE svg PUBLIC "-//W3C//DTD SVG 1.1//EN"
 "http://www.w3.org/Graphics/SVG/1.1/DTD/svg11.dtd">
<!-- Generated by graphviz version 5.0.1 (20220820.1526)
 -->
<!-- Title: state transitions Pages: 1 -->
<svg width="376pt" height="44pt"
 viewBox="0.00 0.00 376.00 44.00" xmlns="http://www.w3.org/2000/svg" xmlns:xlink="http://www.w3.org/1999/xlink">
<g id="graph0" class="graph" transform="scale(1 1) rotate(0) translate(4 40)">
<title>state transitions</title>
<polygon fill="white" stroke="none" points="-4,4 -4,-40 372,-40 372,4 -4,4"/>
<!-- active -->
<g id="node1" class="node state regular">
<title>active</title>
<polygon fill="#ffffff" fill-opacity="0.003922" stroke="none" stroke-width="2" points="56,-36 0,-36 0,0 56,0 56,-36"/>
<text text-anchor="start" x="12" y="-14.4" font-family="Helvetica,sans-Serif" font-size="12.00">active</text>
<path fill="none" stroke="black" stroke-width="2" d="M12,-1.5C12,-1.5 44,-1.5 44,-1.5 49.5,-1.5 55,-7 55,-12.5 55,-12.5 55,-23.5 55,-23.5 55,-29 49.5,-34.5 44,-34.5 44,-34.5 12,-34.5 12,-34.5 6.5,-34.5 1,-29 1,-23.5 1,-23.5 1,-12.5 1,-12.5 1,-7 6.5,-1.5 12,-1.5"/>
</g>
<!-- poweredOnDevice -->
<g id="node2" class="node state regular">
<title>poweredOnDevice</title>
<polygon fill="#ffffff" fill-opacity="0.003922" stroke="none" stroke-width="2" points="368,-36 246,-36 246,0 368,0 368,-36"/>
<text text-anchor="start" x="257" y="-14.4" font-family="Helvetica,sans-Serif" font-size="12.00">poweredOnDevice</text>
<path fill="none" stroke="black" stroke-width="2" d="M258,-1.5C258,-1.5 356,-1.5 356,-1.5 361.5,-1.5 367,-7 367,-12.5 367,-12.5 367,-23.5 367,-23.5 367,-29 361.5,-34.5 356,-34.5 356,-34.5 258,-34.5 258,-34.5 252.5,-34.5 247,-29 247,-23.5 247,-23.5 247,-12.5 247,-12.5 247,-7 252.5,-1.5 258,-1.5"/>
</g>
<!-- active&#45;&gt;poweredOnDevice -->
<g id="edge1" class="edge transition">
<title>active&#45;&gt;poweredOnDevice</title>
<path fill="none" stroke="black" d="M56.06,-18C97.29,-18 177.18,-18 235.58,-18"/>
<polygon fill="black" stroke="black" points="235.85,-21.5 245.85,-18 235.85,-14.5 235.85,-21.5"/>
<text text-anchor="start" x="64" y="-21" font-family="Helvetica,sans-Serif" font-size="10.00">poweringOnDevice &#45; Power on device &#160;&#160;</text>
</g>
</g>
</svg>
