<?xml version="1.0" encoding="UTF-8" standalone="no"?>
<!DOCTYPE svg PUBLIC "-//W3C//DTD SVG 1.1//EN"
 "http://www.w3.org/Graphics/SVG/1.1/DTD/svg11.dtd">
<!-- Generated by graphviz version 5.0.1 (20220820.1526)
 -->
<!-- Title: state transitions Pages: 1 -->
<svg width="529pt" height="44pt"
 viewBox="0.00 0.00 529.00 44.00" xmlns="http://www.w3.org/2000/svg" xmlns:xlink="http://www.w3.org/1999/xlink">
<g id="graph0" class="graph" transform="scale(1 1) rotate(0) translate(4 40)">
<title>state transitions</title>
<polygon fill="white" stroke="none" points="-4,4 -4,-40 525,-40 525,4 -4,4"/>
<!-- downloadedFirmware -->
<g id="node1" class="node state regular">
<title>downloadedFirmware</title>
<polygon fill="#ffffff" fill-opacity="0.003922" stroke="none" stroke-width="2" points="139,-36 0,-36 0,0 139,0 139,-36"/>
<text text-anchor="start" x="11.5" y="-14.4" font-family="Helvetica,sans-Serif" font-size="12.00">downloadedFirmware</text>
<path fill="none" stroke="black" stroke-width="2" d="M12,-1.5C12,-1.5 127,-1.5 127,-1.5 132.5,-1.5 138,-7 138,-12.5 138,-12.5 138,-23.5 138,-23.5 138,-29 132.5,-34.5 127,-34.5 127,-34.5 12,-34.5 12,-34.5 6.5,-34.5 1,-29 1,-23.5 1,-23.5 1,-12.5 1,-12.5 1,-7 6.5,-1.5 12,-1.5"/>
</g>
<!-- initiatedInstallFirmware -->
<g id="node2" class="node state regular">
<title>initiatedInstallFirmware</title>
<polygon fill="#ffffff" fill-opacity="0.003922" stroke="none" stroke-width="2" points="521,-36 375,-36 375,0 521,0 521,-36"/>
<text text-anchor="start" x="386" y="-14.4" font-family="Helvetica,sans-Serif" font-size="12.00">initiatedInstallFirmware</text>
<path fill="none" stroke="black" stroke-width="2" d="M387,-1.5C387,-1.5 509,-1.5 509,-1.5 514.5,-1.5 520,-7 520,-12.5 520,-12.5 520,-23.5 520,-23.5 520,-29 514.5,-34.5 509,-34.5 509,-34.5 387,-34.5 387,-34.5 381.5,-34.5 376,-29 376,-23.5 376,-23.5 376,-12.5 376,-12.5 376,-7 381.5,-1.5 387,-1.5"/>
</g>
<!-- downloadedFirmware&#45;&gt;initiatedInstallFirmware -->
<g id="edge1" class="edge transition">
<title>downloadedFirmware&#45;&gt;initiatedInstallFirmware</title>
<path fill="none" stroke="black" d="M139.12,-18C202.57,-18 296.97,-18 364.5,-18"/>
<polygon fill="black" stroke="black" points="364.68,-21.5 374.68,-18 364.68,-14.5 364.68,-21.5"/>
<text text-anchor="start" x="147" y="-21" font-family="Helvetica,sans-Serif" font-size="10.00">initiatingInstallFirmware &#45; Initiate firmware install &#160;&#160;</text>
</g>
</g>
</svg>
