<?xml version="1.0" encoding="UTF-8" standalone="no"?>
<!DOCTYPE svg PUBLIC "-//W3C//DTD SVG 1.1//EN"
 "http://www.w3.org/Graphics/SVG/1.1/DTD/svg11.dtd">
<!-- Generated by graphviz version 5.0.1 (20220820.1526)
 -->
<!-- Title: state transitions Pages: 1 -->
<svg width="558pt" height="44pt"
 viewBox="0.00 0.00 558.00 44.00" xmlns="http://www.w3.org/2000/svg" xmlns:xlink="http://www.w3.org/1999/xlink">
<g id="graph0" class="graph" transform="scale(1 1) rotate(0) translate(4 40)">
<title>state transitions</title>
<polygon fill="white" stroke="none" points="-4,4 -4,-40 554,-40 554,4 -4,4"/>
<!-- initiatedInstallFirmware -->
<g id="node1" class="node state regular">
<title>initiatedInstallFirmware</title>
<polygon fill="#ffffff" fill-opacity="0.003922" stroke="none" stroke-width="2" points="146,-36 0,-36 0,0 146,0 146,-36"/>
<text text-anchor="start" x="11" y="-14.4" font-family="Helvetica,sans-Serif" font-size="12.00">initiatedInstallFirmware</text>
<path fill="none" stroke="black" stroke-width="2" d="M12,-1.5C12,-1.5 134,-1.5 134,-1.5 139.5,-1.5 145,-7 145,-12.5 145,-12.5 145,-23.5 145,-23.5 145,-29 139.5,-34.5 134,-34.5 134,-34.5 12,-34.5 12,-34.5 6.5,-34.5 1,-29 1,-23.5 1,-23.5 1,-12.5 1,-12.5 1,-7 6.5,-1.5 12,-1.5"/>
</g>
<!-- polledFirmwareInstallStatus -->
<g id="node2" class="node state regular">
<title>polledFirmwareInstallStatus</title>
<polygon fill="#ffffff" fill-opacity="0.003922" stroke="none" stroke-width="2" points="550,-36 379,-36 379,0 550,0 550,-36"/>
<text text-anchor="start" x="390.5" y="-14.4" font-family="Helvetica,sans-Serif" font-size="12.00">polledFirmwareInstallStatus</text>
<path fill="none" stroke="black" stroke-width="2" d="M391,-1.5C391,-1.5 538,-1.5 538,-1.5 543.5,-1.5 549,-7 549,-12.5 549,-12.5 549,-23.5 549,-23.5 549,-29 543.5,-34.5 538,-34.5 538,-34.5 391,-34.5 391,-34.5 385.5,-34.5 380,-29 380,-23.5 380,-23.5 380,-12.5 380,-12.5 380,-7 385.5,-1.5 391,-1.5"/>
</g>
<!-- initiatedInstallFirmware&#45;&gt;polledFirmwareInstallStatus -->
<g id="edge1" class="edge transition">
<title>initiatedInstallFirmware&#45;&gt;polledFirmwareInstallStatus</title>
<path fill="none" stroke="black" d="M146.35,-18C208.92,-18 299.83,-18 368.3,-18"/>
<polygon fill="black" stroke="black" points="368.66,-21.5 378.66,-18 368.66,-14.5 368.66,-21.5"/>
<text text-anchor="start" x="154" y="-21" font-family="Helvetica,sans-Serif" font-size="10.00">pollingInstallStatus &#45; Poll firmware install status &#160;&#160;</text>
</g>
</g>
</svg>
