<?xml version="1.0" encoding="UTF-8" standalone="no"?>
<!DOCTYPE svg PUBLIC "-//W3C//DTD SVG 1.1//EN"
 "http://www.w3.org/Graphics/SVG/1.1/DTD/svg11.dtd">
<!-- Generated by graphviz version 5.0.1 (20220820.1526)
 -->
<!-- Title: state transitions Pages: 1 -->
<svg width="515pt" height="44pt"
 viewBox="0.00 0.00 515.00 44.00" xmlns="http://www.w3.org/2000/svg" xmlns:xlink="http://www.w3.org/1999/xlink">
<g id="graph0" class="graph" transform="scale(1 1) rotate(0) translate(4 40)">
<title>state transitions</title>
<polygon fill="white" stroke="none" points="-4,4 -4,-40 511,-40 511,4 -4,4"/>
<!-- initiatedInstallFirmware -->
<g id="node1" class="node state regular">
<title>initiatedInstallFirmware</title>
<polygon fill="#ffffff" fill-opacity="0.003922" stroke="none" stroke-width="2" points="507,-36 361,-36 361,0 507,0 507,-36"/>
<text text-anchor="start" x="372" y="-14.4" font-family="Helvetica,sans-Serif" font-size="12.00">initiatedInstallFirmware</text>
<path fill="none" stroke="black" stroke-width="2" d="M373,-1.5C373,-1.5 495,-1.5 495,-1.5 500.5,-1.5 506,-7 506,-12.5 506,-12.5 506,-23.5 506,-23.5 506,-29 500.5,-34.5 495,-34.5 495,-34.5 373,-34.5 373,-34.5 367.5,-34.5 362,-29 362,-23.5 362,-23.5 362,-12.5 362,-12.5 362,-7 367.5,-1.5 373,-1.5"/>
</g>
<!-- preInstallresetBMC -->
<g id="node2" class="node state regular">
<title>preInstallresetBMC</title>
<polygon fill="#ffffff" fill-opacity="0.003922" stroke="none" stroke-width="2" points="125,-36 0,-36 0,0 125,0 125,-36"/>
<text text-anchor="start" x="11.5" y="-14.4" font-family="Helvetica,sans-Serif" font-size="12.00">preInstallresetBMC</text>
<path fill="none" stroke="black" stroke-width="2" d="M12,-1.5C12,-1.5 113,-1.5 113,-1.5 118.5,-1.5 124,-7 124,-12.5 124,-12.5 124,-23.5 124,-23.5 124,-29 118.5,-34.5 113,-34.5 113,-34.5 12,-34.5 12,-34.5 6.5,-34.5 1,-29 1,-23.5 1,-23.5 1,-12.5 1,-12.5 1,-7 6.5,-1.5 12,-1.5"/>
</g>
<!-- preInstallresetBMC&#45;&gt;initiatedInstallFirmware -->
<g id="edge1" class="edge transition">
<title>preInstallresetBMC&#45;&gt;initiatedInstallFirmware</title>
<path fill="none" stroke="black" d="M125.35,-18C187.1,-18 282.37,-18 350.53,-18"/>
<polygon fill="black" stroke="black" points="350.8,-21.5 360.8,-18 350.8,-14.5 350.8,-21.5"/>
<text text-anchor="start" x="133" y="-21" font-family="Helvetica,sans-Serif" font-size="10.00">initiatingInstallFirmware &#45; Initiate firmware install &#160;&#160;</text>
</g>
</g>
</svg>
