<?xml version="1.0" encoding="UTF-8" standalone="no"?>
<!DOCTYPE svg PUBLIC "-//W3C//DTD SVG 1.1//EN"
 "http://www.w3.org/Graphics/SVG/1.1/DTD/svg11.dtd">
<!-- Generated by graphviz version 5.0.1 (20220820.1526)
 -->
<!-- Title: state transitions Pages: 1 -->
<svg width="564pt" height="44pt"
 viewBox="0.00 0.00 564.00 44.00" xmlns="http://www.w3.org/2000/svg" xmlns:xlink="http://www.w3.org/1999/xlink">
<g id="graph0" class="graph" transform="scale(1 1) rotate(0) translate(4 40)">
<title>state transitions</title>
<polygon fill="white" stroke="none" points="-4,4 -4,-40 560,-40 560,4 -4,4"/>
<!-- checkedCurrentFirmware -->
<g id="node1" class="node state regular">
<title>checkedCurrentFirmware</title>
<polygon fill="#ffffff" fill-opacity="0.003922" stroke="none" stroke-width="2" points="158,-36 0,-36 0,0 158,0 158,-36"/>
<text text-anchor="start" x="11" y="-14.4" font-family="Helvetica,sans-Serif" font-size="12.00">checkedCurrentFirmware</text>
<path fill="none" stroke="black" stroke-width="2" d="M12,-1.5C12,-1.5 146,-1.5 146,-1.5 151.5,-1.5 157,-7 157,-12.5 157,-12.5 157,-23.5 157,-23.5 157,-29 151.5,-34.5 146,-34.5 146,-34.5 12,-34.5 12,-34.5 6.5,-34.5 1,-29 1,-23.5 1,-23.5 1,-12.5 1,-12.5 1,-7 6.5,-1.5 12,-1.5"/>
</g>
<!-- downloadedFirmware -->
<g id="node2" class="node state regular">
<title>downloadedFirmware</title>
<polygon fill="#ffffff" fill-opacity="0.003922" stroke="none" stroke-width="2" points="556,-36 417,-36 417,0 556,0 556,-36"/>
<text text-anchor="start" x="428.5" y="-14.4" font-family="Helvetica,sans-Serif" font-size="12.00">downloadedFirmware</text>
<path fill="none" stroke="black" stroke-width="2" d="M429,-1.5C429,-1.5 544,-1.5 544,-1.5 549.5,-1.5 555,-7 555,-12.5 555,-12.5 555,-23.5 555,-23.5 555,-29 549.5,-34.5 544,-34.5 544,-34.5 429,-34.5 429,-34.5 423.5,-34.5 418,-29 418,-23.5 418,-23.5 418,-12.5 418,-12.5 418,-7 423.5,-1.5 429,-1.5"/>
</g>
<!-- checkedCurrentFirmware&#45;&gt;downloadedFirmware -->
<g id="edge1" class="edge transition">
<title>checkedCurrentFirmware&#45;&gt;downloadedFirmware</title>
<path fill="none" stroke="black" d="M158.18,-18C229.69,-18 334.96,-18 406.67,-18"/>
<polygon fill="black" stroke="black" points="407,-21.5 417,-18 407,-14.5 407,-21.5"/>
<text text-anchor="start" x="166" y="-21" font-family="Helvetica,sans-Serif" font-size="10.00">downloadingFirmware &#45; Download and verify firmware &#160;&#160;</text>
</g>
</g>
</svg>
