<?xml version="1.0" encoding="UTF-8" standalone="no"?>
<!DOCTYPE svg PUBLIC "-//W3C//DTD SVG 1.1//EN"
 "http://www.w3.org/Graphics/SVG/1.1/DTD/svg11.dtd">
<!-- Generated by graphviz version 5.0.1 (20220820.1526)
 -->
<!-- Title: state transitions Pages: 1 -->
<svg width="410pt" height="102pt"
 viewBox="0.00 0.00 410.00 102.00" xmlns="http://www.w3.org/2000/svg" xmlns:xlink="http://www.w3.org/1999/xlink">
<g id="graph0" class="graph" transform="scale(1 1) rotate(0) translate(4 98)">
<title>state transitions</title>
<polygon fill="white" stroke="none" points="-4,4 -4,-98 406,-98 406,4 -4,4"/>
<!-- poweredOffDevice -->
<g id="node1" class="node state regular">
<title>poweredOffDevice</title>
<polygon fill="#ffffff" fill-opacity="0.003922" stroke="none" stroke-width="2" points="402,-65 280,-65 280,-29 402,-29 402,-65"/>
<text text-anchor="start" x="291" y="-43.4" font-family="Helvetica,sans-Serif" font-size="12.00">poweredOffDevice</text>
<path fill="none" stroke="black" stroke-width="2" d="M292,-30.5C292,-30.5 390,-30.5 390,-30.5 395.5,-30.5 401,-36 401,-41.5 401,-41.5 401,-52.5 401,-52.5 401,-58 395.5,-63.5 390,-63.5 390,-63.5 292,-63.5 292,-63.5 286.5,-63.5 281,-58 281,-52.5 281,-52.5 281,-41.5 281,-41.5 281,-36 286.5,-30.5 292,-30.5"/>
</g>
<!-- resetDevice -->
<g id="node2" class="node state regular">
<title>resetDevice</title>
<polygon fill="#ffffff" fill-opacity="0.003922" stroke="none" stroke-width="2" points="86,-94 0,-94 0,-58 86,-58 86,-94"/>
<text text-anchor="start" x="11" y="-72.4" font-family="Helvetica,sans-Serif" font-size="12.00">resetDevice</text>
<path fill="none" stroke="black" stroke-width="2" d="M12,-59.5C12,-59.5 74,-59.5 74,-59.5 79.5,-59.5 85,-65 85,-70.5 85,-70.5 85,-81.5 85,-81.5 85,-87 79.5,-92.5 74,-92.5 74,-92.5 12,-92.5 12,-92.5 6.5,-92.5 1,-87 1,-81.5 1,-81.5 1,-70.5 1,-70.5 1,-65 6.5,-59.5 12,-59.5"/>
</g>
<!-- resetDevice&#45;&gt;poweredOffDevice -->
<g id="edge1" class="edge transition">
<title>resetDevice&#45;&gt;poweredOffDevice</title>
<path fill="none" stroke="black" d="M86.1,-71.88C133.9,-67.19 212.67,-59.48 269.81,-53.88"/>
<polygon fill="black" stroke="black" points="270.24,-57.35 279.85,-52.89 269.56,-50.38 270.24,-57.35"/>
<text text-anchor="start" x="94" y="-73" font-family="Helvetica,sans-Serif" font-size="10.00">poweringOffDevice &#45; Power off Device &#160;&#160;</text>
</g>
<!-- skipped -->
<g id="node3" class="node state regular">
<title>skipped</title>
<polygon fill="#ffffff" fill-opacity="0.003922" stroke="none" stroke-width="2" points="75.5,-36 10.5,-36 10.5,0 75.5,0 75.5,-36"/>
<text text-anchor="start" x="22" y="-14.4" font-family="Helvetica,sans-Serif" font-size="12.00">skipped</text>
<path fill="none" stroke="black" stroke-width="2" d="M22.5,-1.5C22.5,-1.5 63.5,-1.5 63.5,-1.5 69,-1.5 74.5,-7 74.5,-12.5 74.5,-12.5 74.5,-23.5 74.5,-23.5 74.5,-29 69,-34.5 63.5,-34.5 63.5,-34.5 22.5,-34.5 22.5,-34.5 17,-34.5 11.5,-29 11.5,-23.5 11.5,-23.5 11.5,-12.5 11.5,-12.5 11.5,-7 17,-1.5 22.5,-1.5"/>
</g>
<!-- skipped&#45;&gt;poweredOffDevice -->
<g id="edge2" class="edge transition">
<title>skipped&#45;&gt;poweredOffDevice</title>
<path fill="none" stroke="black" d="M75.76,-20.34C117.96,-23.55 195.09,-29.75 269.89,-37.81"/>
<polygon fill="black" stroke="black" points="269.63,-41.3 279.95,-38.91 270.39,-34.34 269.63,-41.3"/>
<text text-anchor="start" x="94" y="-41" font-family="Helvetica,sans-Serif" font-size="10.00">poweringOffDevice &#45; Power off Device &#160;&#160;</text>
</g>
</g>
</svg>
