<?xml version="1.0" encoding="UTF-8" standalone="no"?>
<!DOCTYPE svg PUBLIC "-//W3C//DTD SVG 1.1//EN"
 "http://www.w3.org/Graphics/SVG/1.1/DTD/svg11.dtd">
<!-- Generated by graphviz version 5.0.1 (20220820.1526)
 -->
<!-- Pages: 1 -->
<svg width="652pt" height="827pt"
 viewBox="0.00 0.00 652.05 827.00" xmlns="http://www.w3.org/2000/svg" xmlns:xlink="http://www.w3.org/1999/xlink">
<g id="graph0" class="graph" transform="scale(1 1) rotate(0) translate(4 823)">
<polygon fill="white" stroke="none" points="-4,4 -4,-823 648.05,-823 648.05,4 -4,4"/>
<!-- n6 -->
<g id="node1" class="node">
<title>n6</title>
<ellipse fill="none" stroke="black" cx="488.05" cy="-105" rx="31.7" ry="18"/>
<text text-anchor="middle" x="488.05" y="-101.3" font-family="Times,serif" font-size="14.00">active</text>
</g>
<!-- n4 -->
<g id="node4" class="node">
<title>n4</title>
<ellipse fill="none" stroke="black" cx="371.05" cy="-18" rx="30.59" ry="18"/>
<text text-anchor="middle" x="371.05" y="-14.3" font-family="Times,serif" font-size="14.00">failed</text>
</g>
<!-- n6&#45;&gt;n4 -->
<g id="edge1" class="edge">
<title>n6&#45;&gt;n4</title>
<path fill="none" stroke="black" d="M476.04,-88.14C467.43,-77.52 455.08,-63.75 442.05,-54 430.93,-45.68 417.54,-38.48 405.39,-32.81"/>
<polygon fill="black" stroke="black" points="406.54,-29.49 395.98,-28.59 403.68,-35.88 406.54,-29.49"/>
<text text-anchor="middle" x="476.05" y="-57.8" font-family="Times,serif" font-size="14.00">Failed</text>
</g>
<!-- n1 -->
<g id="node2" class="node">
<title>n1</title>
<ellipse fill="none" stroke="black" cx="200.05" cy="-627" rx="100.98" ry="18"/>
<text text-anchor="middle" x="200.05" y="-623.3" font-family="Times,serif" font-size="14.00">checkedCurrentFirmware</text>
</g>
<!-- n3 -->
<g id="node3" class="node">
<title>n3</title>
<ellipse fill="none" stroke="black" cx="200.05" cy="-540" rx="88.28" ry="18"/>
<text text-anchor="middle" x="200.05" y="-536.3" font-family="Times,serif" font-size="14.00">downloadedFirmware</text>
</g>
<!-- n1&#45;&gt;n3 -->
<g id="edge2" class="edge">
<title>n1&#45;&gt;n3</title>
<path fill="none" stroke="black" d="M200.05,-608.8C200.05,-597.16 200.05,-581.55 200.05,-568.24"/>
<polygon fill="black" stroke="black" points="203.55,-568.18 200.05,-558.18 196.55,-568.18 203.55,-568.18"/>
<text text-anchor="middle" x="284.55" y="-579.8" font-family="Times,serif" font-size="14.00">Download and verify firmware</text>
</g>
<!-- n1&#45;&gt;n4 -->
<g id="edge3" class="edge">
<title>n1&#45;&gt;n4</title>
<path fill="none" stroke="black" d="M106.93,-620C56.35,-611.11 4.05,-590.05 4.05,-541 4.05,-541 4.05,-541 4.05,-104 4.05,-37.65 234.58,-23.08 330.22,-19.89"/>
<polygon fill="black" stroke="black" points="330.5,-23.38 340.39,-19.58 330.28,-16.39 330.5,-23.38"/>
<text text-anchor="middle" x="21.05" y="-318.8" font-family="Times,serif" font-size="14.00">Failed</text>
</g>
<!-- n3&#45;&gt;n4 -->
<g id="edge4" class="edge">
<title>n3&#45;&gt;n4</title>
<path fill="none" stroke="black" d="M144.54,-525.84C109.2,-513.79 70.05,-491.89 70.05,-454 70.05,-454 70.05,-454 70.05,-147.5 70.05,-119.32 68.64,-106.44 89.05,-87 123.64,-54.04 261.89,-32.58 331.12,-23.68"/>
<polygon fill="black" stroke="black" points="331.73,-27.13 341.22,-22.41 330.86,-20.19 331.73,-27.13"/>
<text text-anchor="middle" x="87.05" y="-275.3" font-family="Times,serif" font-size="14.00">Failed</text>
</g>
<!-- n7 -->
<g id="node5" class="node">
<title>n7</title>
<ellipse fill="none" stroke="black" cx="281.05" cy="-453" rx="96.38" ry="18"/>
<text text-anchor="middle" x="281.05" y="-449.3" font-family="Times,serif" font-size="14.00">initiatedInstallFirmware</text>
</g>
<!-- n3&#45;&gt;n7 -->
<g id="edge5" class="edge">
<title>n3&#45;&gt;n7</title>
<path fill="none" stroke="black" d="M216.05,-522.21C228.03,-509.63 244.59,-492.25 258,-478.18"/>
<polygon fill="black" stroke="black" points="260.71,-480.41 265.08,-470.76 255.64,-475.58 260.71,-480.41"/>
<text text-anchor="middle" x="310.55" y="-492.8" font-family="Times,serif" font-size="14.00">Initiate firmware install</text>
</g>
<!-- n7&#45;&gt;n4 -->
<g id="edge6" class="edge">
<title>n7&#45;&gt;n4</title>
<path fill="none" stroke="black" d="M355.93,-441.59C387.83,-435.78 420.37,-427.56 432.05,-417 449.45,-401.25 449.05,-390.47 449.05,-367 449.05,-367 449.05,-367 449.05,-234.5 449.05,-161.87 409.39,-83.26 386.63,-44.11"/>
<polygon fill="black" stroke="black" points="389.36,-41.85 381.24,-35.04 383.34,-45.43 389.36,-41.85"/>
<text text-anchor="middle" x="466.05" y="-231.8" font-family="Times,serif" font-size="14.00">Failed</text>
</g>
<!-- n8 -->
<g id="node6" class="node">
<title>n8</title>
<ellipse fill="none" stroke="black" cx="281.05" cy="-366" rx="110.48" ry="18"/>
<text text-anchor="middle" x="281.05" y="-362.3" font-family="Times,serif" font-size="14.00">polledFirmwareInstallStatus</text>
</g>
<!-- n7&#45;&gt;n8 -->
<g id="edge7" class="edge">
<title>n7&#45;&gt;n8</title>
<path fill="none" stroke="black" d="M281.05,-434.8C281.05,-423.16 281.05,-407.55 281.05,-394.24"/>
<polygon fill="black" stroke="black" points="284.55,-394.18 281.05,-384.18 277.55,-394.18 284.55,-394.18"/>
<text text-anchor="middle" x="354.55" y="-405.8" font-family="Times,serif" font-size="14.00">Poll firmware install status</text>
</g>
<!-- n8&#45;&gt;n4 -->
<g id="edge8" class="edge">
<title>n8&#45;&gt;n4</title>
<path fill="none" stroke="black" d="M346.68,-351.26C357.03,-346.23 366.47,-339.37 373.05,-330 404.72,-284.9 384.61,-113.97 375.16,-46.57"/>
<polygon fill="black" stroke="black" points="378.57,-45.72 373.69,-36.31 371.64,-46.71 378.57,-45.72"/>
<text text-anchor="middle" x="407.05" y="-188.3" font-family="Times,serif" font-size="14.00">Failed</text>
</g>
<!-- n9 -->
<g id="node10" class="node">
<title>n9</title>
<ellipse fill="none" stroke="black" cx="274.05" cy="-279" rx="47.39" ry="18"/>
<text text-anchor="middle" x="274.05" y="-275.3" font-family="Times,serif" font-size="14.00">resetBMC</text>
</g>
<!-- n8&#45;&gt;n9 -->
<g id="edge9" class="edge">
<title>n8&#45;&gt;n9</title>
<path fill="none" stroke="black" d="M277.6,-347.98C276.59,-342.29 275.61,-335.89 275.05,-330 274.35,-322.68 274.01,-314.74 273.86,-307.38"/>
<polygon fill="black" stroke="black" points="277.35,-307.13 273.76,-297.16 270.35,-307.19 277.35,-307.13"/>
<text text-anchor="middle" x="324.05" y="-318.8" font-family="Times,serif" font-size="14.00">Powercycle BMC</text>
</g>
<!-- n11 -->
<g id="node7" class="node">
<title>n11</title>
<ellipse fill="none" stroke="black" cx="176.05" cy="-105" rx="77.99" ry="18"/>
<text text-anchor="middle" x="176.05" y="-101.3" font-family="Times,serif" font-size="14.00">poweredOffDevice</text>
</g>
<!-- n11&#45;&gt;n4 -->
<g id="edge10" class="edge">
<title>n11&#45;&gt;n4</title>
<path fill="none" stroke="black" d="M194.11,-87.26C206.71,-76.39 224.37,-62.68 242.05,-54 270.64,-39.95 305.66,-30.91 331.99,-25.54"/>
<polygon fill="black" stroke="black" points="332.84,-28.94 341.99,-23.59 331.5,-22.07 332.84,-28.94"/>
<text text-anchor="middle" x="259.05" y="-57.8" font-family="Times,serif" font-size="14.00">Failed</text>
</g>
<!-- n12 -->
<g id="node12" class="node">
<title>n12</title>
<ellipse fill="none" stroke="black" cx="37.05" cy="-18" rx="37.09" ry="18"/>
<text text-anchor="middle" x="37.05" y="-14.3" font-family="Times,serif" font-size="14.00">success</text>
</g>
<!-- n11&#45;&gt;n12 -->
<g id="edge11" class="edge">
<title>n11&#45;&gt;n12</title>
<path fill="none" stroke="black" d="M149.9,-88.01C126.65,-73.79 92.61,-52.98 68.01,-37.93"/>
<polygon fill="black" stroke="black" points="69.76,-34.9 59.4,-32.67 66.11,-40.87 69.76,-34.9"/>
<text text-anchor="middle" x="136.55" y="-57.8" font-family="Times,serif" font-size="14.00">Success</text>
</g>
<!-- n2 -->
<g id="node8" class="node">
<title>n2</title>
<ellipse fill="none" stroke="black" cx="504.05" cy="-714" rx="76.89" ry="18"/>
<text text-anchor="middle" x="504.05" y="-710.3" font-family="Times,serif" font-size="14.00">poweredOnDevice</text>
</g>
<!-- n2&#45;&gt;n1 -->
<g id="edge12" class="edge">
<title>n2&#45;&gt;n1</title>
<path fill="none" stroke="black" d="M456.55,-699.72C403.98,-685.02 319.09,-661.29 261.5,-645.18"/>
<polygon fill="black" stroke="black" points="262.36,-641.79 251.79,-642.47 260.48,-648.53 262.36,-641.79"/>
<text text-anchor="middle" x="440.05" y="-666.8" font-family="Times,serif" font-size="14.00">Check installed firmware</text>
</g>
<!-- n2&#45;&gt;n4 -->
<g id="edge13" class="edge">
<title>n2&#45;&gt;n4</title>
<path fill="none" stroke="black" d="M518.94,-696.09C531.71,-679.82 548.05,-653.92 548.05,-628 548.05,-628 548.05,-628 548.05,-104 548.05,-43.76 463.7,-26.18 411.46,-21.07"/>
<polygon fill="black" stroke="black" points="411.74,-17.59 401.47,-20.21 411.13,-24.56 411.74,-17.59"/>
<text text-anchor="middle" x="565.05" y="-362.3" font-family="Times,serif" font-size="14.00">Failed</text>
</g>
<!-- n5 -->
<g id="node9" class="node">
<title>n5</title>
<ellipse fill="none" stroke="black" cx="557.05" cy="-801" rx="36.29" ry="18"/>
<text text-anchor="middle" x="557.05" y="-797.3" font-family="Times,serif" font-size="14.00">queued</text>
</g>
<!-- n5&#45;&gt;n4 -->
<g id="edge14" class="edge">
<title>n5&#45;&gt;n4</title>
<path fill="none" stroke="black" d="M577.09,-785.8C583.96,-780.04 591.15,-772.88 596.05,-765 608.23,-745.4 610.05,-738.08 610.05,-715 610.05,-715 610.05,-715 610.05,-104 610.05,-67.2 577.59,-69.14 544.05,-54 501.21,-34.67 447.61,-25.94 411.52,-22.04"/>
<polygon fill="black" stroke="black" points="411.67,-18.54 401.37,-21.03 410.97,-25.51 411.67,-18.54"/>
<text text-anchor="middle" x="627.05" y="-405.8" font-family="Times,serif" font-size="14.00">Failed</text>
</g>
<!-- n5&#45;&gt;n2 -->
<g id="edge15" class="edge">
<title>n5&#45;&gt;n2</title>
<path fill="none" stroke="black" d="M530.37,-788.62C520.62,-783.01 510.62,-775.22 505.05,-765 501.33,-758.19 500.09,-750.04 500.05,-742.31"/>
<polygon fill="black" stroke="black" points="503.55,-742.39 500.61,-732.21 496.56,-742 503.55,-742.39"/>
<text text-anchor="middle" x="550.55" y="-753.8" font-family="Times,serif" font-size="14.00">Power on device</text>
</g>
<!-- n9&#45;&gt;n4 -->
<g id="edge16" class="edge">
<title>n9&#45;&gt;n4</title>
<path fill="none" stroke="black" d="M303.34,-264.71C312.31,-259.24 321.31,-252.02 327.05,-243 351.64,-204.34 333.41,-186 342.05,-141 348.4,-107.89 357.68,-70.19 364.02,-45.57"/>
<polygon fill="black" stroke="black" points="367.41,-46.43 366.54,-35.87 360.64,-44.67 367.41,-46.43"/>
<text text-anchor="middle" x="359.05" y="-144.8" font-family="Times,serif" font-size="14.00">Failed</text>
</g>
<!-- n10 -->
<g id="node11" class="node">
<title>n10</title>
<ellipse fill="none" stroke="black" cx="220.05" cy="-192" rx="51.99" ry="18"/>
<text text-anchor="middle" x="220.05" y="-188.3" font-family="Times,serif" font-size="14.00">resetDevice</text>
</g>
<!-- n9&#45;&gt;n10 -->
<g id="edge17" class="edge">
<title>n9&#45;&gt;n10</title>
<path fill="none" stroke="black" d="M243.8,-264.94C234.89,-259.51 226.15,-252.27 221.05,-243 217.3,-236.2 216.05,-228.06 216.01,-220.33"/>
<polygon fill="black" stroke="black" points="219.51,-220.41 216.58,-210.23 212.52,-220.02 219.51,-220.41"/>
<text text-anchor="middle" x="274.05" y="-231.8" font-family="Times,serif" font-size="14.00">Powercycle Device</text>
</g>
<!-- n10&#45;&gt;n4 -->
<g id="edge18" class="edge">
<title>n10&#45;&gt;n4</title>
<path fill="none" stroke="black" d="M249.74,-177.12C259.12,-171.6 268.89,-164.51 276.05,-156 297.34,-130.66 285.86,-114.65 304.05,-87 315.62,-69.41 332.21,-52.52 345.98,-39.98"/>
<polygon fill="black" stroke="black" points="348.55,-42.38 353.71,-33.13 343.91,-37.15 348.55,-42.38"/>
<text text-anchor="middle" x="321.05" y="-101.3" font-family="Times,serif" font-size="14.00">Failed</text>
</g>
<!-- n10&#45;&gt;n11 -->
<g id="edge19" class="edge">
<title>n10&#45;&gt;n11</title>
<path fill="none" stroke="black" d="M195.85,-175.8C189.26,-170.4 182.89,-163.71 179.05,-156 175.58,-149.04 174.17,-140.85 173.8,-133.13"/>
<polygon fill="black" stroke="black" points="177.3,-133.08 173.85,-123.06 170.3,-133.04 177.3,-133.08"/>
<text text-anchor="middle" x="227.55" y="-144.8" font-family="Times,serif" font-size="14.00">Power off Device</text>
</g>
</g>
</svg>
