<?xml version="1.0" encoding="UTF-8" standalone="no"?>
<!DOCTYPE svg PUBLIC "-//W3C//DTD SVG 1.1//EN"
 "http://www.w3.org/Graphics/SVG/1.1/DTD/svg11.dtd">
<!-- Generated by graphviz version 5.0.1 (20220820.1526)
 -->
<!-- Pages: 1 -->
<svg width="641pt" height="827pt"
 viewBox="0.00 0.00 641.05 827.00" xmlns="http://www.w3.org/2000/svg" xmlns:xlink="http://www.w3.org/1999/xlink">
<g id="graph0" class="graph" transform="scale(1 1) rotate(0) translate(4 823)">
<polygon fill="white" stroke="none" points="-4,4 -4,-823 637.05,-823 637.05,4 -4,4"/>
<!-- n12 -->
<g id="node1" class="node">
<title>n12</title>
<ellipse fill="none" stroke="black" cx="483.05" cy="-105" rx="31.7" ry="18"/>
<text text-anchor="middle" x="483.05" y="-101.3" font-family="Times,serif" font-size="14.00">active</text>
</g>
<!-- n11 -->
<g id="node4" class="node">
<title>n11</title>
<ellipse fill="none" stroke="black" cx="366.05" cy="-18" rx="30.59" ry="18"/>
<text text-anchor="middle" x="366.05" y="-14.3" font-family="Times,serif" font-size="14.00">failed</text>
</g>
<!-- n12&#45;&gt;n11 -->
<g id="edge1" class="edge">
<title>n12&#45;&gt;n11</title>
<path fill="none" stroke="black" d="M471.04,-88.14C462.43,-77.52 450.08,-63.75 437.05,-54 425.93,-45.68 412.54,-38.48 400.39,-32.81"/>
<polygon fill="black" stroke="black" points="401.54,-29.49 390.98,-28.59 398.68,-35.88 401.54,-29.49"/>
<text text-anchor="middle" x="469.55" y="-57.8" font-family="Times,serif" font-size="14.00">failed</text>
</g>
<!-- n2 -->
<g id="node2" class="node">
<title>n2</title>
<ellipse fill="none" stroke="black" cx="209.05" cy="-627" rx="100.98" ry="18"/>
<text text-anchor="middle" x="209.05" y="-623.3" font-family="Times,serif" font-size="14.00">checkedCurrentFirmware</text>
</g>
<!-- n1 -->
<g id="node3" class="node">
<title>n1</title>
<ellipse fill="none" stroke="black" cx="209.05" cy="-540" rx="88.28" ry="18"/>
<text text-anchor="middle" x="209.05" y="-536.3" font-family="Times,serif" font-size="14.00">downloadedFirmware</text>
</g>
<!-- n2&#45;&gt;n1 -->
<g id="edge2" class="edge">
<title>n2&#45;&gt;n1</title>
<path fill="none" stroke="black" d="M209.05,-608.8C209.05,-597.16 209.05,-581.55 209.05,-568.24"/>
<polygon fill="black" stroke="black" points="212.55,-568.18 209.05,-558.18 205.55,-568.18 212.55,-568.18"/>
<text text-anchor="middle" x="271.05" y="-579.8" font-family="Times,serif" font-size="14.00">downloadingFirmware</text>
</g>
<!-- n2&#45;&gt;n11 -->
<g id="edge3" class="edge">
<title>n2&#45;&gt;n11</title>
<path fill="none" stroke="black" d="M112.85,-621.52C59.59,-613.26 4.05,-592.34 4.05,-541 4.05,-541 4.05,-541 4.05,-104 4.05,-38.59 230.89,-23.47 325.44,-20.01"/>
<polygon fill="black" stroke="black" points="325.62,-23.51 335.49,-19.67 325.38,-16.51 325.62,-23.51"/>
<text text-anchor="middle" x="19.55" y="-318.8" font-family="Times,serif" font-size="14.00">failed</text>
</g>
<!-- n1&#45;&gt;n11 -->
<g id="edge5" class="edge">
<title>n1&#45;&gt;n11</title>
<path fill="none" stroke="black" d="M147.61,-526.86C109.62,-515.38 68.05,-493.73 68.05,-454 68.05,-454 68.05,-454 68.05,-147.5 68.05,-119.32 66.61,-106.4 87.05,-87 121.27,-54.51 257.41,-32.89 326.05,-23.83"/>
<polygon fill="black" stroke="black" points="326.59,-27.29 336.06,-22.53 325.7,-20.35 326.59,-27.29"/>
<text text-anchor="middle" x="83.55" y="-275.3" font-family="Times,serif" font-size="14.00">failed</text>
</g>
<!-- n3 -->
<g id="node5" class="node">
<title>n3</title>
<ellipse fill="none" stroke="black" cx="299.05" cy="-453" rx="96.38" ry="18"/>
<text text-anchor="middle" x="299.05" y="-449.3" font-family="Times,serif" font-size="14.00">initiatedInstallFirmware</text>
</g>
<!-- n1&#45;&gt;n3 -->
<g id="edge4" class="edge">
<title>n1&#45;&gt;n3</title>
<path fill="none" stroke="black" d="M226.83,-522.21C240.26,-509.52 258.89,-491.93 273.85,-477.79"/>
<polygon fill="black" stroke="black" points="276.44,-480.17 281.3,-470.76 271.63,-475.08 276.44,-480.17"/>
<text text-anchor="middle" x="328.05" y="-492.8" font-family="Times,serif" font-size="14.00">initiatingInstallFirmware</text>
</g>
<!-- n3&#45;&gt;n11 -->
<g id="edge7" class="edge">
<title>n3&#45;&gt;n11</title>
<path fill="none" stroke="black" d="M364.34,-439.76C402.82,-428.35 444.05,-406.83 444.05,-367 444.05,-367 444.05,-367 444.05,-234.5 444.05,-151.26 431.93,-128.12 394.05,-54 391.96,-49.91 389.35,-45.85 386.56,-42.02"/>
<polygon fill="black" stroke="black" points="389.26,-39.79 380.33,-34.09 383.75,-44.11 389.26,-39.79"/>
<text text-anchor="middle" x="459.55" y="-231.8" font-family="Times,serif" font-size="14.00">failed</text>
</g>
<!-- n4 -->
<g id="node6" class="node">
<title>n4</title>
<ellipse fill="none" stroke="black" cx="299.05" cy="-366" rx="110.48" ry="18"/>
<text text-anchor="middle" x="299.05" y="-362.3" font-family="Times,serif" font-size="14.00">polledFirmwareInstallStatus</text>
</g>
<!-- n3&#45;&gt;n4 -->
<g id="edge6" class="edge">
<title>n3&#45;&gt;n4</title>
<path fill="none" stroke="black" d="M299.05,-434.8C299.05,-423.16 299.05,-407.55 299.05,-394.24"/>
<polygon fill="black" stroke="black" points="302.55,-394.18 299.05,-384.18 295.55,-394.18 302.55,-394.18"/>
<text text-anchor="middle" x="352.05" y="-405.8" font-family="Times,serif" font-size="14.00">pollingInstallStatus</text>
</g>
<!-- n4&#45;&gt;n11 -->
<g id="edge9" class="edge">
<title>n4&#45;&gt;n11</title>
<path fill="none" stroke="black" d="M345.36,-349.64C354.94,-344.65 364.19,-338.22 371.05,-330 385.84,-312.29 385.05,-303.08 385.05,-280 385.05,-280 385.05,-280 385.05,-104 385.05,-83.96 379.96,-61.9 375.05,-45.27"/>
<polygon fill="black" stroke="black" points="378.38,-44.19 372.06,-35.69 371.69,-46.28 378.38,-44.19"/>
<text text-anchor="middle" x="400.55" y="-188.3" font-family="Times,serif" font-size="14.00">failed</text>
</g>
<!-- n5 -->
<g id="node10" class="node">
<title>n5</title>
<ellipse fill="none" stroke="black" cx="292.05" cy="-279" rx="47.39" ry="18"/>
<text text-anchor="middle" x="292.05" y="-275.3" font-family="Times,serif" font-size="14.00">resetBMC</text>
</g>
<!-- n4&#45;&gt;n5 -->
<g id="edge8" class="edge">
<title>n4&#45;&gt;n5</title>
<path fill="none" stroke="black" d="M295.6,-347.98C294.59,-342.29 293.61,-335.89 293.05,-330 292.35,-322.68 292.01,-314.74 291.86,-307.38"/>
<polygon fill="black" stroke="black" points="295.35,-307.13 291.76,-297.16 288.35,-307.19 295.35,-307.13"/>
<text text-anchor="middle" x="332.05" y="-318.8" font-family="Times,serif" font-size="14.00">resettingBMC</text>
</g>
<!-- n7 -->
<g id="node7" class="node">
<title>n7</title>
<ellipse fill="none" stroke="black" cx="174.05" cy="-105" rx="77.99" ry="18"/>
<text text-anchor="middle" x="174.05" y="-101.3" font-family="Times,serif" font-size="14.00">poweredOffDevice</text>
</g>
<!-- n7&#45;&gt;n11 -->
<g id="edge11" class="edge">
<title>n7&#45;&gt;n11</title>
<path fill="none" stroke="black" d="M193.1,-87.37C206.34,-76.55 224.82,-62.85 243.05,-54 269.9,-40.96 302.48,-31.96 327.36,-26.36"/>
<polygon fill="black" stroke="black" points="328.14,-29.77 337.17,-24.23 326.66,-22.93 328.14,-29.77"/>
<text text-anchor="middle" x="258.55" y="-57.8" font-family="Times,serif" font-size="14.00">failed</text>
</g>
<!-- n10 -->
<g id="node12" class="node">
<title>n10</title>
<ellipse fill="none" stroke="black" cx="37.05" cy="-18" rx="37.09" ry="18"/>
<text text-anchor="middle" x="37.05" y="-14.3" font-family="Times,serif" font-size="14.00">success</text>
</g>
<!-- n7&#45;&gt;n10 -->
<g id="edge10" class="edge">
<title>n7&#45;&gt;n10</title>
<path fill="none" stroke="black" d="M147.96,-87.81C125.1,-73.63 91.86,-53.01 67.73,-38.04"/>
<polygon fill="black" stroke="black" points="69.32,-34.9 58.98,-32.61 65.63,-40.85 69.32,-34.9"/>
<text text-anchor="middle" x="134.55" y="-57.8" font-family="Times,serif" font-size="14.00">success</text>
</g>
<!-- n8 -->
<g id="node8" class="node">
<title>n8</title>
<ellipse fill="none" stroke="black" cx="481.05" cy="-714" rx="76.89" ry="18"/>
<text text-anchor="middle" x="481.05" y="-710.3" font-family="Times,serif" font-size="14.00">poweredOnDevice</text>
</g>
<!-- n8&#45;&gt;n2 -->
<g id="edge12" class="edge">
<title>n8&#45;&gt;n2</title>
<path fill="none" stroke="black" d="M437.04,-699.25C390.57,-684.73 317.12,-661.77 266.2,-645.86"/>
<polygon fill="black" stroke="black" points="267.24,-642.52 256.65,-642.88 265.15,-649.2 267.24,-642.52"/>
<text text-anchor="middle" x="436.55" y="-666.8" font-family="Times,serif" font-size="14.00">checkingInstalledFirmware</text>
</g>
<!-- n8&#45;&gt;n11 -->
<g id="edge13" class="edge">
<title>n8&#45;&gt;n11</title>
<path fill="none" stroke="black" d="M502.73,-696.67C520.61,-681.17 543.05,-656.13 543.05,-628 543.05,-628 543.05,-628 543.05,-104 543.05,-43.76 458.7,-26.18 406.46,-21.07"/>
<polygon fill="black" stroke="black" points="406.74,-17.59 396.47,-20.21 406.13,-24.56 406.74,-17.59"/>
<text text-anchor="middle" x="558.55" y="-362.3" font-family="Times,serif" font-size="14.00">failed</text>
</g>
<!-- n9 -->
<g id="node9" class="node">
<title>n9</title>
<ellipse fill="none" stroke="black" cx="541.05" cy="-801" rx="36.29" ry="18"/>
<text text-anchor="middle" x="541.05" y="-797.3" font-family="Times,serif" font-size="14.00">queued</text>
</g>
<!-- n9&#45;&gt;n11 -->
<g id="edge15" class="edge">
<title>n9&#45;&gt;n11</title>
<path fill="none" stroke="black" d="M564.74,-786.86C573.18,-781.13 582.06,-773.72 588.05,-765 601.11,-745.98 602.05,-738.08 602.05,-715 602.05,-715 602.05,-715 602.05,-104 602.05,-68.25 571.46,-69.07 539.05,-54 496.43,-34.19 442.79,-25.55 406.63,-21.81"/>
<polygon fill="black" stroke="black" points="406.74,-18.31 396.45,-20.84 406.08,-25.28 406.74,-18.31"/>
<text text-anchor="middle" x="617.55" y="-405.8" font-family="Times,serif" font-size="14.00">failed</text>
</g>
<!-- n9&#45;&gt;n8 -->
<g id="edge14" class="edge">
<title>n9&#45;&gt;n8</title>
<path fill="none" stroke="black" d="M512.11,-790.03C500.68,-784.52 488.7,-776.42 482.05,-765 478.14,-758.3 476.84,-750.18 476.8,-742.45"/>
<polygon fill="black" stroke="black" points="480.3,-742.52 477.4,-732.33 473.31,-742.1 480.3,-742.52"/>
<text text-anchor="middle" x="535.05" y="-753.8" font-family="Times,serif" font-size="14.00">poweringOnDevice</text>
</g>
<!-- n5&#45;&gt;n11 -->
<g id="edge17" class="edge">
<title>n5&#45;&gt;n11</title>
<path fill="none" stroke="black" d="M310.86,-262.18C316.27,-256.66 321.63,-250.07 325.05,-243 345.02,-201.76 331.93,-186.1 340.05,-141 345.96,-108.14 354.18,-70.61 359.79,-45.95"/>
<polygon fill="black" stroke="black" points="363.26,-46.43 362.09,-35.91 356.44,-44.87 363.26,-46.43"/>
<text text-anchor="middle" x="355.55" y="-144.8" font-family="Times,serif" font-size="14.00">failed</text>
</g>
<!-- n6 -->
<g id="node11" class="node">
<title>n6</title>
<ellipse fill="none" stroke="black" cx="251.05" cy="-192" rx="51.99" ry="18"/>
<text text-anchor="middle" x="251.05" y="-188.3" font-family="Times,serif" font-size="14.00">resetDevice</text>
</g>
<!-- n5&#45;&gt;n6 -->
<g id="edge16" class="edge">
<title>n5&#45;&gt;n6</title>
<path fill="none" stroke="black" d="M268.67,-263.14C262.08,-257.67 255.71,-250.86 252.05,-243 248.77,-235.97 247.66,-227.75 247.6,-220.03"/>
<polygon fill="black" stroke="black" points="251.1,-220.13 248.07,-209.98 244.11,-219.8 251.1,-220.13"/>
<text text-anchor="middle" x="288.55" y="-231.8" font-family="Times,serif" font-size="14.00">resettingHost</text>
</g>
<!-- n6&#45;&gt;n11 -->
<g id="edge19" class="edge">
<title>n6&#45;&gt;n11</title>
<path fill="none" stroke="black" d="M262.97,-174.32C266.76,-168.65 270.8,-162.18 274.05,-156 289.43,-126.7 284.19,-114.87 302.05,-87 312.9,-70.06 319.26,-68.65 333.05,-54 336.91,-49.89 341.03,-45.52 345,-41.31"/>
<polygon fill="black" stroke="black" points="347.6,-43.66 351.91,-33.98 342.5,-38.86 347.6,-43.66"/>
<text text-anchor="middle" x="317.55" y="-101.3" font-family="Times,serif" font-size="14.00">failed</text>
</g>
<!-- n6&#45;&gt;n7 -->
<g id="edge18" class="edge">
<title>n6&#45;&gt;n7</title>
<path fill="none" stroke="black" d="M205.54,-183.2C190.05,-178.13 174.31,-169.78 165.05,-156 160.48,-149.21 160.4,-140.77 162.17,-132.77"/>
<polygon fill="black" stroke="black" points="165.57,-133.62 165.18,-123.03 158.88,-131.55 165.57,-133.62"/>
<text text-anchor="middle" x="219.55" y="-144.8" font-family="Times,serif" font-size="14.00">poweringOffDevice</text>
</g>
</g>
</svg>
