<?xml version="1.0" encoding="UTF-8" standalone="no"?>
<!DOCTYPE svg PUBLIC "-//W3C//DTD SVG 1.1//EN"
 "http://www.w3.org/Graphics/SVG/1.1/DTD/svg11.dtd">
<!-- Generated by graphviz version 5.0.1 (20220820.1526)
 -->
<!-- Pages: 1 -->
<svg width="253pt" height="131pt"
 viewBox="0.00 0.00 253.24 131.00" xmlns="http://www.w3.org/2000/svg" xmlns:xlink="http://www.w3.org/1999/xlink">
<g id="graph0" class="graph" transform="scale(1 1) rotate(0) translate(4 127)">
<polygon fill="white" stroke="none" points="-4,4 -4,-127 249.24,-127 249.24,4 -4,4"/>
<!-- n1 -->
<g id="node1" class="node">
<title>n1</title>
<ellipse fill="none" stroke="black" cx="31.85" cy="-105" rx="31.7" ry="18"/>
<text text-anchor="middle" x="31.85" y="-101.3" font-family="Times,serif" font-size="14.00">active</text>
</g>
<!-- n1&#45;&gt;n1 -->
<g id="edge1" class="edge">
<title>n1&#45;&gt;n1</title>
<path fill="none" stroke="black" d="M63,-108.94C73.39,-108.94 81.69,-107.62 81.69,-105 81.69,-103.32 78.28,-102.18 73.1,-101.57"/>
<polygon fill="black" stroke="black" points="73.17,-98.07 63,-101.06 72.81,-105.06 73.17,-98.07"/>
<text text-anchor="middle" x="97.19" y="-101.3" font-family="Times,serif" font-size="14.00">query</text>
</g>
<!-- n1&#45;&gt;n1 -->
<g id="edge2" class="edge">
<title>n1&#45;&gt;n1</title>
<path fill="none" stroke="black" d="M61.46,-111.86C85.79,-114.42 112.69,-112.14 112.69,-105 112.69,-98.84 92.65,-96.29 71.51,-97.36"/>
<polygon fill="black" stroke="black" points="71.16,-93.88 61.46,-98.14 71.7,-100.86 71.16,-93.88"/>
<text text-anchor="middle" x="124.69" y="-101.3" font-family="Times,serif" font-size="14.00">plan</text>
</g>
<!-- n3 -->
<g id="node2" class="node">
<title>n3</title>
<ellipse fill="none" stroke="black" cx="158.85" cy="-18" rx="30.59" ry="18"/>
<text text-anchor="middle" x="158.85" y="-14.3" font-family="Times,serif" font-size="14.00">failed</text>
</g>
<!-- n1&#45;&gt;n3 -->
<g id="edge4" class="edge">
<title>n1&#45;&gt;n3</title>
<path fill="none" stroke="black" d="M55.8,-93.03C68.9,-86.66 85.2,-78.1 98.85,-69 111.61,-60.49 124.82,-49.73 135.58,-40.38"/>
<polygon fill="black" stroke="black" points="138.11,-42.81 143.28,-33.56 133.47,-37.57 138.11,-42.81"/>
<text text-anchor="middle" x="134.35" y="-57.8" font-family="Times,serif" font-size="14.00">failed</text>
</g>
<!-- n2 -->
<g id="node4" class="node">
<title>n2</title>
<ellipse fill="none" stroke="black" cx="57.85" cy="-18" rx="37.09" ry="18"/>
<text text-anchor="middle" x="57.85" y="-14.3" font-family="Times,serif" font-size="14.00">success</text>
</g>
<!-- n1&#45;&gt;n2 -->
<g id="edge3" class="edge">
<title>n1&#45;&gt;n2</title>
<path fill="none" stroke="black" d="M28.66,-86.89C27.51,-77.02 27.26,-64.52 30.85,-54 32.17,-50.11 34.13,-46.31 36.39,-42.74"/>
<polygon fill="black" stroke="black" points="39.4,-44.55 42.46,-34.4 33.74,-40.43 39.4,-44.55"/>
<text text-anchor="middle" x="40.35" y="-57.8" font-family="Times,serif" font-size="14.00">run</text>
</g>
<!-- n1&#45;&gt;n2 -->
<g id="edge5" class="edge">
<title>n1&#45;&gt;n2</title>
<path fill="none" stroke="black" d="M41.57,-87.73C44.63,-81.98 47.76,-75.36 49.85,-69 52.19,-61.85 53.86,-53.88 55.05,-46.45"/>
<polygon fill="black" stroke="black" points="58.53,-46.83 56.42,-36.44 51.6,-45.87 58.53,-46.83"/>
<text text-anchor="middle" x="74.35" y="-57.8" font-family="Times,serif" font-size="14.00">success</text>
</g>
<!-- n4 -->
<g id="node3" class="node">
<title>n4</title>
<ellipse fill="none" stroke="black" cx="208.85" cy="-105" rx="36.29" ry="18"/>
<text text-anchor="middle" x="208.85" y="-101.3" font-family="Times,serif" font-size="14.00">queued</text>
</g>
<!-- n4&#45;&gt;n3 -->
<g id="edge6" class="edge">
<title>n4&#45;&gt;n3</title>
<path fill="none" stroke="black" d="M199.72,-87.21C194.35,-77.45 187.35,-64.95 180.85,-54 178.9,-50.72 176.81,-47.3 174.73,-43.93"/>
<polygon fill="black" stroke="black" points="177.59,-41.9 169.32,-35.28 171.65,-45.61 177.59,-41.9"/>
<text text-anchor="middle" x="205.35" y="-57.8" font-family="Times,serif" font-size="14.00">failed</text>
</g>
</g>
</svg>
