<?xml version="1.0" encoding="UTF-8" standalone="no"?>
<!DOCTYPE svg PUBLIC "-//W3C//DTD SVG 1.1//EN"
 "http://www.w3.org/Graphics/SVG/1.1/DTD/svg11.dtd">
<!-- Generated by graphviz version 5.0.1 (20220820.1526)
 -->
<!-- Pages: 1 -->
<svg width="463pt" height="131pt"
 viewBox="0.00 0.00 462.53 131.00" xmlns="http://www.w3.org/2000/svg" xmlns:xlink="http://www.w3.org/1999/xlink">
<g id="graph0" class="graph" transform="scale(1 1) rotate(0) translate(4 127)">
<polygon fill="white" stroke="none" points="-4,4 -4,-127 458.53,-127 458.53,4 -4,4"/>
<!-- n3 -->
<g id="node1" class="node">
<title>n3</title>
<ellipse fill="none" stroke="black" cx="64.13" cy="-105" rx="31.7" ry="18"/>
<text text-anchor="middle" x="64.13" y="-101.3" font-family="Times,serif" font-size="14.00">active</text>
</g>
<!-- n3&#45;&gt;n3 -->
<g id="edge2" class="edge">
<title>n3&#45;&gt;n3</title>
<path fill="none" stroke="black" d="M95.29,-108.94C105.67,-108.94 113.98,-107.62 113.98,-105 113.98,-103.32 110.57,-102.18 105.39,-101.57"/>
<polygon fill="black" stroke="black" points="105.45,-98.07 95.29,-101.06 105.1,-105.06 105.45,-98.07"/>
<text text-anchor="middle" x="165.48" y="-101.3" font-family="Times,serif" font-size="14.00">Plan install actions</text>
</g>
<!-- n3&#45;&gt;n3 -->
<g id="edge3" class="edge">
<title>n3&#45;&gt;n3</title>
<path fill="none" stroke="black" d="M94.7,-110.65C140.64,-114.92 216.98,-113.04 216.98,-105 216.98,-97.53 151,-95.37 104.81,-98.54"/>
<polygon fill="black" stroke="black" points="104.39,-95.06 94.7,-99.35 104.95,-102.04 104.39,-95.06"/>
<text text-anchor="middle" x="281.48" y="-101.3" font-family="Times,serif" font-size="14.00">Query device inventory</text>
</g>
<!-- n1 -->
<g id="node2" class="node">
<title>n1</title>
<ellipse fill="none" stroke="black" cx="351.13" cy="-18" rx="30.59" ry="18"/>
<text text-anchor="middle" x="351.13" y="-14.3" font-family="Times,serif" font-size="14.00">failed</text>
</g>
<!-- n3&#45;&gt;n1 -->
<g id="edge1" class="edge">
<title>n3&#45;&gt;n1</title>
<path fill="none" stroke="black" d="M92.8,-96.95C119.82,-90.2 161.39,-79.49 197.13,-69 238.14,-56.96 284.76,-41.58 315.86,-31.08"/>
<polygon fill="black" stroke="black" points="317.04,-34.38 325.38,-27.85 314.79,-27.75 317.04,-34.38"/>
<text text-anchor="middle" x="274.63" y="-57.8" font-family="Times,serif" font-size="14.00">Task failed</text>
</g>
<!-- n4 -->
<g id="node4" class="node">
<title>n4</title>
<ellipse fill="none" stroke="black" cx="65.13" cy="-18" rx="37.09" ry="18"/>
<text text-anchor="middle" x="65.13" y="-14.3" font-family="Times,serif" font-size="14.00">success</text>
</g>
<!-- n3&#45;&gt;n4 -->
<g id="edge4" class="edge">
<title>n3&#45;&gt;n4</title>
<path fill="none" stroke="black" d="M37.32,-95.02C16.42,-86.42 -7.43,-72.09 3.13,-54 8.32,-45.11 16.69,-38.31 25.62,-33.16"/>
<polygon fill="black" stroke="black" points="27.33,-36.22 34.65,-28.56 24.15,-29.99 27.33,-36.22"/>
<text text-anchor="middle" x="54.13" y="-57.8" font-family="Times,serif" font-size="14.00">Run install actions</text>
</g>
<!-- n3&#45;&gt;n4 -->
<g id="edge5" class="edge">
<title>n3&#45;&gt;n4</title>
<path fill="none" stroke="black" d="M85.58,-91.31C93.23,-85.56 100.98,-78.01 105.13,-69 110.08,-58.27 104.03,-47.84 95.26,-39.3"/>
<polygon fill="black" stroke="black" points="97.31,-36.45 87.43,-32.61 92.76,-41.77 97.31,-36.45"/>
<text text-anchor="middle" x="150.13" y="-57.8" font-family="Times,serif" font-size="14.00">Task successful</text>
</g>
<!-- n2 -->
<g id="node3" class="node">
<title>n2</title>
<ellipse fill="none" stroke="black" cx="418.13" cy="-105" rx="36.29" ry="18"/>
<text text-anchor="middle" x="418.13" y="-101.3" font-family="Times,serif" font-size="14.00">queued</text>
</g>
<!-- n2&#45;&gt;n1 -->
<g id="edge6" class="edge">
<title>n2&#45;&gt;n1</title>
<path fill="none" stroke="black" d="M405.53,-88.01C395.45,-75.23 381.17,-57.12 369.78,-42.65"/>
<polygon fill="black" stroke="black" points="372.39,-40.32 363.45,-34.63 366.89,-44.65 372.39,-40.32"/>
<text text-anchor="middle" x="418.63" y="-57.8" font-family="Times,serif" font-size="14.00">Task failed</text>
</g>
</g>
</svg>
